<?xml version="1.0" encoding="UTF-8" standalone="no"?>
<!-- Created with Inkscape (http://www.inkscape.org/) -->

<svg
   version="1.1"
   id="svg1"
   width="576"
   height="384"
   viewBox="0 0 576 384"
   sodipodi:docname="diffusion_sinus.svg"
   inkscape:version="1.4.3 (0d15f750, 2025-12-25)"
   inkscape:export-filename="diffusion_sinus.pdf"
   inkscape:export-xdpi="96"
   inkscape:export-ydpi="96"
   xmlns:inkscape="http://www.inkscape.org/namespaces/inkscape"
   xmlns:sodipodi="http://sodipodi.sourceforge.net/DTD/sodipodi-0.dtd"
   xmlns="http://www.w3.org/2000/svg"
   xmlns:svg="http://www.w3.org/2000/svg">
  <defs
     id="defs1" />
  <sodipodi:namedview
     id="namedview1"
     pagecolor="#ffffff"
     bordercolor="#000000"
     borderopacity="0.25"
     inkscape:showpageshadow="2"
     inkscape:pageopacity="0.0"
     inkscape:pagecheckerboard="0"
     inkscape:deskcolor="#d1d1d1"
     inkscape:zoom="1.0833333"
     inkscape:cx="252.46154"
     inkscape:cy="247.84615"
     inkscape:window-width="1280"
     inkscape:window-height="800"
     inkscape:window-x="0"
     inkscape:window-y="0"
     inkscape:window-maximized="0"
     inkscape:current-layer="g1">
    <inkscape:page
       x="0"
       y="0"
       inkscape:label="1"
       id="page1"
       width="576"
       height="384"
       margin="0"
       bleed="0" />
  </sodipodi:namedview>
  <g
     id="g1"
     inkscape:groupmode="layer"
     inkscape:label="1">
    <path
       id="path1"
       d="M 0,0 H 432 V 288 H 0 Z"
       style="fill:#ffffff;fill-opacity:1;fill-rule:nonzero;stroke:none"
       transform="matrix(1.3333333,0,0,-1.3333333,0,384)" />
    <g
       id="page1-7"
       transform="matrix(1.5066666,0,0,1.5066666,-131.10041,50.506275)"
       style="display:inline;fill:#0000ff">
      <path
         id="use1-2"
         d="m 223.23005,77.42565 c 0.32279,0 1.13574,-0.02391 1.70959,-0.239103 0.90859,-0.3467 0.99228,-1.0401 0.99228,-1.255293 0,-0.526027 -0.4543,-1.004234 -1.24334,-1.004234 -1.25529,0 -3.06052,1.135741 -3.06052,3.263761 0,1.255292 0.71731,2.12802 1.80523,2.12802 1.6259,0 2.65404,-1.267248 2.65404,-1.422665 0,-0.07173 -0.0717,-0.131507 -0.11955,-0.131507 -0.0359,0 -0.0478,0.01196 -0.15542,0.119552 -0.76513,1.016189 -1.90087,1.195516 -2.35516,1.195516 -0.68145,0 -1.0401,-0.537982 -1.0401,-1.422665 0,-0.167372 0,-0.466251 0.17932,-1.231382 z m -0.57385,-0.239103 c 0.51407,-1.841096 1.64981,-2.020424 2.03238,-2.020424 0.52603,0 0.88468,0.310835 0.88468,0.765131 0,1.255293 -1.91283,1.255293 -2.41494,1.255293 z"
         style="fill:#0000ff" />
      <path
         id="use2-3"
         d="m 232.08663,73.453854 c 0.12752,0 0.30286,0 0.30286,-0.183313 0,-0.183313 -0.17534,-0.183313 -0.30286,-0.183313 h -4.56688 c -0.12752,0 -0.30286,0 -0.30286,0.183313 0,0.183313 0.17534,0.183313 0.30286,0.183313 z"
         style="fill:#0000ff" />
      <path
         id="use3-6"
         d="m 235.47711,70.289719 c 0,-0.175342 -0.12752,-0.302864 -0.31083,-0.302864 -0.20722,0 -0.43836,0.191282 -0.43836,0.430386 0,0.175342 0.12753,0.302864 0.31084,0.302864 0.20722,0 0.43835,-0.191283 0.43835,-0.430386 z m -1.16363,2.925031 -0.43039,1.099876 c -0.0399,0.119551 -0.0797,0.215193 -0.0797,0.350685 0,0.390535 0.30286,0.677459 0.72528,0.677459 0.7731,0 1.09988,-1.115816 1.09988,-1.219427 0,-0.0797 -0.0638,-0.103611 -0.11956,-0.103611 -0.0956,0 -0.11158,0.05579 -0.13549,0.135491 -0.18331,0.637609 -0.51008,0.964384 -0.82889,0.964384 -0.0956,0 -0.19128,-0.03985 -0.19128,-0.255044 0,-0.191282 0.0558,-0.334744 0.1594,-0.581818 0.0797,-0.215193 0.1594,-0.430386 0.24707,-0.645579 l 0.24708,-0.645579 c 0.0717,-0.183313 0.16737,-0.430386 0.16737,-0.565878 0,-0.398506 -0.3188,-0.677459 -0.72528,-0.677459 -0.7731,0 -1.10785,1.115815 -1.10785,1.219427 0,0.07173 0.0558,0.103611 0.11956,0.103611 0.10361,0 0.11158,-0.04782 0.13549,-0.127522 0.22316,-0.75716 0.58979,-0.972353 0.82889,-0.972353 0.11158,0 0.19128,0.03985 0.19128,0.263013 0,0.0797 -0.008,0.191283 -0.0877,0.430386 z"
         style="fill:#0000ff" />
      <path
         id="use4-5"
         d="m 238.31243,69.970915 c 0.008,-0.01594 0.0319,-0.119552 0.0319,-0.127522 0,-0.03985 -0.0319,-0.111582 -0.12753,-0.111582 -0.0319,0 -0.27895,0.02391 -0.46226,0.03985 l -0.44633,0.03188 c -0.17534,0.01594 -0.25504,0.02391 -0.25504,0.167373 0,0.111581 0.11158,0.111581 0.20722,0.111581 0.38257,0 0.38257,0.04782 0.38257,0.119552 0,0.02391 0,0.03985 -0.0399,0.183312 l -1.13176,4.534994 c -0.0319,0.119552 -0.0319,0.167373 -0.0319,0.175343 0,0.135492 0.11158,0.247073 0.26301,0.247073 0.27099,0 0.33475,-0.255043 0.36663,-0.366625 0.0797,-0.334745 0.28692,-1.179577 0.37459,-1.514321 0.43836,0.04782 0.97236,0.199252 0.97236,0.653549 0,0.03985 0,0.0797 -0.0159,0.159402 -0.0239,0.103612 -0.0399,0.215193 -0.0399,0.255044 0,0.470236 0.35068,0.812951 0.81295,0.812951 0.33474,0 0.54197,-0.247073 0.64558,-0.398505 0.19128,-0.294895 0.3188,-0.773101 0.3188,-0.820922 0,-0.0797 -0.0638,-0.103611 -0.11955,-0.103611 -0.0956,0 -0.11158,0.04782 -0.14346,0.191282 -0.10361,0.374595 -0.31084,0.908593 -0.68543,0.908593 -0.20722,0 -0.25505,-0.175342 -0.25505,-0.390536 0,-0.103611 0.008,-0.199252 0.0478,-0.382565 0.008,-0.03188 0.0399,-0.159402 0.0399,-0.247073 0,-0.65355 -0.82093,-0.797012 -1.2274,-0.852802 0.29489,-0.175343 0.56588,-0.446327 0.66152,-0.549938 0.43835,-0.430386 0.79701,-0.72528 1.17957,-0.72528 0.10362,0 0.19926,0.02391 0.26302,0.103611 -0.43039,0.05579 -0.43039,0.430386 -0.43039,0.438356 0,0.175343 0.13549,0.294894 0.31084,0.294894 0.21519,0 0.45429,-0.175342 0.45429,-0.502117 0,-0.270983 -0.19128,-0.557907 -0.58979,-0.557907 -0.46226,0 -0.87671,0.350685 -1.331,0.804981 -0.46227,0.454296 -0.66152,0.541968 -0.78904,0.597758 z"
         style="fill:#0000ff" />
      <path
         id="use5-5"
         d="m 242.145,74.163194 c 0.0877,-0.342715 0.17534,-0.68543 0.25504,-1.036115 0.008,-0.01594 0.0638,-0.247074 0.0717,-0.286924 0.0239,-0.07173 0.22316,-0.398506 0.43039,-0.597758 0.25504,-0.231134 0.52603,-0.270984 0.66949,-0.270984 0.0877,0 0.23113,0.008 0.34271,0.103611 -0.34271,0.07173 -0.39053,0.366625 -0.39053,0.438356 0,0.175343 0.13549,0.294894 0.31083,0.294894 0.21519,0 0.4543,-0.175342 0.4543,-0.494146 0,-0.286925 -0.24708,-0.565878 -0.70137,-0.565878 -0.54197,0 -0.9086,0.358655 -1.07597,0.573848 -0.1594,-0.573848 -0.70137,-0.573848 -0.78107,-0.573848 -0.28692,0 -0.48618,0.183312 -0.6137,0.430386 -0.18331,0.358655 -0.27098,0.76513 -0.27098,0.789041 0,0.07173 0.0558,0.103611 0.11955,0.103611 0.10361,0 0.11158,-0.03188 0.16737,-0.239103 0.0956,-0.390536 0.23911,-0.860772 0.57385,-0.860772 0.20722,0 0.25504,0.199253 0.25504,0.374595 0,0.143462 -0.0399,0.294894 -0.10361,0.557908 -0.0159,0.06376 -0.13549,0.533997 -0.16737,0.645579 l -0.29489,1.195517 c -0.0319,0.119551 -0.0797,0.318804 -0.0797,0.350685 0,0.183312 0.15143,0.247073 0.25504,0.247073 0.27895,0 0.33474,-0.223163 0.3985,-0.494147 z"
         style="fill:#0000ff" />
    </g>
    <path
       id="path2"
       d="M 54,36 H 388.8 V 253.44 H 54 Z"
       style="fill:none;fill-opacity:1;fill-rule:nonzero;stroke:none"
       transform="matrix(1.3333333,0,0,-1.3333333,0,384)" />
    <path
       id="path3"
       d="M 66.143802,36 V 32.5"
       style="fill:#000000;fill-opacity:1;fill-rule:nonzero;stroke:#000000;stroke-width:0.8;stroke-linecap:butt;stroke-linejoin:round;stroke-miterlimit:10;stroke-dasharray:none;stroke-opacity:1"
       transform="matrix(1.3333333,0,0,-1.3333333,0,384)" />
    <path
       id="path4"
       d=""
       style="fill:#000000;fill-opacity:1;fill-rule:nonzero;stroke:none"
       aria-label="0"
       transform="matrix(1.3333333,0,0,1.3333333,83.952152,355.45833)" />
    <path
       id="path5"
       d="M 127.63141,36 V 32.5"
       style="fill:#000000;fill-opacity:1;fill-rule:nonzero;stroke:#000000;stroke-width:0.8;stroke-linecap:butt;stroke-linejoin:round;stroke-miterlimit:10;stroke-dasharray:none;stroke-opacity:1"
       transform="matrix(1.3333333,0,0,-1.3333333,0,384)" />
    <path
       id="path6"
       d=""
       style="fill:#000000;fill-opacity:1;fill-rule:nonzero;stroke:none"
       aria-label="20"
       transform="matrix(1.3333333,0,0,1.3333333,161.69604,355.45833)" />
    <path
       id="path7"
       d="M 189.11901,36 V 32.5"
       style="fill:#000000;fill-opacity:1;fill-rule:nonzero;stroke:#000000;stroke-width:0.8;stroke-linecap:butt;stroke-linejoin:round;stroke-miterlimit:10;stroke-dasharray:none;stroke-opacity:1"
       transform="matrix(1.3333333,0,0,-1.3333333,0,384)" />
    <path
       id="path8"
       d=""
       style="fill:#000000;fill-opacity:1;fill-rule:nonzero;stroke:none"
       aria-label="40"
       transform="matrix(1.3333333,0,0,1.3333333,243.67951,355.45833)" />
    <path
       id="path9"
       d="M 250.60661,36 V 32.5"
       style="fill:#000000;fill-opacity:1;fill-rule:nonzero;stroke:#000000;stroke-width:0.8;stroke-linecap:butt;stroke-linejoin:round;stroke-miterlimit:10;stroke-dasharray:none;stroke-opacity:1"
       transform="matrix(1.3333333,0,0,-1.3333333,0,384)" />
    <path
       id="path10"
       d=""
       style="fill:#000000;fill-opacity:1;fill-rule:nonzero;stroke:none"
       aria-label="60"
       transform="matrix(1.3333333,0,0,1.3333333,325.66298,355.45833)" />
    <path
       id="path11"
       d="M 312.09421,36 V 32.5"
       style="fill:#000000;fill-opacity:1;fill-rule:nonzero;stroke:#000000;stroke-width:0.8;stroke-linecap:butt;stroke-linejoin:round;stroke-miterlimit:10;stroke-dasharray:none;stroke-opacity:1"
       transform="matrix(1.3333333,0,0,-1.3333333,0,384)" />
    <path
       id="path12"
       d=""
       style="fill:#000000;fill-opacity:1;fill-rule:nonzero;stroke:none"
       aria-label="80"
       transform="matrix(1.3333333,0,0,1.3333333,407.64645,355.45833)" />
    <path
       id="path13"
       d="M 373.58182,36 V 32.5"
       style="fill:#000000;fill-opacity:1;fill-rule:nonzero;stroke:#000000;stroke-width:0.8;stroke-linecap:butt;stroke-linejoin:round;stroke-miterlimit:10;stroke-dasharray:none;stroke-opacity:1"
       transform="matrix(1.3333333,0,0,-1.3333333,0,384)" />
    <path
       id="path14"
       d=""
       style="fill:#000000;fill-opacity:1;fill-rule:nonzero;stroke:none"
       aria-label="100"
       transform="matrix(1.3333333,0,0,1.3333333,485.39034,355.45833)" />
    <path
       id="path15"
       d="M 54,45.881008 H 50.5"
       style="fill:#000000;fill-opacity:1;fill-rule:nonzero;stroke:#000000;stroke-width:0.8;stroke-linecap:butt;stroke-linejoin:round;stroke-miterlimit:10;stroke-dasharray:none;stroke-opacity:1"
       transform="matrix(1.3333333,0,0,-1.3333333,0,384)" />
    <path
       id="path16"
       d=""
       style="fill:#000000;fill-opacity:1;fill-rule:nonzero;stroke:none"
       aria-label="1.00"
       transform="matrix(1.3333333,0,0,1.3333333,32.984375,327.88782)" />
    <path
       id="path18"
       d="M 54,70.590428 H 50.5"
       style="fill:#000000;fill-opacity:1;fill-rule:nonzero;stroke:#000000;stroke-width:0.8;stroke-linecap:butt;stroke-linejoin:round;stroke-miterlimit:10;stroke-dasharray:none;stroke-opacity:1"
       transform="matrix(1.3333333,0,0,-1.3333333,0,384)" />
    <path
       id="path19"
       d=""
       style="fill:#000000;fill-opacity:1;fill-rule:nonzero;stroke:none"
       aria-label="0.75"
       transform="matrix(1.3333333,0,0,1.3333333,32.984375,294.94193)" />
    <path
       id="path21"
       d="M 54,95.299847 H 50.5"
       style="fill:#000000;fill-opacity:1;fill-rule:nonzero;stroke:#000000;stroke-width:0.8;stroke-linecap:butt;stroke-linejoin:round;stroke-miterlimit:10;stroke-dasharray:none;stroke-opacity:1"
       transform="matrix(1.3333333,0,0,-1.3333333,0,384)" />
    <path
       id="path22"
       d=""
       style="fill:#000000;fill-opacity:1;fill-rule:nonzero;stroke:none"
       aria-label="0.50"
       transform="matrix(1.3333333,0,0,1.3333333,32.984375,261.99604)" />
    <path
       id="path24"
       d="M 54,120.00927 H 50.5"
       style="fill:#000000;fill-opacity:1;fill-rule:nonzero;stroke:#000000;stroke-width:0.8;stroke-linecap:butt;stroke-linejoin:round;stroke-miterlimit:10;stroke-dasharray:none;stroke-opacity:1"
       transform="matrix(1.3333333,0,0,-1.3333333,0,384)" />
    <path
       id="path25"
       d=""
       style="fill:#000000;fill-opacity:1;fill-rule:nonzero;stroke:none"
       aria-label="0.25"
       transform="matrix(1.3333333,0,0,1.3333333,32.984375,229.05014)" />
    <path
       id="path27"
       d="M 54,144.71869 H 50.5"
       style="fill:#000000;fill-opacity:1;fill-rule:nonzero;stroke:#000000;stroke-width:0.8;stroke-linecap:butt;stroke-linejoin:round;stroke-miterlimit:10;stroke-dasharray:none;stroke-opacity:1"
       transform="matrix(1.3333333,0,0,-1.3333333,0,384)" />
    <path
       id="path28"
       d=""
       style="fill:#000000;fill-opacity:1;fill-rule:nonzero;stroke:none"
       aria-label="0.00"
       transform="matrix(1.3333333,0,0,1.3333333,32.979167,196.10425)" />
    <path
       id="path29"
       d="M 54,169.42811 H 50.5"
       style="fill:#000000;fill-opacity:1;fill-rule:nonzero;stroke:#000000;stroke-width:0.8;stroke-linecap:butt;stroke-linejoin:round;stroke-miterlimit:10;stroke-dasharray:none;stroke-opacity:1"
       transform="matrix(1.3333333,0,0,-1.3333333,0,384)" />
    <path
       id="path30"
       d=""
       style="fill:#000000;fill-opacity:1;fill-rule:nonzero;stroke:none"
       aria-label="0.25"
       transform="matrix(1.3333333,0,0,1.3333333,32.979167,163.15836)" />
    <path
       id="path31"
       d="M 54,194.13752 H 50.5"
       style="fill:#000000;fill-opacity:1;fill-rule:nonzero;stroke:#000000;stroke-width:0.8;stroke-linecap:butt;stroke-linejoin:round;stroke-miterlimit:10;stroke-dasharray:none;stroke-opacity:1"
       transform="matrix(1.3333333,0,0,-1.3333333,0,384)" />
    <path
       id="path32"
       d=""
       style="fill:#000000;fill-opacity:1;fill-rule:nonzero;stroke:none"
       aria-label="0.50"
       transform="matrix(1.3333333,0,0,1.3333333,32.979167,130.21247)" />
    <path
       id="path33"
       d="M 54,218.84694 H 50.5"
       style="fill:#000000;fill-opacity:1;fill-rule:nonzero;stroke:#000000;stroke-width:0.8;stroke-linecap:butt;stroke-linejoin:round;stroke-miterlimit:10;stroke-dasharray:none;stroke-opacity:1"
       transform="matrix(1.3333333,0,0,-1.3333333,0,384)" />
    <path
       id="path34"
       d=""
       style="fill:#000000;fill-opacity:1;fill-rule:nonzero;stroke:none"
       aria-label="0.75"
       transform="matrix(1.3333333,0,0,1.3333333,32.979167,97.266574)" />
    <path
       id="path35"
       d="M 54,243.55636 H 50.5"
       style="fill:#000000;fill-opacity:1;fill-rule:nonzero;stroke:#000000;stroke-width:0.8;stroke-linecap:butt;stroke-linejoin:round;stroke-miterlimit:10;stroke-dasharray:none;stroke-opacity:1"
       transform="matrix(1.3333333,0,0,-1.3333333,0,384)" />
    <path
       id="path36"
       d=""
       style="fill:#000000;fill-opacity:1;fill-rule:nonzero;stroke:none"
       aria-label="1.00"
       transform="matrix(1.3333333,0,0,1.3333333,32.979167,64.320682)" />
    <path
       id="path37"
       d="m 253.51996,151.33233 0.55679,-8.92812 0.55679,-5.30702 0.2784,-1.22486 0.27839,-0.25327 0.2784,0.72082 0.27839,1.68782 0.55679,6.20109 0.55679,9.75076 0.83518,20.41217 1.11358,35.09238 2.50556,84.15842 0.83518,20.87148 0.55679,10.12236 0.55679,6.60832 0.27839,1.89985 0.2784,0.9357 0.27839,-0.0376 0.2784,-1.01061 0.27839,-1.97367 0.55679,-6.74976 0.55679,-10.25097 0.83519,-21.02949 1.11358,-35.58723 2.50555,-83.65007 0.83518,-20.24948 0.55679,-9.61991 0.55679,-6.0582 0.2784,-1.6136 0.27839,-0.6457 0.2784,0.32851 0.27839,1.29954 0.2784,2.25778 0.55679,7.29253 0.55679,10.7422 0.83518,21.62843 1.11358,36.05095 2.22716,75.19541 0.83518,21.68233 0.55679,10.78674 0.55679,7.34193 0.27839,2.28371 0.2784,1.32594 0.27839,0.35515 0.2784,-0.61911 0.2784,-1.58731 0.55678,-6.00755 0.55679,-9.57345 0.83519,-20.19162 1.11358,-34.91172 2.50555,-84.31913 0.83519,-21.08513 0.55679,-10.29634 0.55678,-6.79972 0.2784,-1.99977 0.27839,-1.03711 0.2784,-0.0643 0.27839,0.90917 0.27839,1.8737 0.5568,6.55817 0.55679,10.0767 0.83518,20.81527 1.11357,35.41736 2.50556,83.83655 0.83518,20.46945 0.55679,9.79693 0.5568,6.25158 0.27839,1.71407 0.27839,0.74739 0.2784,-0.22663 0.27839,-1.19842 0.2784,-2.15844 0.55679,-7.10306 0.55679,-10.57114 0.83519,-21.4207 1.11357,-35.89205 2.22716,-75.34678 0.83518,-21.88712 0.5568,-10.95635 0.55678,-7.5304 0.27839,-2.38275 0.2784,-1.42686 0.2784,-0.45701 0.27839,0.51735 0.2784,1.48662 0.27839,2.44131 0.55679,7.64173 0.55679,11.05632 0.83518,22.0074 1.11359,36.33532 2.22715,74.8934 0.83519,21.2965 0.55678,10.46921 0.5568,6.9904 0.27839,2.09946 0.2784,1.13843 0.27838,0.16622 0.2784,-0.80761 0.2784,-1.77353 0.55679,-6.36588 0.55678,-9.90136 0.83519,-20.59879 1.11358,-35.24371 2.50556,-84.014 0.83518,-20.68724 0.55679,-9.9729 0.55679,-6.44428 0.27839,-1.81436 0.27839,-0.84899 0.2784,0.12471 0.2784,1.09718 0.27839,2.05888 0.55679,6.91282 0.55679,10.39894 0.83519,21.21067 1.11358,35.72929 2.22715,75.49005 0.83519,22.08956 0.55679,11.12479 0.55678,7.71807 0.2784,2.48151 0.2784,1.52766 0.27839,0.5588 0.2784,-0.41552 0.27838,-1.38578 0.2784,-2.34244 0.55679,-7.45373 0.5568,-10.8874 0.83518,-21.804 1.11357,-36.18361 2.22716,-75.05973 0.83519,-21.50558 0.55679,-10.64095 0.55679,-7.18033 0.2784,-2.19893 0.27839,-1.23962 0.27839,-0.26814 0.2784,0.70598 0.27839,1.67317 0.55679,6.1729 0.55679,9.72495 0.83519,20.38012 1.11357,35.06626 2.50556,84.18243 0.83518,20.90279 0.55679,10.14782 0.5568,6.63629 0.27838,1.91444 0.2784,0.9505 0.2784,-0.0228 0.27839,-0.99582 0.2784,-1.9591 0.55678,-6.72185 0.55679,-10.22561 0.83518,-20.99837 1.11359,-35.56269 2.50555,-83.67783 0.83519,-20.28172 0.55678,-9.64579 0.55679,-6.08646 0.2784,-1.62827 0.2784,-0.66055 0.27839,0.31366 0.27839,1.28478 0.2784,2.24331 0.55679,7.26493 0.55679,10.71732 0.83518,21.59825 1.11358,36.02801 2.22716,75.218 0.83518,21.71236 0.55679,10.81156 0.55679,7.36947 0.2784,2.29818 0.27839,1.34067 0.27839,0.37002 0.2784,-0.60427 0.2784,-1.57263 0.27839,-2.52555 0.55679,-7.80165 0.55679,-11.19966 0.83519,-22.17924 1.11357,-36.4618 2.22716,-74.74498 0.83518,-21.1161 0.5568,-10.32162 0.55678,-6.8276 0.2784,-2.01433 0.27839,-1.0519 0.2784,-0.0792 0.2784,0.89435 0.27839,1.8591 0.55679,6.53016 0.55679,10.05119 0.83518,20.78381 1.11358,35.39227 2.50555,83.86299 0.83519,20.50137 0.55678,9.82267 0.5568,6.27974 0.27839,1.72871 0.2784,0.76222 0.27839,-0.21176 0.27839,-1.18365 0.2784,-2.14393 0.55679,-7.07535 0.55679,-10.54609 0.83518,-21.39019 1.11358,-35.86854 2.22716,-75.36819 0.83518,-21.9168 0.55679,-10.98101 0.5568,-7.55783 0.27839,-2.39717 0.27839,-1.44158 0.2784,-0.47186 0.27839,0.50249 0.2784,1.47192 0.2784,2.4269 0.55678,7.61435 0.55679,11.03175 0.83518,21.97786 1.11359,36.31343 2.22715,74.91817 0.83519,21.32714 0.55679,10.49434 0.55678,7.01816 0.2784,2.11399 0.2784,1.1532 0.27839,0.1811 0.2784,-0.7928 0.27839,-1.75889 0.55679,-6.33776 0.55679,-9.87569 0.83518,-20.56703 1.11359,-35.21804 2.50555,-84.03915 0.83518,-20.71882 0.55679,-9.99849 0.55679,-6.47235 0.2784,-1.82896 0.27838,-0.86382 0.2784,0.10984 0.2784,1.08239 0.27839,2.04434 0.5568,6.88502 0.55678,10.3737 0.83519,21.17985 1.11357,35.70521 2.22717,75.51028 0.83518,22.1189 0.55679,11.14926 0.55679,7.74539 0.27839,2.4959 0.27839,1.54234 0.2784,0.57366 0.2784,-0.40067 0.27839,-1.37105 0.2784,-2.32798 0.55678,-7.42624 0.5568,-10.86266 0.83518,-21.77412 1.11358,-36.16114 2.22715,-75.08333 0.83519,-21.5359 0.55679,-10.66591 0.55679,-7.20797 0.27839,-2.21344 0.2784,-1.25437 0.2784,-0.283 0.27838,0.69114 0.2784,1.65851 0.55679,6.14469 0.5568,9.69912 0.83518,20.34803 1.11357,35.04005 2.50556,84.20626 0.83518,20.93405 0.55679,10.17324 0.55679,6.66426 0.2784,1.92902 0.27839,0.96531 0.27839,-0.008 0.2784,-0.98102 0.2784,-1.94452 0.55679,-6.69393 0.55678,-10.20022 0.83519,-20.96721 1.11358,-35.53806 2.50556,-83.70542 0.83518,-20.3139 0.55679,-9.67166 0.55678,-6.11471 0.2784,-1.64293 0.27839,-0.67539 0.2784,0.29879 0.2784,1.27004 0.27838,2.22882 0.5568,7.23732 0.55679,10.6924 0.83518,21.56805 1.11358,36.00498 2.22716,75.24041 0.83519,21.74234 0.55678,10.83636 0.55679,7.39701 0.2784,2.31263 0.27839,1.35541 0.2784,0.38488 0.27839,-0.58942 0.27839,-1.55795 0.2784,-2.51118 0.55679,-7.77437 0.55679,-11.17523 0.83519,-22.15001 1.11357,-36.4404 2.22716,-74.77074 0.83518,-21.14703 0.5568,-10.34691 0.55679,-6.85545 0.27839,-2.02887 0.27839,-1.06669 0.2784,-0.094 0.27839,0.87955 0.2784,1.84448 0.55679,6.50213 0.55679,10.02565 0.83519,20.75232 1.11357,35.36709 2.50555,83.88925 0.83519,20.53324 0.55679,9.84839 0.55679,6.30789 0.27839,1.74335 0.2784,0.77704 0.27839,-0.19688 0.2784,-1.16889 0.27839,-2.12942 0.55679,-7.04762 0.55679,-10.521 0.83518,-21.35965 1.11359,-35.84494 2.22715,-75.38943 0.83519,-21.94644 0.55678,-11.00563 0.5568,-7.58525 0.27839,-2.41159 0.2784,-1.45629 0.27839,-0.48672 0.27839,0.48763 0.2784,1.45721 0.27839,2.41249 0.5568,7.58695 0.55678,11.00716 0.83519,21.94828 1.11358,36.29144 2.22716,74.94277 0.83518,21.35775 0.55679,10.51945 0.55679,7.0459 0.27839,2.12851 0.2784,1.16797 0.27839,0.19597 0.2784,-0.77797 0.27839,-1.74426 0.55679,-6.30963 0.55679,-9.84999 0.83518,-20.53521 1.11359,-35.19231 2.50554,-84.06409 0.83519,-20.75037 0.55679,-10.02406 0.55679,-6.50039 0.2784,-1.84358 0.27839,-0.87862 0.2784,0.0949 0.27839,1.06761 0.27839,2.02979 0.55679,6.85717 0.5568,10.34847 0.83518,21.14896 1.11357,35.68106 2.22716,75.53034 0.83519,22.14819 0.55679,11.17372 0.55679,7.77268 0.2784,2.51028 0.27838,1.55703 0.2784,0.58851 0.2784,-0.38581 0.27839,-1.35632 0.2784,-2.31353 0.55678,-7.39872 0.55679,-10.83789 0.83519,-21.7442 1.11358,-36.1386 2.22716,-75.10675 0.83518,-21.56616 0.55679,-10.69087 0.55679,-7.23559 0.27839,-2.22793 0.2784,-1.26912 0.2784,-0.29787 0.27839,0.67631 0.2784,1.64384 0.55678,6.11647 0.55679,9.67327 0.83518,20.31589 1.11359,35.01377 2.50555,84.22988 0.83519,20.96527 0.55678,10.19865 0.55679,6.69219 0.2784,1.94362 0.2784,0.9801 0.27838,0.007 0.2784,-0.96622 0.2784,-1.92993 0.55679,-6.66599 0.55678,-10.17482 0.83519,-20.936 0.2784,-8.22481 v 0"
       style="fill:none;stroke:#3838ff;stroke-width:1.43719;stroke-linecap:square;stroke-linejoin:round;stroke-miterlimit:10;stroke-dasharray:none;stroke-opacity:1" />
    <path
       id="path38"
       d="m 253.51996,206.86041 0.55679,-6.24968 0.55679,-3.71492 0.2784,-0.8574 0.27839,-0.17729 0.2784,0.50457 0.27839,1.18148 0.55679,4.34076 0.55679,6.82553 0.83518,14.28852 1.11358,24.56467 2.50556,58.91089 0.83518,14.61004 0.55679,7.08565 0.55679,4.62583 0.27839,1.3299 0.2784,0.65498 0.27839,-0.0263 0.2784,-0.70743 0.27839,-1.38157 0.55679,-4.72483 0.55679,-7.17568 0.83519,-14.72064 1.11358,-24.91107 2.50555,-58.55504 0.83518,-14.17464 0.55679,-6.73393 0.55679,-4.24075 0.2784,-1.12952 0.27839,-0.452 0.2784,0.22998 0.27839,0.90967 0.2784,1.58044 0.55679,5.10477 0.55679,7.51955 0.83518,15.13989 1.11358,25.23567 2.22716,52.63678 0.83518,15.17764 0.55679,7.55072 0.55679,5.13935 0.27839,1.59859 0.2784,0.92816 0.27839,0.24861 0.2784,-0.43338 0.2784,-1.11112 0.55678,-4.20528 0.55679,-6.70142 0.83519,-14.13413 1.11358,-24.4382 2.50555,-59.02339 0.83519,-14.75959 0.55679,-7.20743 0.55678,-4.75982 0.2784,-1.39983 0.27839,-0.72598 0.2784,-0.045 0.27839,0.63642 0.27839,1.31158 0.5568,4.59072 0.55679,7.0537 0.83518,14.57068 1.11357,24.79216 2.50556,58.68557 0.83518,14.32863 0.55679,6.85785 0.5568,4.3761 0.27839,1.19985 0.27839,0.52317 0.2784,-0.15864 0.27839,-0.83889 0.2784,-1.51091 0.55679,-4.97214 0.55679,-7.3998 0.83519,-14.99449 1.11357,-25.12443 2.22716,-52.74275 0.83518,-15.32099 0.5568,-7.66944 0.55678,-5.27127 0.27839,-1.66792 0.2784,-0.99882 0.2784,-0.3199 0.27839,0.36215 0.2784,1.04063 0.27839,1.70891 0.55679,5.34922 0.55679,7.73943 0.83518,15.40517 1.11359,25.43473 2.22715,52.42538 0.83519,14.90754 0.55678,7.32845 0.5568,4.89328 0.27839,1.46962 0.2784,0.7969 0.27838,0.11636 0.2784,-0.56533 0.2784,-1.24147 0.55679,-4.45612 0.55678,-6.93095 0.83519,-14.41916 1.11358,-24.67059 2.50556,-58.8098 0.83518,-14.48106 0.55679,-6.98104 0.55679,-4.51099 0.27839,-1.27005 0.27839,-0.5943 0.2784,0.0873 0.2784,0.76803 0.27839,1.44122 0.55679,4.83897 0.55679,7.27926 0.83519,14.84747 1.11358,25.0105 2.22715,52.84304 0.83519,15.46269 0.55679,7.78735 0.55678,5.40266 0.2784,1.73705 0.2784,1.06936 0.27839,0.39116 0.2784,-0.29086 0.27838,-0.97005 0.2784,-1.6397 0.55679,-5.21761 0.5568,-7.62119 0.83518,-15.2628 1.11357,-25.32852 2.22716,-52.54181 0.83519,-15.05391 0.55679,-7.44867 0.55679,-5.02623 0.2784,-1.53925 0.27839,-0.86773 0.27839,-0.1877 0.2784,0.49419 0.27839,1.17122 0.55679,4.32103 0.55679,6.80746 0.83519,14.26609 1.11357,24.54638 2.50556,58.9277 0.83518,14.63195 0.55679,7.10347 0.5568,4.64541 0.27838,1.34011 0.2784,0.66535 0.2784,-0.016 0.27839,-0.69707 0.2784,-1.37136 0.55678,-4.7053 0.55679,-7.15793 0.83518,-14.69886 1.11359,-24.89388 2.50555,-58.57448 0.83519,-14.1972 0.55678,-6.75206 0.55679,-4.26052 0.2784,-1.13979 0.2784,-0.46239 0.27839,0.21957 0.27839,0.89934 0.2784,1.57032 0.55679,5.08545 0.55679,7.50213 0.83518,15.11877 1.11358,25.21961 2.22716,52.6526 0.83518,15.19865 0.55679,7.56809 0.55679,5.15863 0.2784,1.60872 0.27839,0.93848 0.27839,0.25901 0.2784,-0.42299 0.2784,-1.10084 0.55679,-4.18548 0.55678,-6.68324 0.83519,-14.11148 1.11358,-24.41953 2.50555,-59.03928 0.83518,-14.78127 0.5568,-7.22514 0.55678,-4.77932 0.2784,-1.41003 0.27839,-0.73634 0.2784,-0.0555 0.2784,0.62605 0.27839,1.30137 0.55679,4.57111 0.55679,7.03582 0.83518,14.54868 1.11358,24.77458 2.50555,58.7041 0.83519,14.35096 0.55678,6.87587 0.5568,4.39582 0.27839,1.21009 0.2784,0.53356 0.27839,-0.14823 0.27839,-0.82856 0.2784,-1.50076 0.55679,-4.95274 0.55679,-7.38226 0.83518,-14.97313 1.11358,-25.10798 2.22716,-52.75773 0.83518,-15.34177 0.55679,-7.6867 0.5568,-5.29048 0.27839,-1.67802 0.27839,-1.00911 0.2784,-0.33031 0.27839,0.35175 0.2784,1.03035 0.2784,1.69883 0.55678,5.33004 0.55679,7.72222 0.83518,15.38451 1.11359,25.4194 2.22715,52.44272 0.83519,14.929 0.55679,7.34603 0.55678,4.91272 0.2784,1.47979 0.2784,0.80724 0.27839,0.12677 0.2784,-0.55496 0.27839,-1.23123 0.55679,-4.43643 0.55679,-6.91298 0.83518,-14.39691 1.11359,-24.65264 2.50555,-58.82739 0.83518,-14.50318 0.55679,-6.99895 0.55679,-4.53064 0.2784,-1.28028 0.27838,-0.60466 0.2784,0.0769 0.2784,0.75768 0.27839,1.43103 0.5568,4.81951 0.55678,7.26159 0.83519,14.8259 1.11357,24.99364 2.22717,52.85721 0.83518,15.48322 0.55679,7.80448 0.55679,5.42177 0.27839,1.74714 0.27839,1.07964 0.2784,0.40155 0.2784,-0.28046 0.27839,-0.95974 0.2784,-1.62959 0.55678,-5.19836 0.5568,-7.60386 0.83518,-15.24188 1.11358,-25.3128 2.22715,-52.55834 0.83519,-15.07512 0.55679,-7.46615 0.55679,-5.04558 0.27839,-1.5494 0.2784,-0.87806 0.2784,-0.1981 0.27838,0.4838 0.2784,1.16096 0.55679,4.30128 0.5568,6.78938 0.83518,14.24362 1.11357,24.52804 2.50556,58.94438 0.83518,14.65384 0.55679,7.12126 0.55679,4.66498 0.2784,1.35032 0.27839,0.67571 0.27839,-0.006 0.2784,-0.68672 0.2784,-1.36116 0.55679,-4.68575 0.55678,-7.14016 0.83519,-14.67704 1.11358,-24.87664 2.50556,-58.5938 0.83518,-14.21973 0.55679,-6.77016 0.55678,-4.28029 0.2784,-1.15005 0.27839,-0.47278 0.2784,0.20916 0.2784,0.88903 0.27838,1.56017 0.5568,5.06612 0.55679,7.48468 0.83518,15.09763 1.11358,25.20348 2.22716,52.6683 0.83519,15.21964 0.55678,7.58544 0.55679,5.17791 0.2784,1.61884 0.27839,0.94879 0.2784,0.26941 0.27839,-0.41259 0.27839,-1.09056 0.5568,-4.16566 0.55679,-6.66507 0.83518,-14.08879 1.11358,-24.4008 2.50555,-59.05503 0.83518,-14.80293 0.5568,-7.24283 0.55679,-4.79881 0.27839,-1.42022 0.27839,-0.74669 0.2784,-0.0658 0.27839,0.61567 0.2784,1.29115 0.55679,4.55149 0.55679,7.01795 0.83519,14.52663 1.11357,24.75696 2.50555,58.72248 0.83519,14.37326 0.55679,6.89388 0.55679,4.41552 0.27839,1.22034 0.2784,0.54393 0.27839,-0.13782 0.2784,-0.81822 0.27839,-1.49059 0.55679,-4.93334 0.55679,-7.3647 0.83518,-14.95174 1.11359,-25.09147 2.22715,-52.7726 0.83519,-15.36252 0.55678,-7.70393 0.5568,-5.30967 0.27839,-1.68812 0.2784,-1.0194 0.27839,-0.34071 0.27839,0.34135 0.2784,1.02004 0.27839,1.68875 0.5568,5.31087 0.55678,7.705 0.83519,15.3638 1.11358,25.40401 2.22716,52.45994 0.83518,14.95042 0.55679,7.36362 0.55679,4.93213 0.27839,1.48996 0.2784,0.81758 0.27839,0.13717 0.2784,-0.54457 0.27839,-1.22099 0.55679,-4.41674 0.55679,-6.89499 0.83518,-14.37465 1.11359,-24.63462 2.50554,-58.84486 0.83519,-14.52525 0.55679,-7.01685 0.55679,-4.55027 0.2784,-1.29051 0.27839,-0.61503 0.2784,0.0665 0.27839,0.74733 0.27839,1.42084 0.55679,4.80004 0.5568,7.24392 0.83518,14.80427 1.11357,24.97674 2.22716,52.87124 0.83519,15.50373 0.55679,7.8216 0.55679,5.44088 0.2784,1.7572 0.27838,1.08992 0.2784,0.41195 0.2784,-0.27006 0.27839,-0.94942 0.2784,-1.61948 0.55678,-5.1791 0.55679,-7.58652 0.83519,-15.22094 1.11358,-25.29703 2.22716,-52.57472 0.83518,-15.09632 0.55679,-7.4836 0.55679,-5.06491 0.27839,-1.55955 0.2784,-0.88838 0.2784,-0.20852 0.27839,0.47342 0.2784,1.1507 0.55678,4.28151 0.55679,6.77129 0.83518,14.22113 1.11359,24.50964 2.50555,58.96092 0.83519,14.67569 0.55678,7.13905 0.55679,4.68454 0.2784,1.36052 0.2784,0.68608 0.27838,0.005 0.2784,-0.67636 0.2784,-1.35095 0.55679,-4.66619 0.55678,-7.12238 0.83519,-14.65519 0.2784,-5.75737 v 0"
       style="fill:none;stroke:#ff2a2a;stroke-width:1.437;stroke-linecap:square;stroke-linejoin:round;stroke-miterlimit:10;stroke-dasharray:none;stroke-opacity:1" />
    <path
       id="path39"
       d="M 54,36 V 253.44"
       style="fill:none;stroke:#000000;stroke-width:0.8;stroke-linecap:square;stroke-linejoin:miter;stroke-miterlimit:10;stroke-dasharray:none;stroke-opacity:1"
       transform="matrix(1.3333333,0,0,-1.3333333,0,384)" />
    <path
       id="path39-5"
       d="M 252.37949,338.3764 V 48.456405"
       style="fill:none;stroke:#000000;stroke-width:1.067;stroke-linecap:square;stroke-linejoin:miter;stroke-miterlimit:10;stroke-dasharray:12.80400038,12.80400038;stroke-opacity:1;stroke-dashoffset:0" />
    <path
       id="path41"
       d="M 54,36 H 388.8"
       style="fill:none;stroke:#000000;stroke-width:0.8;stroke-linecap:square;stroke-linejoin:miter;stroke-miterlimit:10;stroke-dasharray:none;stroke-opacity:1"
       transform="matrix(1.3333333,0,0,-1.3333333,0,384)" />
    <g
       id="page1-3"
       transform="matrix(1.5066666,0,0,1.5066666,-37.995987,170.19799)">
      <path
         id="use1"
         d="m 65.334769,-84.058982 c 0.01196,-0.03587 0.04782,-0.119552 0.04782,-0.167372 0,-0.05978 -0.04782,-0.119552 -0.119552,-0.119552 -0.04782,0 -0.07173,0.01196 -0.107597,0.04782 -0.02391,0.01196 -0.02391,0.03587 -0.131507,0.274969 -0.705354,1.673723 -1.219427,2.391033 -3.132254,2.391033 h -1.745454 c -0.167372,0 -0.191283,0 -0.263014,-0.01196 -0.131507,-0.01196 -0.143462,-0.03587 -0.143462,-0.131507 0,-0.08369 0.02391,-0.155417 0.04782,-0.263014 l 0.824906,-3.299626 h 1.183562 c 0.932503,0 1.004234,0.203238 1.004234,0.561893 0,0.119552 0,0.227148 -0.08369,0.585803 -0.02391,0.04782 -0.03586,0.09564 -0.03586,0.131507 0,0.08369 0.05977,0.119552 0.131506,0.119552 0.107597,0 0.119552,-0.08369 0.167373,-0.251059 l 0.681444,-2.773599 c 0,-0.05978 -0.04782,-0.119552 -0.119551,-0.119552 -0.107597,0 -0.119552,0.04782 -0.167373,0.215193 -0.239103,0.920548 -0.478206,1.183562 -1.542216,1.183562 h -1.135741 l 0.74122,-2.940971 c 0.107597,-0.418431 0.131507,-0.454297 0.621669,-0.454297 h 1.709589 c 1.470485,0 1.769365,0.394521 1.769365,1.303114 0,0.01196 0,0.3467 -0.04782,0.74122 -0.01196,0.04782 -0.02391,0.119552 -0.02391,0.143462 0,0.09564 0.05978,0.131507 0.131507,0.131507 0.08369,0 0.131506,-0.04782 0.155417,-0.263014 l 0.251058,-2.092154 c 0,-0.03587 0.02391,-0.155417 0.02391,-0.179328 0,-0.131506 -0.107597,-0.131506 -0.32279,-0.131506 h -5.834122 c -0.227148,0 -0.3467,0 -0.3467,0.215193 0,0.131506 0.08369,0.131506 0.286924,0.131506 0.741221,0 0.741221,0.08369 0.741221,0.215193 0,0.05978 -0.01196,0.107597 -0.04782,0.239104 l -1.613948,6.455791 c -0.107596,0.41843 -0.131507,0.537982 -0.968368,0.537982 -0.227149,0 -0.3467,0 -0.3467,0.215193 0,0.131507 0.07173,0.131507 0.310834,0.131507 h 6.001495 c 0.263013,0 0.274968,-0.01196 0.358655,-0.203238 z" />
    </g>
    <g
       id="page1-4"
       transform="matrix(1.2285141,0,0,0.97563769,-35.490567,271.9753)">
      <path
         id="use1-1"
         d="m 229.43356,78.776584 c -0.0598,0.203238 -0.0598,0.227148 -0.22715,0.454296 -0.26301,0.334745 -0.78904,0.848817 -1.35093,0.848817 -0.49017,0 -0.76513,-0.442341 -0.76513,-1.147696 0,-0.657534 0.37061,-1.996513 0.59775,-2.49863 0.40648,-0.836862 0.96837,-1.267248 1.43462,-1.267248 0.78904,0 0.94446,0.980324 0.94446,1.075965 0,0.01196 -0.0359,0.167373 -0.0478,0.191283 z m 0.76513,-3.060523 c -0.13151,-0.310834 -0.4543,-0.789041 -1.07597,-0.789041 -1.35093,0 -2.80946,1.745454 -2.80946,3.514819 0,1.183562 0.6934,1.876962 1.50635,1.876962 0.65753,0 1.21943,-0.514073 1.55417,-0.908593 0.11955,0.705355 0.68145,0.908593 1.0401,0.908593 0.35866,0 0.64558,-0.215193 0.86077,-0.645579 0.19129,-0.406476 0.35866,-1.135741 0.35866,-1.183562 0,-0.05978 -0.0478,-0.107597 -0.11955,-0.107597 -0.1076,0 -0.11955,0.05978 -0.16737,0.239104 -0.17933,0.705355 -0.40648,1.45853 -0.89664,1.45853 -0.3467,0 -0.37061,-0.310834 -0.37061,-0.549937 0,-0.274969 0.0359,-0.406476 0.14346,-0.872728 0.0837,-0.298879 0.14346,-0.561893 0.2391,-0.908592 0.44234,-1.793276 0.54994,-2.223662 0.54994,-2.295393 0,-0.167372 -0.13151,-0.298879 -0.31083,-0.298879 -0.38257,0 -0.47821,0.418431 -0.50212,0.561893 z" />
      <path
         id="use2"
         d="m 233.9247,76.700362 c 0.008,-0.01594 0.0319,-0.119552 0.0319,-0.127522 0,-0.03985 -0.0319,-0.111582 -0.12752,-0.111582 -0.0319,0 -0.27895,0.02391 -0.46226,0.03985 l -0.44633,0.03188 c -0.17534,0.01594 -0.25504,0.02391 -0.25504,0.167373 0,0.111581 0.11158,0.111581 0.20722,0.111581 0.38256,0 0.38256,0.04782 0.38256,0.119552 0,0.04782 -0.0797,0.366625 -0.12752,0.549938 l -0.6934,2.773599 c -0.0638,0.270983 -0.0638,0.390535 -0.0638,0.526027 0,0.820922 0.50212,1.291158 1.11582,1.291158 0.98032,0 2.00049,-1.131756 2.00049,-2.287422 0,-0.789041 -0.51008,-1.307098 -1.14769,-1.307098 -0.44633,0 -0.78904,0.286924 -0.96438,0.438356 z m -0.43835,5.148692 c -0.28693,0 -0.57385,-0.223163 -0.57385,-0.804981 0,-0.215193 0.0319,-0.414446 0.12752,-0.797012 0.0558,-0.231133 0.11158,-0.454296 0.17534,-0.685429 0.0399,-0.143462 0.0399,-0.159402 0.13549,-0.278954 0.27099,-0.334745 0.62964,-0.581818 0.96439,-0.581818 0.3985,0 0.54994,0.390535 0.54994,0.74919 0,0.294894 -0.17535,1.147696 -0.41445,1.617933 -0.20722,0.430386 -0.58979,0.781071 -0.96438,0.781071 z" />
      <path
         id="use3"
         d="m 239.55576,79.051545 c 0.0319,-0.119552 0.0319,-0.167373 0.0319,-0.175343 0,-0.183312 -0.15143,-0.247073 -0.25504,-0.247073 -0.18332,0 -0.32678,0.143462 -0.35866,0.310834 -0.0638,-0.119552 -0.30286,-0.462266 -0.78107,-0.462266 -0.94844,0 -1.98456,1.060024 -1.98456,2.223661 0,0.860772 0.56588,1.291158 1.15567,1.291158 0.36662,0 0.6934,-0.199253 0.95641,-0.430386 l -0.17534,0.71731 c -0.0877,0.334745 -0.14346,0.565878 -0.4543,0.828892 -0.33474,0.286924 -0.63761,0.286924 -0.83686,0.286924 -0.19925,0 -0.39053,-0.008 -0.58182,-0.04782 0.17535,-0.09564 0.25505,-0.263014 0.25505,-0.398506 0,-0.191282 -0.14346,-0.294894 -0.31084,-0.294894 -0.19925,0 -0.44632,0.159403 -0.44632,0.478207 0,0.454296 0.62167,0.486177 1.09987,0.486177 1.13176,0 1.69764,-0.605729 1.81719,-1.091905 z m -1.07597,1.888916 c -0.0558,0.223163 -0.23113,0.382566 -0.3985,0.533998 -0.0717,0.05579 -0.3746,0.294894 -0.70137,0.294894 -0.3188,0 -0.54994,-0.263014 -0.54994,-0.741221 0,-0.334744 0.19925,-1.203486 0.41445,-1.609962 0.25504,-0.454297 0.62964,-0.71731 0.94844,-0.71731 0.534,0 0.67746,0.589788 0.67746,0.661519 l -0.0239,0.111582 z" />
    </g>
    <g
       id="page1-38"
       transform="matrix(1.5066666,0,0,1.5066666,-62.019212,245.82965)">
      <path
         id="use1-15"
         d="m 223.03007,72.846821 c 0.1076,-0.442342 0.15542,-0.466252 0.62167,-0.466252 h 0.86077 c 1.02815,0 1.79328,0.310834 1.79328,1.243338 0,0.609713 -0.31084,2.367123 -2.71383,2.367123 h -1.35093 z m 1.66177,3.287671 c 1.48244,-0.32279 2.64209,-1.279203 2.64209,-2.307348 0,-0.932503 -0.94446,-1.793275 -2.60622,-1.793275 h -3.23986 c -0.2391,0 -0.3467,0 -0.3467,0.227148 0,0.119552 0.0837,0.119552 0.31084,0.119552 0.71731,0 0.71731,0.09564 0.71731,0.227148 0,0.02391 0,0.09564 -0.0478,0.274969 l -1.61395,6.431881 c -0.1076,0.41843 -0.13151,0.537982 -0.95641,0.537982 -0.27497,0 -0.35866,0 -0.35866,0.227148 0,0.119552 0.13151,0.119552 0.16737,0.119552 0.2152,0 0.46626,-0.02391 0.6934,-0.02391 h 1.41071 c 0.2152,0 0.46626,0.02391 0.68145,0.02391 0.0956,0 0.22715,0 0.22715,-0.227148 0,-0.119552 -0.1076,-0.119552 -0.28693,-0.119552 -0.72926,0 -0.72926,-0.09564 -0.72926,-0.215193 0,-0.01196 0,-0.09564 0.0239,-0.191283 l 0.80099,-3.21594 h 1.43462 c 1.13575,0 1.35094,0.71731 1.35094,1.111831 0,0.179327 -0.11955,0.645579 -0.20324,0.956413 -0.13151,0.549938 -0.16737,0.681445 -0.16737,0.908593 0,0.848817 0.6934,1.243338 1.49439,1.243338 0.96837,0 1.3868,-1.183562 1.3868,-1.350934 0,-0.08369 -0.0598,-0.119552 -0.1315,-0.119552 -0.0956,0 -0.11955,0.07173 -0.14346,0.167372 -0.28693,0.848817 -0.77709,1.06401 -1.07597,1.06401 -0.29888,0 -0.49016,-0.131507 -0.49016,-0.669489 0,-0.286924 0.14346,-1.374845 0.15542,-1.43462 0.0598,-0.442342 0.0598,-0.490162 0.0598,-0.585804 0,-0.872727 -0.70535,-1.243337 -1.15965,-1.386799 z" />
      <path
         id="use2-35"
         d="m 231.52451,83.104355 c 0,-0.03587 0,-0.05978 -0.20323,-0.263014 -1.19552,-1.207472 -1.86501,-3.180075 -1.86501,-5.618929 0,-2.319302 0.56189,-4.315816 1.94869,-5.726525 0.11955,-0.107597 0.11955,-0.131507 0.11955,-0.167373 0,-0.07173 -0.0598,-0.09564 -0.10759,-0.09564 -0.15542,0 -1.13574,0.860772 -1.72155,2.032378 -0.60971,1.207472 -0.88468,2.486675 -0.88468,3.957161 0,1.06401 0.16737,2.486675 0.78904,3.765878 0.70536,1.43462 1.68568,2.211706 1.81719,2.211706 0.0478,0 0.10759,-0.02391 0.10759,-0.09564 z" />
      <path
         id="use3-4"
         d="m 235.78993,78.776584 c -0.0598,0.203238 -0.0598,0.227148 -0.22715,0.454296 -0.26301,0.334745 -0.78904,0.848817 -1.35094,0.848817 -0.49016,0 -0.76513,-0.442341 -0.76513,-1.147696 0,-0.657534 0.37061,-1.996513 0.59776,-2.49863 0.40648,-0.836862 0.96837,-1.267248 1.43462,-1.267248 0.78904,0 0.94446,0.980324 0.94446,1.075965 0,0.01196 -0.0359,0.167373 -0.0478,0.191283 z m 0.76513,-3.060523 c -0.13151,-0.310834 -0.4543,-0.789041 -1.07597,-0.789041 -1.35093,0 -2.80946,1.745454 -2.80946,3.514819 0,1.183562 0.6934,1.876962 1.50635,1.876962 0.65753,0 1.21943,-0.514073 1.55417,-0.908593 0.11955,0.705355 0.68145,0.908593 1.0401,0.908593 0.35866,0 0.64558,-0.215193 0.86077,-0.645579 0.19129,-0.406476 0.35866,-1.135741 0.35866,-1.183562 0,-0.05978 -0.0478,-0.107597 -0.11955,-0.107597 -0.1076,0 -0.11956,0.05978 -0.16738,0.239104 -0.17932,0.705355 -0.40647,1.45853 -0.89663,1.45853 -0.3467,0 -0.37061,-0.310834 -0.37061,-0.549937 0,-0.274969 0.0359,-0.406476 0.14346,-0.872728 0.0837,-0.298879 0.14346,-0.561893 0.2391,-0.908592 0.44234,-1.793276 0.54994,-2.223662 0.54994,-2.295393 0,-0.167372 -0.13151,-0.298879 -0.31084,-0.298879 -0.38256,0 -0.4782,0.418431 -0.50211,0.561893 z" />
      <path
         id="use4"
         d="m 242.23375,79.45005 c 0,-0.852802 -0.0877,-1.370859 -0.35069,-1.880946 -0.35068,-0.70137 -0.99626,-0.876713 -1.43462,-0.876713 -1.00423,0 -1.37086,0.749191 -1.48244,0.972354 -0.28692,0.581818 -0.30286,1.370859 -0.30286,1.785305 0,0.526028 0.0239,1.331009 0.40647,1.968618 0.36663,0.589788 0.95642,0.74122 1.37883,0.74122 0.38257,0 1.068,-0.119551 1.4665,-0.908592 0.2949,-0.573848 0.31881,-1.283188 0.31881,-1.801246 z m -1.78531,2.486675 c -0.27098,0 -0.82092,-0.127522 -0.98829,-0.964383 -0.0877,-0.454297 -0.0877,-1.203487 -0.0877,-1.617933 0,-0.549938 0,-1.107846 0.0877,-1.546202 0.16737,-0.812951 0.78904,-0.892652 0.98829,-0.892652 0.27099,0 0.82093,0.135492 0.98033,0.860772 0.0956,0.438356 0.0956,1.036114 0.0956,1.578082 0,0.470237 0,1.187547 -0.0956,1.633873 -0.16737,0.836862 -0.71731,0.948443 -0.98033,0.948443 z" />
      <path
         id="use5"
         d="m 246.44004,77.222412 c 0,-0.908593 -0.11955,-2.391033 -0.78904,-3.777833 -0.70536,-1.43462 -1.68568,-2.211706 -1.81719,-2.211706 -0.0478,0 -0.1076,0.02391 -0.1076,0.09564 0,0.03587 0,0.05978 0.20324,0.263014 1.19552,1.207472 1.86501,3.180075 1.86501,5.618929 0,2.319303 -0.5619,4.315816 -1.94869,5.726525 -0.11956,0.107597 -0.11956,0.131507 -0.11956,0.167373 0,0.07173 0.0598,0.09564 0.1076,0.09564 0.15542,0 1.13574,-0.860772 1.72154,-2.032378 0.60972,-1.219428 0.88469,-2.510586 0.88469,-3.945206 z" />
    </g>
    <g
       id="page1-5"
       transform="matrix(1.5066666,0,0,1.5066666,-155.96594,150.78357)"
       style="fill:#ff0000">
      <path
         id="use1-4"
         d="m 202.02187,77.42565 c 0.32279,0 1.13574,-0.02391 1.70959,-0.239103 0.90859,-0.3467 0.99228,-1.0401 0.99228,-1.255293 0,-0.526027 -0.4543,-1.004234 -1.24334,-1.004234 -1.25529,0 -3.06052,1.135741 -3.06052,3.263761 0,1.255292 0.71731,2.12802 1.80523,2.12802 1.6259,0 2.65405,-1.267248 2.65405,-1.422665 0,-0.07173 -0.0717,-0.131507 -0.11955,-0.131507 -0.0359,0 -0.0478,0.01196 -0.15542,0.119552 -0.76513,1.016189 -1.90087,1.195516 -2.35517,1.195516 -0.68144,0 -1.0401,-0.537982 -1.0401,-1.422665 0,-0.167372 0,-0.466251 0.17933,-1.231382 z m -0.57385,-0.239103 c 0.51408,-1.841096 1.64982,-2.020424 2.03238,-2.020424 0.52603,0 0.88468,0.310835 0.88468,0.765131 0,1.255293 -1.91282,1.255293 -2.41494,1.255293 z"
         style="fill:#ff0000" />
      <path
         id="use2-9"
         d="m 210.87845,73.453854 c 0.12752,0 0.30287,0 0.30287,-0.183313 0,-0.183313 -0.17535,-0.183313 -0.30287,-0.183313 h -4.56687 c -0.12753,0 -0.30287,0 -0.30287,0.183313 0,0.183313 0.17534,0.183313 0.30287,0.183313 z"
         style="fill:#ff0000" />
      <path
         id="use3-1"
         d="m 214.26894,70.289719 c 0,-0.175342 -0.12752,-0.302864 -0.31084,-0.302864 -0.20722,0 -0.43835,0.191282 -0.43835,0.430386 0,0.175342 0.12752,0.302864 0.31083,0.302864 0.20722,0 0.43836,-0.191283 0.43836,-0.430386 z m -1.16364,2.925031 -0.43038,1.099876 c -0.0399,0.119551 -0.0797,0.215193 -0.0797,0.350685 0,0.390535 0.30287,0.677459 0.72528,0.677459 0.77311,0 1.09988,-1.115816 1.09988,-1.219427 0,-0.0797 -0.0638,-0.103611 -0.11955,-0.103611 -0.0956,0 -0.11158,0.05579 -0.13549,0.135491 -0.18332,0.637609 -0.51009,0.964384 -0.8289,0.964384 -0.0956,0 -0.19128,-0.03985 -0.19128,-0.255044 0,-0.191282 0.0558,-0.334744 0.1594,-0.581818 0.0797,-0.215193 0.15941,-0.430386 0.24708,-0.645579 l 0.24707,-0.645579 c 0.0717,-0.183313 0.16737,-0.430386 0.16737,-0.565878 0,-0.398506 -0.3188,-0.677459 -0.72528,-0.677459 -0.7731,0 -1.10784,1.115815 -1.10784,1.219427 0,0.07173 0.0558,0.103611 0.11955,0.103611 0.10361,0 0.11158,-0.04782 0.13549,-0.127522 0.22316,-0.75716 0.58979,-0.972353 0.82889,-0.972353 0.11158,0 0.19129,0.03985 0.19129,0.263013 0,0.0797 -0.008,0.191283 -0.0877,0.430386 z"
         style="fill:#ff0000" />
      <path
         id="use4-7"
         d="m 217.10425,69.970915 c 0.008,-0.01594 0.0319,-0.119552 0.0319,-0.127522 0,-0.03985 -0.0319,-0.111582 -0.12752,-0.111582 -0.0319,0 -0.27896,0.02391 -0.46227,0.03985 l -0.44632,0.03188 c -0.17535,0.01594 -0.25505,0.02391 -0.25505,0.167373 0,0.111581 0.11158,0.111581 0.20723,0.111581 0.38256,0 0.38256,0.04782 0.38256,0.119552 0,0.02391 0,0.03985 -0.0399,0.183312 l -1.13176,4.534994 c -0.0319,0.119552 -0.0319,0.167373 -0.0319,0.175343 0,0.135492 0.11159,0.247073 0.26302,0.247073 0.27098,0 0.33474,-0.255043 0.36662,-0.366625 0.0797,-0.334745 0.28693,-1.179577 0.3746,-1.514321 0.43835,0.04782 0.97235,0.199252 0.97235,0.653549 0,0.03985 0,0.0797 -0.0159,0.159402 -0.0239,0.103612 -0.0399,0.215193 -0.0399,0.255044 0,0.470236 0.35069,0.812951 0.81295,0.812951 0.33475,0 0.54197,-0.247073 0.64558,-0.398505 0.19128,-0.294895 0.31881,-0.773101 0.31881,-0.820922 0,-0.0797 -0.0638,-0.103611 -0.11956,-0.103611 -0.0956,0 -0.11158,0.04782 -0.14346,0.191282 -0.10361,0.374595 -0.31083,0.908593 -0.68543,0.908593 -0.20722,0 -0.25504,-0.175342 -0.25504,-0.390536 0,-0.103611 0.008,-0.199252 0.0478,-0.382565 0.008,-0.03188 0.0399,-0.159402 0.0399,-0.247073 0,-0.65355 -0.82092,-0.797012 -1.2274,-0.852802 0.2949,-0.175343 0.56588,-0.446327 0.66152,-0.549938 0.43836,-0.430386 0.79701,-0.72528 1.17958,-0.72528 0.10361,0 0.19925,0.02391 0.26301,0.103611 -0.43038,0.05579 -0.43038,0.430386 -0.43038,0.438356 0,0.175343 0.13549,0.294894 0.31083,0.294894 0.21519,0 0.4543,-0.175342 0.4543,-0.502117 0,-0.270983 -0.19129,-0.557907 -0.58979,-0.557907 -0.46227,0 -0.87671,0.350685 -1.33101,0.804981 -0.46227,0.454296 -0.66152,0.541968 -0.78904,0.597758 z"
         style="fill:#ff0000" />
      <path
         id="use5-55"
         d="m 220.93684,74.163194 c 0.0877,-0.342715 0.17534,-0.68543 0.25504,-1.036115 0.008,-0.01594 0.0638,-0.247074 0.0717,-0.286924 0.0239,-0.07173 0.22316,-0.398506 0.43039,-0.597758 0.25504,-0.231134 0.52603,-0.270984 0.66949,-0.270984 0.0877,0 0.23113,0.008 0.34271,0.103611 -0.34271,0.07173 -0.39053,0.366625 -0.39053,0.438356 0,0.175343 0.13549,0.294894 0.31083,0.294894 0.21519,0 0.4543,-0.175342 0.4543,-0.494146 0,-0.286925 -0.24708,-0.565878 -0.70137,-0.565878 -0.54197,0 -0.9086,0.358655 -1.07597,0.573848 -0.1594,-0.573848 -0.70137,-0.573848 -0.78107,-0.573848 -0.28692,0 -0.48618,0.183312 -0.6137,0.430386 -0.18331,0.358655 -0.27098,0.76513 -0.27098,0.789041 0,0.07173 0.0558,0.103611 0.11955,0.103611 0.10361,0 0.11158,-0.03188 0.16737,-0.239103 0.0956,-0.390536 0.23911,-0.860772 0.57385,-0.860772 0.20722,0 0.25504,0.199253 0.25504,0.374595 0,0.143462 -0.0399,0.294894 -0.10361,0.557908 -0.0159,0.06376 -0.13549,0.533997 -0.16737,0.645579 l -0.29489,1.195517 c -0.0319,0.119551 -0.0797,0.318804 -0.0797,0.350685 0,0.183312 0.15143,0.247073 0.25504,0.247073 0.27895,0 0.33474,-0.223163 0.3985,-0.494147 z"
         style="fill:#ff0000" />
      <path
         id="use6"
         d="m 234.48844,77.44956 c 0.20324,0 0.41843,0 0.41843,-0.239103 0,-0.239103 -0.21519,-0.239103 -0.41843,-0.239103 h -6.46774 c -0.20324,0 -0.41844,0 -0.41844,0.239103 0,0.239103 0.2152,0.239103 0.41844,0.239103 z"
         style="fill:#ff0000" />
      <path
         id="use7"
         d="m 246.15669,71.890407 c 0,-0.107596 -0.0837,-0.107596 -0.1076,-0.107596 -0.0478,0 -0.0598,0.01196 -0.20324,0.191282 -0.0717,0.08369 -0.56189,0.705355 -0.57385,0.71731 -0.39452,-0.777086 -1.18356,-0.908592 -1.68567,-0.908592 -1.51831,0 -2.89315,1.386799 -2.89315,2.737733 0,0.896638 0.53798,1.422665 1.12378,1.625903 0.13151,0.04782 0.83686,0.239103 1.19552,0.32279 0.60971,0.167372 0.76513,0.215193 1.01619,0.478206 0.0478,0.05978 0.28692,0.334745 0.28692,0.896638 0,1.111831 -1.02814,2.259527 -2.22366,2.259527 -0.98032,0 -2.06824,-0.418431 -2.06824,-1.75741 0,-0.227148 0.0478,-0.514072 0.0837,-0.633624 0,-0.03587 0.012,-0.09564 0.012,-0.119552 0,-0.04782 -0.0239,-0.107596 -0.11955,-0.107596 -0.1076,0 -0.11956,0.02391 -0.16738,0.227148 l -0.60971,2.450809 c 0,0.01196 -0.0478,0.167373 -0.0478,0.179328 0,0.107597 0.0956,0.107597 0.11955,0.107597 0.0478,0 0.0598,-0.01196 0.20324,-0.191283 l 0.54994,-0.71731 c 0.28692,0.430386 0.90859,0.908593 2.02042,0.908593 1.54222,0 2.95293,-1.494396 2.95293,-2.988792 0,-0.502118 -0.11956,-0.944459 -0.57385,-1.3868 -0.25106,-0.251059 -0.46625,-0.310834 -1.56613,-0.597758 -0.801,-0.215193 -0.90859,-0.251059 -1.12378,-0.442342 -0.20324,-0.203237 -0.35866,-0.490162 -0.35866,-0.896637 0,-1.004234 1.01619,-2.032379 2.15193,-2.032379 1.17161,0 1.72154,0.71731 1.72154,1.853051 0,0.310835 -0.0598,0.633624 -0.0598,0.681445 0,0.107596 0.0956,0.107596 0.13151,0.107596 0.10759,0 0.11955,-0.03587 0.16737,-0.227148 z"
         style="fill:#ff0000" />
      <path
         id="use8"
         d="m 247.85266,76.700362 c 0.008,-0.01594 0.0319,-0.119552 0.0319,-0.127522 0,-0.03985 -0.0319,-0.111582 -0.12753,-0.111582 l -0.80498,0.06376 c -0.29489,0.02391 -0.35865,0.03188 -0.35865,0.175343 0,0.111581 0.11158,0.111581 0.20722,0.111581 0.38257,0 0.38257,0.04782 0.38257,0.119552 0,0.02391 0,0.03985 -0.0399,0.183312 l -0.98829,3.953176 c -0.0319,0.127522 -0.0319,0.247073 -0.0319,0.255044 0,0.494147 0.40648,0.74919 0.80498,0.74919 0.34272,0 0.52603,-0.270984 0.6137,-0.446326 0.14346,-0.263014 0.26301,-0.73325 0.26301,-0.773101 0,-0.04782 -0.0239,-0.103611 -0.12752,-0.103611 -0.0717,0 -0.0956,0.03985 -0.0956,0.04782 -0.0159,0.02391 -0.0558,0.167373 -0.0797,0.255044 -0.11955,0.462266 -0.27098,0.797011 -0.55791,0.797011 -0.19128,0 -0.24707,-0.183313 -0.24707,-0.374595 0,-0.151432 0.0239,-0.239104 0.0478,-0.342715 z"
         style="fill:#ff0000" />
      <path
         id="use9"
         d="m 251.02473,77.42565 c 0.32279,0 1.13574,-0.02391 1.70958,-0.239103 0.9086,-0.3467 0.99228,-1.0401 0.99228,-1.255293 0,-0.526027 -0.45429,-1.004234 -1.24333,-1.004234 -1.2553,0 -3.06053,1.135741 -3.06053,3.263761 0,1.255292 0.71731,2.12802 1.80523,2.12802 1.62591,0 2.65405,-1.267248 2.65405,-1.422665 0,-0.07173 -0.0717,-0.131507 -0.11955,-0.131507 -0.0359,0 -0.0478,0.01196 -0.15542,0.119552 -0.76513,1.016189 -1.90087,1.195516 -2.35517,1.195516 -0.68144,0 -1.0401,-0.537982 -1.0401,-1.422665 0,-0.167372 0,-0.466251 0.17933,-1.231382 z m -0.57385,-0.239103 c 0.51407,-1.841096 1.64981,-2.020424 2.03238,-2.020424 0.52602,0 0.88468,0.310835 0.88468,0.765131 0,1.255293 -1.91283,1.255293 -2.41495,1.255293 z"
         style="fill:#ff0000" />
      <path
         id="use10"
         d="m 256.68527,70.289719 c 0,-0.175342 -0.12752,-0.302864 -0.31083,-0.302864 -0.20722,0 -0.43836,0.191282 -0.43836,0.430386 0,0.175342 0.12753,0.302864 0.31084,0.302864 0.20722,0 0.43835,-0.191283 0.43835,-0.430386 z m -1.16363,2.925031 -0.43039,1.099876 c -0.0399,0.119551 -0.0797,0.215193 -0.0797,0.350685 0,0.390535 0.30286,0.677459 0.72528,0.677459 0.7731,0 1.09988,-1.115816 1.09988,-1.219427 0,-0.0797 -0.0638,-0.103611 -0.11956,-0.103611 -0.0956,0 -0.11158,0.05579 -0.13549,0.135491 -0.18331,0.637609 -0.51008,0.964384 -0.82889,0.964384 -0.0956,0 -0.19128,-0.03985 -0.19128,-0.255044 0,-0.191282 0.0558,-0.334744 0.1594,-0.581818 0.0797,-0.215193 0.1594,-0.430386 0.24707,-0.645579 l 0.24708,-0.645579 c 0.0717,-0.183313 0.16737,-0.430386 0.16737,-0.565878 0,-0.398506 -0.3188,-0.677459 -0.72528,-0.677459 -0.7731,0 -1.10785,1.115815 -1.10785,1.219427 0,0.07173 0.0558,0.103611 0.11956,0.103611 0.10361,0 0.11158,-0.04782 0.13549,-0.127522 0.22316,-0.75716 0.58979,-0.972353 0.82889,-0.972353 0.11158,0 0.19128,0.03985 0.19128,0.263013 0,0.0797 -0.008,0.191283 -0.0877,0.430386 z"
         style="fill:#ff0000" />
      <path
         id="use11"
         d="m 259.5206,69.970915 c 0.008,-0.01594 0.0319,-0.119552 0.0319,-0.127522 0,-0.03985 -0.0319,-0.111582 -0.12752,-0.111582 -0.0319,0 -0.27895,0.02391 -0.46227,0.03985 l -0.44632,0.03188 c -0.17535,0.01594 -0.25505,0.02391 -0.25505,0.167373 0,0.111581 0.11159,0.111581 0.20723,0.111581 0.38256,0 0.38256,0.04782 0.38256,0.119552 0,0.02391 0,0.03985 -0.0399,0.183312 l -1.13175,4.534994 c -0.0319,0.119552 -0.0319,0.167373 -0.0319,0.175343 0,0.135492 0.11159,0.247073 0.26302,0.247073 0.27098,0 0.33474,-0.255043 0.36662,-0.366625 0.0797,-0.334745 0.28693,-1.179577 0.3746,-1.514321 0.43836,0.04782 0.97235,0.199252 0.97235,0.653549 0,0.03985 0,0.0797 -0.0159,0.159402 -0.0239,0.103612 -0.0399,0.215193 -0.0399,0.255044 0,0.470236 0.35069,0.812951 0.81295,0.812951 0.33475,0 0.54197,-0.247073 0.64558,-0.398505 0.19129,-0.294895 0.31881,-0.773101 0.31881,-0.820922 0,-0.0797 -0.0638,-0.103611 -0.11955,-0.103611 -0.0956,0 -0.11159,0.04782 -0.14347,0.191282 -0.10361,0.374595 -0.31083,0.908593 -0.68543,0.908593 -0.20722,0 -0.25504,-0.175342 -0.25504,-0.390536 0,-0.103611 0.008,-0.199252 0.0478,-0.382565 0.008,-0.03188 0.0399,-0.159402 0.0399,-0.247073 0,-0.65355 -0.82092,-0.797012 -1.2274,-0.852802 0.2949,-0.175343 0.56588,-0.446327 0.66152,-0.549938 0.43836,-0.430386 0.79701,-0.72528 1.17958,-0.72528 0.10361,0 0.19925,0.02391 0.26301,0.103611 -0.43038,0.05579 -0.43038,0.430386 -0.43038,0.438356 0,0.175343 0.13549,0.294894 0.31083,0.294894 0.21519,0 0.4543,-0.175342 0.4543,-0.502117 0,-0.270983 -0.19128,-0.557907 -0.58979,-0.557907 -0.46227,0 -0.87671,0.350685 -1.33101,0.804981 -0.46227,0.454296 -0.66152,0.541968 -0.78904,0.597758 z"
         style="fill:#ff0000" />
      <path
         id="use12"
         d="m 263.35317,74.163194 c 0.0877,-0.342715 0.17535,-0.68543 0.25505,-1.036115 0.008,-0.01594 0.0638,-0.247074 0.0717,-0.286924 0.0239,-0.07173 0.22316,-0.398506 0.43038,-0.597758 0.25505,-0.231134 0.52603,-0.270984 0.66949,-0.270984 0.0877,0 0.23114,0.008 0.34272,0.103611 -0.34272,0.07173 -0.39054,0.366625 -0.39054,0.438356 0,0.175343 0.13549,0.294894 0.31084,0.294894 0.21519,0 0.45429,-0.175342 0.45429,-0.494146 0,-0.286925 -0.24707,-0.565878 -0.70137,-0.565878 -0.54196,0 -0.90859,0.358655 -1.07596,0.573848 -0.1594,-0.573848 -0.70137,-0.573848 -0.78107,-0.573848 -0.28693,0 -0.48618,0.183312 -0.6137,0.430386 -0.18331,0.358655 -0.27099,0.76513 -0.27099,0.789041 0,0.07173 0.0558,0.103611 0.11956,0.103611 0.10361,0 0.11158,-0.03188 0.16737,-0.239103 0.0956,-0.390536 0.2391,-0.860772 0.57385,-0.860772 0.20722,0 0.25504,0.199253 0.25504,0.374595 0,0.143462 -0.0399,0.294894 -0.10361,0.557908 -0.0159,0.06376 -0.13549,0.533997 -0.16737,0.645579 l -0.2949,1.195517 c -0.0319,0.119551 -0.0797,0.318804 -0.0797,0.350685 0,0.183312 0.15143,0.247073 0.25505,0.247073 0.27895,0 0.33474,-0.223163 0.3985,-0.494147 z"
         style="fill:#ff0000" />
    </g>
  </g>
</svg>
