<?xml version="1.0" encoding="UTF-8" standalone="no"?>
<!-- Created with Inkscape (http://www.inkscape.org/) -->

<svg
   width="210mm"
   height="297mm"
   viewBox="0 0 210 297"
   version="1.1"
   id="svg1"
   inkscape:version="1.4.3 (0d15f750, 2025-12-25)"
   sodipodi:docname="frequences_PA.svg"
   inkscape:export-filename="frequences_PA.pdf"
   inkscape:export-xdpi="96"
   inkscape:export-ydpi="96"
   xmlns:inkscape="http://www.inkscape.org/namespaces/inkscape"
   xmlns:sodipodi="http://sodipodi.sourceforge.net/DTD/sodipodi-0.dtd"
   xmlns="http://www.w3.org/2000/svg"
   xmlns:svg="http://www.w3.org/2000/svg">
  <sodipodi:namedview
     id="namedview1"
     pagecolor="#ffffff"
     bordercolor="#000000"
     borderopacity="0.25"
     inkscape:showpageshadow="2"
     inkscape:pageopacity="0.0"
     inkscape:pagecheckerboard="0"
     inkscape:deskcolor="#d1d1d1"
     inkscape:document-units="mm"
     inkscape:zoom="0.66450431"
     inkscape:cx="366.43856"
     inkscape:cy="440.17773"
     inkscape:window-width="1280"
     inkscape:window-height="772"
     inkscape:window-x="0"
     inkscape:window-y="28"
     inkscape:window-maximized="0"
     inkscape:current-layer="layer1" />
  <defs
     id="defs1">
    <marker
       style="overflow:visible"
       id="Triangle"
       refX="0"
       refY="0"
       orient="auto-start-reverse"
       inkscape:stockid="Triangle arrow"
       markerWidth="1"
       markerHeight="1"
       viewBox="0 0 1 1"
       inkscape:isstock="true"
       inkscape:collect="always"
       preserveAspectRatio="xMidYMid">
      <path
         transform="scale(0.5)"
         style="fill:context-stroke;fill-rule:evenodd;stroke:context-stroke;stroke-width:1pt"
         d="M 5.77,0 -2.88,5 V -5 Z"
         id="path135" />
    </marker>
    <marker
       style="overflow:visible"
       id="Triangle-4"
       refX="0"
       refY="0"
       orient="auto-start-reverse"
       inkscape:stockid="Triangle arrow"
       markerWidth="1"
       markerHeight="1"
       viewBox="0 0 1 1"
       inkscape:isstock="true"
       inkscape:collect="always"
       preserveAspectRatio="xMidYMid">
      <path
         transform="scale(0.5)"
         style="fill:context-stroke;fill-rule:evenodd;stroke:context-stroke;stroke-width:1pt"
         d="M 5.77,0 -2.88,5 V -5 Z"
         id="path135-7" />
    </marker>
    <marker
       style="overflow:visible"
       id="Triangle-4-4"
       refX="0"
       refY="0"
       orient="auto-start-reverse"
       inkscape:stockid="Triangle arrow"
       markerWidth="1"
       markerHeight="1"
       viewBox="0 0 1 1"
       inkscape:isstock="true"
       inkscape:collect="always"
       preserveAspectRatio="xMidYMid">
      <path
         transform="scale(0.5)"
         style="fill:context-stroke;fill-rule:evenodd;stroke:context-stroke;stroke-width:1pt"
         d="M 5.77,0 -2.88,5 V -5 Z"
         id="path135-7-3" />
    </marker>
    <marker
       style="overflow:visible"
       id="Triangle-4-4-4"
       refX="0"
       refY="0"
       orient="auto-start-reverse"
       inkscape:stockid="Triangle arrow"
       markerWidth="1"
       markerHeight="1"
       viewBox="0 0 1 1"
       inkscape:isstock="true"
       inkscape:collect="always"
       preserveAspectRatio="xMidYMid">
      <path
         transform="scale(0.5)"
         style="fill:context-stroke;fill-rule:evenodd;stroke:context-stroke;stroke-width:1pt"
         d="M 5.77,0 -2.88,5 V -5 Z"
         id="path135-7-3-7" />
    </marker>
  </defs>
  <g
     inkscape:label="Calque 1"
     inkscape:groupmode="layer"
     id="layer1">
    <path
       style="fill:#ff0000;stroke-width:0.335;stroke:#ff0000;stroke-opacity:1;stroke-dasharray:2.68000007,0.33500001;stroke-dashoffset:0"
       d="M 47.299763,136.26836 H 162.17061"
       id="path1" />
    <path
       style="fill:#000000;stroke:#28170b;stroke-width:0.335;stroke-dasharray:none;stroke-dashoffset:0;stroke-opacity:1;fill-opacity:1"
       d="M 47.515589,128.93084 H 162.38643"
       id="path1-0" />
    <path
       style="fill:#000000;fill-opacity:1;stroke:#28170b;stroke-width:0.335;stroke-dasharray:none;stroke-dashoffset:0;stroke-opacity:1"
       d="M 47.751802,195.31688 H 162.62264"
       id="path1-0-9" />
    <path
       style="fill:#000000;fill-opacity:1;stroke:#28170b;stroke-width:0.332552;stroke-dasharray:none;stroke-dashoffset:0;stroke-opacity:1;marker-start:url(#Triangle);marker-end:url(#Triangle)"
       d="m 131.55731,129.53999 -0.42881,64.75975"
       id="path2" />
    <path
       style="fill:#ff0000;fill-opacity:1;stroke:#ff0000;stroke-width:0.327837;stroke-dasharray:none;stroke-dashoffset:0;stroke-opacity:1;marker-start:url(#Triangle-4);marker-end:url(#Triangle-4)"
       d="m 118.15049,138.11371 -0.47761,56.50656"
       id="path2-5" />
    <path
       style="fill:#0000ff;fill-opacity:1;stroke:#0000ff;stroke-width:0.329696;stroke-dasharray:none;stroke-dashoffset:0;stroke-opacity:1;marker-start:url(#Triangle-4-4)"
       d="M 79.802684,78.198068 79.330426,135.99506"
       id="path2-5-7" />
    <path
       style="fill:#0000ff;fill-opacity:1;stroke:#0000ff;stroke-width:0.322969;stroke-dasharray:none;stroke-dashoffset:0;stroke-opacity:1;marker-end:url(#Triangle-4-4-4)"
       d="M 84.736176,78.021771 84.211156,127.9106"
       id="path2-5-7-9" />
    <text
       xml:space="preserve"
       style="font-size:3.175px;writing-mode:lr-tb;direction:ltr;fill:#000000;fill-opacity:1;stroke:#28170b;stroke-width:0.335;stroke-dasharray:none;stroke-dashoffset:0;stroke-opacity:1"
       x="131.88712"
       y="158.81621"
       id="text2"><tspan
         sodipodi:role="line"
         id="tspan2"
         style="stroke:none;stroke-width:0.335"
         x="131.88712"
         y="158.81621">-1241.4 MHz</tspan></text>
    <text
       xml:space="preserve"
       style="font-size:3.175px;writing-mode:lr-tb;direction:ltr;fill:#ff0000;fill-opacity:1;stroke:#ff0000;stroke-width:0.335;stroke-dasharray:none;stroke-dashoffset:0;stroke-opacity:1"
       x="136.40913"
       y="156.82124"
       id="text3"><tspan
         sodipodi:role="line"
         id="tspan3"
         style="stroke-width:0.335"
         x="136.40913"
         y="156.82124" /></text>
    <g
       id="svg31"
       transform="matrix(0.35277777,0,0,0.35277777,118.29595,167.70171)">
      <g
         id="page1"
         transform="matrix(1.13,0,0,1.13,-392.10305,-112.02853)">
        <g
           fill="#ff0000"
           id="g31">
          <path
             id="use1"
             d="m 133.74182,74.938985 h 0.93819 c 0.21818,0 0.32727,0 0.32727,-0.218182 0,-0.12 -0.10909,-0.12 -0.29455,-0.12 h -0.90545 l 0.22909,-1.243636 c 0.0436,-0.229091 0.19636,-1.003636 0.26182,-1.134545 0.0982,-0.207273 0.28363,-0.370909 0.51273,-0.370909 0.0436,0 0.32727,0 0.53454,0.196364 -0.48,0.04364 -0.58909,0.425454 -0.58909,0.58909 0,0.250909 0.19636,0.381818 0.40364,0.381818 0.28363,0 0.6,-0.24 0.6,-0.654545 0,-0.501818 -0.50182,-0.752727 -0.94909,-0.752727 -0.37091,0 -1.05819,0.196364 -1.38546,1.276363 -0.0654,0.229091 -0.0982,0.338182 -0.36,1.712727 h -0.75273 c -0.20727,0 -0.32727,0 -0.32727,0.207273 0,0.130909 0.0982,0.130909 0.30546,0.130909 h 0.72 l -0.81819,4.30909 c -0.19636,1.058181 -0.38181,2.050908 -0.94909,2.050908 -0.0436,0 -0.31636,0 -0.52363,-0.196364 0.50182,-0.03273 0.6,-0.425454 0.6,-0.58909 0,-0.250909 -0.19637,-0.381818 -0.40364,-0.381818 -0.28364,0 -0.6,0.24 -0.6,0.654545 0,0.490909 0.48,0.752727 0.92727,0.752727 0.6,0 1.03637,-0.643636 1.23273,-1.058182 0.34909,-0.687272 0.6,-2.007272 0.61091,-2.083635 z" />
          <path
             id="use2"
             d="m 136.61735,79.97999 c 0.0877,-0.342715 0.17534,-0.68543 0.25504,-1.036115 0.008,-0.01594 0.0638,-0.247074 0.0717,-0.286924 0.0239,-0.07173 0.22317,-0.398506 0.43039,-0.597758 0.25504,-0.231134 0.52603,-0.270984 0.66949,-0.270984 0.0877,0 0.23113,0.008 0.34271,0.103611 -0.34271,0.07173 -0.39053,0.366625 -0.39053,0.438356 0,0.175343 0.13549,0.294894 0.31083,0.294894 0.21519,0 0.4543,-0.175342 0.4543,-0.494146 0,-0.286925 -0.24708,-0.565878 -0.70137,-0.565878 -0.54197,0 -0.90859,0.358655 -1.07597,0.573848 -0.1594,-0.573848 -0.70137,-0.573848 -0.78107,-0.573848 -0.28692,0 -0.48617,0.183312 -0.6137,0.430386 -0.18331,0.358655 -0.27098,0.76513 -0.27098,0.789041 0,0.07173 0.0558,0.103611 0.11955,0.103611 0.10361,0 0.11158,-0.03188 0.16737,-0.239103 0.0957,-0.390536 0.23911,-0.860772 0.57385,-0.860772 0.20722,0 0.25505,0.199253 0.25505,0.374595 0,0.143462 -0.0399,0.294894 -0.10362,0.557908 -0.0159,0.06376 -0.13549,0.533997 -0.16737,0.645579 l -0.29489,1.195517 c -0.0319,0.119551 -0.0797,0.318804 -0.0797,0.350685 0,0.183312 0.15143,0.247073 0.25504,0.247073 0.27895,0 0.33474,-0.223163 0.39851,-0.494147 z" />
          <path
             id="use3"
             d="m 140.7377,79.262679 c 0.17535,0 0.7731,-0.008 1.19552,-0.159402 0.6934,-0.239103 0.71731,-0.71731 0.71731,-0.836862 0,-0.446326 -0.42242,-0.701369 -0.94047,-0.701369 -0.90062,0 -2.18381,0.70934 -2.18381,2.120049 0,0.812952 0.49414,1.474471 1.37086,1.474471 1.24333,0 1.91282,-0.797011 1.91282,-0.908593 0,-0.07173 -0.0797,-0.127521 -0.12752,-0.127521 -0.0478,0 -0.0717,0.02391 -0.11158,0.07173 -0.62964,0.74122 -1.52229,0.74122 -1.65778,0.74122 -0.58182,0 -0.75716,-0.494147 -0.75716,-0.940473 0,-0.239104 0.0717,-0.597759 0.10361,-0.733251 z m -0.41444,-0.223163 c 0.25504,-0.972353 0.98032,-1.251307 1.3868,-1.251307 0.3188,0 0.62167,0.159402 0.62167,0.478206 0,0.773101 -1.3071,0.773101 -1.64185,0.773101 z" />
          <path
             id="use4"
             d="m 147.35202,75.787711 c 0.008,-0.01594 0.0319,-0.119552 0.0319,-0.127522 0,-0.03985 -0.0319,-0.111582 -0.12752,-0.111582 -0.0319,0 -0.27895,0.02391 -0.46227,0.03985 l -0.44632,0.03188 c -0.17534,0.01594 -0.25504,0.02391 -0.25504,0.167373 0,0.111581 0.11158,0.111581 0.20722,0.111581 0.38256,0 0.38256,0.04782 0.38256,0.119552 0,0.04782 -0.0638,0.310834 -0.10361,0.470236 l -0.39053,1.554172 c -0.0717,-0.135492 -0.30287,-0.478206 -0.78904,-0.478206 -0.94845,0 -1.99253,1.107845 -1.99253,2.287422 0,0.828891 0.53399,1.307098 1.14769,1.307098 0.51009,0 0.94845,-0.406476 1.09191,-0.565878 0.14346,0.549938 0.68543,0.565878 0.78107,0.565878 0.36662,0 0.54994,-0.302864 0.6137,-0.438356 0.1594,-0.286924 0.27098,-0.749191 0.27098,-0.781071 0,-0.04782 -0.0319,-0.103611 -0.12752,-0.103611 -0.0956,0 -0.11158,0.04782 -0.1594,0.247073 -0.11158,0.438356 -0.26302,0.852802 -0.57385,0.852802 -0.18331,0 -0.25504,-0.151432 -0.25504,-0.374595 0,-0.151432 0.0239,-0.239104 0.0478,-0.342715 z m -1.7056,4.431382 c -0.39851,0.549938 -0.81295,0.71731 -1.068,0.71731 -0.36662,0 -0.54993,-0.334745 -0.54993,-0.749191 0,-0.374595 0.21519,-1.227397 0.39053,-1.578082 0.23113,-0.486177 0.62167,-0.820921 0.9883,-0.820921 0.51805,0 0.66948,0.581818 0.66948,0.677459 0,0.03188 -0.19925,0.812952 -0.24707,1.020175 -0.10361,0.374595 -0.10361,0.390535 -0.18331,0.73325 z" />
          <path
             id="use5"
             d="m 157.53284,76.79353 c 0.18545,0 0.38182,0 0.38182,-0.218182 0,-0.218182 -0.19637,-0.218182 -0.38182,-0.218182 h -5.90182 c -0.18545,0 -0.38182,0 -0.38182,0.218182 0,0.218182 0.19637,0.218182 0.38182,0.218182 z" />
          <path
             id="use6"
             d="m 162.63828,78.46262 1.15636,-1.123636 c 1.70182,-1.505454 2.35636,-2.094545 2.35636,-3.185453 0,-1.243636 -0.98181,-2.116364 -2.31272,-2.116364 -1.23273,0 -2.04,1.003637 -2.04,1.974545 0,0.610909 0.54545,0.610909 0.57818,0.610909 0.18545,0 0.56727,-0.130909 0.56727,-0.578181 0,-0.283637 -0.19636,-0.567273 -0.57818,-0.567273 -0.0873,0 -0.10909,0 -0.14182,0.01091 0.25091,-0.709091 0.84,-1.112727 1.47273,-1.112727 0.99273,0 1.46182,0.883636 1.46182,1.778182 0,0.872727 -0.54546,1.734544 -1.14546,2.410908 l -2.09454,2.334545 c -0.12,0.12 -0.12,0.141818 -0.12,0.403636 h 4.04727 L 166.151,77.40444 h -0.27272 c -0.0545,0.327272 -0.13091,0.807272 -0.24,0.970909 -0.0764,0.08727 -0.79637,0.08727 -1.03637,0.08727 z" />
          <path
             id="use7"
             d="m 173.37521,76.269894 -2.18182,-2.170909 c -0.1309,-0.130909 -0.15272,-0.152727 -0.24,-0.152727 -0.10909,0 -0.21818,0.09818 -0.21818,0.218182 0,0.07636 0.0218,0.09818 0.14182,0.218181 l 2.18182,2.192727 -2.18182,2.192727 c -0.12,0.12 -0.14182,0.141818 -0.14182,0.218181 0,0.12 0.10909,0.218182 0.21818,0.218182 0.0873,0 0.1091,-0.02182 0.24,-0.152727 l 2.17091,-2.170909 2.25818,2.258182 c 0.0218,0.01091 0.0982,0.06545 0.16364,0.06545 0.13091,0 0.21818,-0.09818 0.21818,-0.218182 0,-0.02182 0,-0.06545 -0.0327,-0.12 -0.0109,-0.02182 -1.74545,-1.734544 -2.2909,-2.290908 l 1.99636,-1.996363 c 0.0545,-0.06546 0.21818,-0.207273 0.27273,-0.272727 0.0109,-0.02182 0.0545,-0.06546 0.0545,-0.141818 0,-0.12 -0.0873,-0.218182 -0.21818,-0.218182 -0.0873,0 -0.13091,0.04364 -0.25091,0.163636 z" />
          <path
             id="use8"
             d="m 184.04428,74.938985 h 0.93819 c 0.21818,0 0.32727,0 0.32727,-0.218182 0,-0.12 -0.10909,-0.12 -0.29455,-0.12 h -0.90545 l 0.22909,-1.243636 c 0.0436,-0.229091 0.19636,-1.003636 0.26182,-1.134545 0.0982,-0.207273 0.28363,-0.370909 0.51273,-0.370909 0.0436,0 0.32727,0 0.53454,0.196364 -0.48,0.04364 -0.58909,0.425454 -0.58909,0.58909 0,0.250909 0.19636,0.381818 0.40364,0.381818 0.28363,0 0.6,-0.24 0.6,-0.654545 0,-0.501818 -0.50182,-0.752727 -0.94909,-0.752727 -0.37091,0 -1.05819,0.196364 -1.38546,1.276363 -0.0654,0.229091 -0.0982,0.338182 -0.36,1.712727 h -0.75273 c -0.20727,0 -0.32727,0 -0.32727,0.207273 0,0.130909 0.0982,0.130909 0.30546,0.130909 h 0.72 l -0.81819,4.30909 c -0.19636,1.058181 -0.38181,2.050908 -0.94909,2.050908 -0.0436,0 -0.31636,0 -0.52363,-0.196364 0.50182,-0.03273 0.6,-0.425454 0.6,-0.58909 0,-0.250909 -0.19637,-0.381818 -0.40364,-0.381818 -0.28364,0 -0.6,0.24 -0.6,0.654545 0,0.490909 0.48,0.752727 0.92727,0.752727 0.6,0 1.03637,-0.643636 1.23273,-1.058182 0.34909,-0.687272 0.6,-2.007272 0.61091,-2.083635 z" />
          <path
             id="use9"
             d="m 188.59355,78.083103 c -0.18332,0.03188 -0.35069,0.175342 -0.35069,0.374595 0,0.143462 0.0956,0.247074 0.27099,0.247074 0.11955,0 0.36662,-0.08767 0.36662,-0.446327 0,-0.494147 -0.51806,-0.693399 -1.0122,-0.693399 -1.068,0 -1.40274,0.75716 -1.40274,1.163636 0,0.0797 0,0.366625 0.29489,0.589788 0.18331,0.143462 0.31881,0.167373 0.73325,0.247074 0.27896,0.05579 0.73325,0.135492 0.73325,0.549937 0,0.207223 -0.15143,0.470237 -0.37459,0.621669 -0.2949,0.191283 -0.68543,0.199253 -0.81296,0.199253 -0.19128,0 -0.73325,-0.03188 -0.9325,-0.350685 0.40648,-0.01594 0.46227,-0.342715 0.46227,-0.438356 0,-0.239103 -0.21519,-0.294894 -0.31084,-0.294894 -0.12752,0 -0.45429,0.09564 -0.45429,0.533997 0,0.470237 0.49414,0.773101 1.23536,0.773101 1.3868,0 1.6817,-0.980324 1.6817,-1.315068 0,-0.71731 -0.78107,-0.868743 -1.07597,-0.924533 -0.38256,-0.07173 -0.6934,-0.127522 -0.6934,-0.462267 0,-0.143462 0.1355,-0.669489 0.9086,-0.669489 0.30286,0 0.61369,0.08767 0.73325,0.294894 z" />
          <path
             id="use10"
             d="m 191.38568,75.787711 c 0.008,-0.01594 0.0319,-0.119552 0.0319,-0.127522 0,-0.03985 -0.0319,-0.111582 -0.12753,-0.111582 l -0.80498,0.06376 c -0.29489,0.02391 -0.35865,0.03188 -0.35865,0.175343 0,0.111581 0.11158,0.111581 0.20722,0.111581 0.38257,0 0.38257,0.04782 0.38257,0.119552 0,0.02391 0,0.03985 -0.0399,0.183312 l -0.98829,3.953176 c -0.0319,0.127522 -0.0319,0.247073 -0.0319,0.255044 0,0.494147 0.40648,0.74919 0.80498,0.74919 0.34272,0 0.52603,-0.270984 0.6137,-0.446326 0.14346,-0.263014 0.26301,-0.73325 0.26301,-0.773101 0,-0.04782 -0.0239,-0.103611 -0.12752,-0.103611 -0.0717,0 -0.0956,0.03985 -0.0956,0.04782 -0.0159,0.02391 -0.0558,0.167373 -0.0797,0.255044 -0.11955,0.462266 -0.27098,0.797011 -0.55791,0.797011 -0.19128,0 -0.24707,-0.183313 -0.24707,-0.374595 0,-0.151432 0.0239,-0.239104 0.0478,-0.342715 z" />
          <path
             id="use11"
             d="m 195.04392,78.043252 c -0.0717,-0.135492 -0.30287,-0.478206 -0.78905,-0.478206 -0.94844,0 -1.99252,1.107845 -1.99252,2.287422 0,0.828891 0.53399,1.307098 1.14769,1.307098 0.51009,0 0.94845,-0.406476 1.09191,-0.565878 0.14346,0.549938 0.68543,0.565878 0.78107,0.565878 0.36662,0 0.54994,-0.302864 0.6137,-0.438356 0.1594,-0.286924 0.27098,-0.749191 0.27098,-0.781071 0,-0.04782 -0.0319,-0.103611 -0.12752,-0.103611 -0.0956,0 -0.11158,0.04782 -0.1594,0.247073 -0.11158,0.438356 -0.26302,0.852802 -0.57385,0.852802 -0.18331,0 -0.25504,-0.151432 -0.25504,-0.374595 0,-0.135492 0.0717,-0.406476 0.11955,-0.605729 0.0478,-0.199253 0.16737,-0.677459 0.19925,-0.820921 l 0.1594,-0.605729 c 0.0399,-0.191283 0.12752,-0.526027 0.12752,-0.565878 0,-0.183312 -0.15143,-0.247073 -0.25504,-0.247073 -0.11955,0 -0.3188,0.0797 -0.35865,0.326774 z m -0.54197,2.175841 c -0.39851,0.549938 -0.81295,0.71731 -1.068,0.71731 -0.36662,0 -0.54993,-0.334745 -0.54993,-0.749191 0,-0.374595 0.21519,-1.227397 0.39053,-1.578082 0.23113,-0.486177 0.62167,-0.820921 0.98829,-0.820921 0.51806,0 0.66949,0.581818 0.66949,0.677459 0,0.03188 -0.19925,0.812952 -0.24707,1.020175 -0.10361,0.374595 -0.10361,0.390535 -0.18331,0.73325 z" />
          <path
             id="use12"
             d="m 200.37879,78.178744 c 0,-0.621669 -0.35865,-0.621669 -0.39053,-0.621669 -0.19128,0 -0.41445,0.207223 -0.41445,0.414446 0,0.127522 0.0638,0.183313 0.13549,0.247074 0.18332,0.159402 0.2949,0.382565 0.2949,0.637609 0,0.366625 -0.52603,2.080199 -1.44259,2.080199 -0.34272,0 -0.62167,-0.183313 -0.62167,-0.68543 0,-0.438356 0.2391,-1.067995 0.43039,-1.546201 0.0956,-0.255044 0.11955,-0.318805 0.11955,-0.462267 0,-0.430386 -0.35069,-0.677459 -0.71731,-0.677459 -0.78904,0 -1.11582,1.123785 -1.11582,1.219427 0,0.07173 0.0558,0.103611 0.11955,0.103611 0.10362,0 0.11159,-0.04782 0.1355,-0.127522 0.20722,-0.693399 0.54993,-0.972353 0.83686,-0.972353 0.11955,0 0.19128,0.07173 0.19128,0.263013 0,0.183313 -0.0717,0.366626 -0.15143,0.565878 -0.39054,1.004234 -0.42242,1.267248 -0.42242,1.514322 0,0.868742 0.70934,1.028144 1.16364,1.028144 1.32304,0 1.84906,-2.375093 1.84906,-2.980822 z" />
          <path
             id="use13"
             d="m 202.42908,79.262679 c 0.17534,0 0.7731,-0.008 1.19552,-0.159402 0.6934,-0.239103 0.71731,-0.71731 0.71731,-0.836862 0,-0.446326 -0.42242,-0.701369 -0.94048,-0.701369 -0.90062,0 -2.18381,0.70934 -2.18381,2.120049 0,0.812952 0.49415,1.474471 1.37086,1.474471 1.24334,0 1.91283,-0.797011 1.91283,-0.908593 0,-0.07173 -0.0797,-0.127521 -0.12752,-0.127521 -0.0478,0 -0.0717,0.02391 -0.11158,0.07173 -0.62964,0.74122 -1.5223,0.74122 -1.65779,0.74122 -0.58182,0 -0.75716,-0.494147 -0.75716,-0.940473 0,-0.239104 0.0717,-0.597759 0.10361,-0.733251 z m -0.41445,-0.223163 c 0.25505,-0.972353 0.98033,-1.251307 1.3868,-1.251307 0.31881,0 0.62167,0.159402 0.62167,0.478206 0,0.773101 -1.3071,0.773101 -1.64184,0.773101 z" />
          <path
             id="use14"
             d="m 207.25809,76.002904 c 0,-0.215193 -0.0159,-0.223164 -0.23113,-0.223164 -0.32678,0.318805 -0.74919,0.510088 -1.50635,0.510088 v 0.263013 c 0.21519,0 0.64558,0 1.10784,-0.215193 v 4.088668 c 0,0.294894 -0.0239,0.390535 -0.78107,0.390535 h -0.27895 v 0.263014 c 0.32677,-0.02391 1.0122,-0.02391 1.37086,-0.02391 0.35865,0 1.05205,0 1.37883,0.02391 v -0.263014 h -0.27896 c -0.75716,0 -0.78107,-0.09564 -0.78107,-0.390535 z" />
          <path
             id="use15"
             d="m 219.10108,76.79353 c 0.18545,0 0.38181,0 0.38181,-0.218182 0,-0.218182 -0.19636,-0.218182 -0.38181,-0.218182 h -5.90182 c -0.18545,0 -0.38182,0 -0.38182,0.218182 0,0.218182 0.19637,0.218182 0.38182,0.218182 z" />
          <path
             id="use16"
             d="m 224.20651,78.46262 1.15637,-1.123636 c 1.70182,-1.505454 2.35636,-2.094545 2.35636,-3.185453 0,-1.243636 -0.98182,-2.116364 -2.31273,-2.116364 -1.23272,0 -2.04,1.003637 -2.04,1.974545 0,0.610909 0.54546,0.610909 0.57819,0.610909 0.18545,0 0.56727,-0.130909 0.56727,-0.578181 0,-0.283637 -0.19636,-0.567273 -0.57818,-0.567273 -0.0873,0 -0.10909,0 -0.14182,0.01091 0.25091,-0.709091 0.84,-1.112727 1.47273,-1.112727 0.99272,0 1.46181,0.883636 1.46181,1.778182 0,0.872727 -0.54545,1.734544 -1.14545,2.410908 l -2.09455,2.334545 c -0.12,0.12 -0.12,0.141818 -0.12,0.403636 h 4.04728 l 0.30545,-1.898181 h -0.27273 c -0.0545,0.327272 -0.13091,0.807272 -0.24,0.970909 -0.0764,0.08727 -0.79636,0.08727 -1.03636,0.08727 z" />
          <path
             id="use17"
             d="m 234.94345,76.269894 -2.18182,-2.170909 c -0.13091,-0.130909 -0.15273,-0.152727 -0.24,-0.152727 -0.10909,0 -0.21818,0.09818 -0.21818,0.218182 0,0.07636 0.0218,0.09818 0.14182,0.218181 l 2.18182,2.192727 -2.18182,2.192727 c -0.12,0.12 -0.14182,0.141818 -0.14182,0.218181 0,0.12 0.10909,0.218182 0.21818,0.218182 0.0873,0 0.10909,-0.02182 0.24,-0.152727 l 2.17091,-2.170909 2.25818,2.258182 c 0.0218,0.01091 0.0982,0.06545 0.16364,0.06545 0.13091,0 0.21818,-0.09818 0.21818,-0.218182 0,-0.02182 0,-0.06545 -0.0327,-0.12 -0.0109,-0.02182 -1.74545,-1.734544 -2.29091,-2.290908 l 1.99637,-1.996363 c 0.0545,-0.06546 0.21818,-0.207273 0.27272,-0.272727 0.0109,-0.02182 0.0546,-0.06546 0.0546,-0.141818 0,-0.12 -0.0873,-0.218182 -0.21818,-0.218182 -0.0873,0 -0.13091,0.04364 -0.25091,0.163636 z" />
          <path
             id="use18"
             d="m 245.61254,74.938985 h 0.93818 c 0.21818,0 0.32727,0 0.32727,-0.218182 0,-0.12 -0.10909,-0.12 -0.29454,-0.12 h -0.90546 l 0.22909,-1.243636 c 0.0436,-0.229091 0.19637,-1.003636 0.26182,-1.134545 0.0982,-0.207273 0.28364,-0.370909 0.51273,-0.370909 0.0436,0 0.32727,0 0.53454,0.196364 -0.48,0.04364 -0.58909,0.425454 -0.58909,0.58909 0,0.250909 0.19637,0.381818 0.40364,0.381818 0.28363,0 0.6,-0.24 0.6,-0.654545 0,-0.501818 -0.50182,-0.752727 -0.94909,-0.752727 -0.37091,0 -1.05818,0.196364 -1.38546,1.276363 -0.0654,0.229091 -0.0982,0.338182 -0.36,1.712727 h -0.75272 c -0.20728,0 -0.32728,0 -0.32728,0.207273 0,0.130909 0.0982,0.130909 0.30546,0.130909 h 0.72 l -0.81818,4.30909 c -0.19637,1.058181 -0.38182,2.050908 -0.94909,2.050908 -0.0436,0 -0.31637,0 -0.52364,-0.196364 0.50182,-0.03273 0.6,-0.425454 0.6,-0.58909 0,-0.250909 -0.19636,-0.381818 -0.40364,-0.381818 -0.28363,0 -0.6,0.24 -0.6,0.654545 0,0.490909 0.48,0.752727 0.92728,0.752727 0.6,0 1.03636,-0.643636 1.23272,-1.058182 0.34909,-0.687272 0.6,-2.007272 0.61091,-2.083635 z" />
          <path
             id="use19"
             d="m 249.45244,76.445683 c 0,-0.215193 -0.0159,-0.223164 -0.23113,-0.223164 -0.32677,0.318805 -0.74919,0.510088 -1.50635,0.510088 v 0.263013 c 0.21519,0 0.64558,0 1.10785,-0.215193 v 4.088668 c 0,0.294894 -0.0239,0.390535 -0.78108,0.390535 h -0.27895 v 0.263014 c 0.32678,-0.02391 1.01221,-0.02391 1.37086,-0.02391 0.35866,0 1.05206,0 1.37883,0.02391 V 81.25963 h -0.27895 c -0.75716,0 -0.78108,-0.09564 -0.78108,-0.390535 z" />
          <path
             id="use20"
             d="m 253.68662,76.445683 c 0,-0.215193 -0.0159,-0.223164 -0.23113,-0.223164 -0.32678,0.318805 -0.74919,0.510088 -1.50635,0.510088 v 0.263013 c 0.21519,0 0.64558,0 1.10784,-0.215193 v 4.088668 c 0,0.294894 -0.0239,0.390535 -0.78107,0.390535 h -0.27895 v 0.263014 c 0.32677,-0.02391 1.0122,-0.02391 1.37086,-0.02391 0.35865,0 1.05205,0 1.37883,0.02391 V 81.25963 h -0.27896 c -0.75716,0 -0.78107,-0.09564 -0.78107,-0.390535 z" />
          <path
             id="use21"
             d="m 259.1243,75.879805 c 0.0478,-0.111582 0.0478,-0.127522 0.0478,-0.151432 0,-0.103612 -0.0797,-0.183313 -0.18331,-0.183313 -0.12752,0 -0.1594,0.09564 -0.19128,0.175342 l -2.86128,7.460025 c -0.0478,0.111582 -0.0478,0.127522 -0.0478,0.151432 0,0.103612 0.0797,0.183313 0.18332,0.183313 0.12752,0 0.1594,-0.09564 0.19128,-0.175342 z" />
          <path
             id="use22"
             d="m 261.89995,79.896741 c 0.12752,-0.119552 0.46226,-0.382565 0.58978,-0.494147 0.49415,-0.454296 0.96439,-0.892652 0.96439,-1.617933 0,-0.948443 -0.79701,-1.562142 -1.79328,-1.562142 -0.95641,0 -1.58605,0.725281 -1.58605,1.434621 0,0.390535 0.31083,0.446326 0.42242,0.446326 0.16737,0 0.41444,-0.119552 0.41444,-0.422416 0,-0.414446 -0.3985,-0.414446 -0.49414,-0.414446 0.23113,-0.581818 0.76513,-0.781071 1.15566,-0.781071 0.74122,0 1.12379,0.629639 1.12379,1.299128 0,0.828892 -0.58182,1.434621 -1.52229,2.399004 l -1.00424,1.036115 c -0.0956,0.08767 -0.0956,0.103611 -0.0956,0.302864 h 3.14819 l 0.23114,-1.42665 h -0.24708 c -0.0239,0.159402 -0.0877,0.557908 -0.18331,0.70934 -0.0478,0.06376 -0.65355,0.06376 -0.78107,0.06376 h -1.41868 z" />
          <path
             id="use23"
             d="m 274.90949,75.735348 c 0.16364,0 0.37091,0 0.37091,-0.218181 0,-0.218181 -0.20727,-0.218182 -0.36,-0.218182 h -6.53454 c -0.15273,0 -0.36,0 -0.36,0.218182 0,0.218182 0.20727,0.218181 0.37091,0.218181 z m 0.0109,2.116363 c 0.15273,0 0.36,0 0.36,-0.218181 0,-0.218181 -0.20727,-0.218182 -0.37091,-0.218182 h -6.51272 c -0.16364,0 -0.37091,0 -0.37091,0.218182 0,0.218182 0.20727,0.218181 0.36,0.218181 z" />
          <path
             id="use24"
             d="m 286.11914,76.79353 c 0.18546,0 0.38182,0 0.38182,-0.218182 0,-0.218182 -0.19636,-0.218182 -0.38182,-0.218182 h -5.90181 c -0.18546,0 -0.38182,0 -0.38182,0.218182 0,0.218182 0.19636,0.218182 0.38182,0.218182 z" />
          <path
             id="use25"
             d="m 290.62222,72.320804 c 0,-0.261818 0,-0.283637 -0.25091,-0.283637 -0.67636,0.698182 -1.63636,0.698182 -1.98545,0.698182 v 0.338182 c 0.21818,0 0.86181,0 1.42909,-0.283636 v 5.650907 c 0,0.392727 -0.0327,0.523636 -1.01455,0.523636 h -0.34909 v 0.338182 c 0.38182,-0.03273 1.33091,-0.03273 1.76727,-0.03273 0.43637,0 1.38546,0 1.76728,0.03273 v -0.338182 h -0.3491 c -0.98181,0 -1.01454,-0.12 -1.01454,-0.523636 z" />
          <path
             id="use26"
             d="m 297.88769,75.811712 c 0,-0.872727 -0.0546,-1.745454 -0.43637,-2.552727 -0.50181,-1.047272 -1.39636,-1.221818 -1.85454,-1.221818 -0.65455,0 -1.45091,0.283637 -1.89818,1.298182 -0.34909,0.752727 -0.40364,1.603636 -0.40364,2.476363 0,0.818181 0.0436,1.799999 0.49091,2.62909 0.46909,0.883636 1.26545,1.101818 1.8,1.101818 0.58909,0 1.41818,-0.229091 1.89818,-1.265454 0.34909,-0.752727 0.40364,-1.603636 0.40364,-2.465454 z m -2.30182,3.490908 c -0.42546,0 -1.06909,-0.272727 -1.26545,-1.32 -0.12,-0.654545 -0.12,-1.658181 -0.12,-2.301817 0,-0.698182 0,-1.418182 0.0873,-2.007272 0.20727,-1.298182 1.02545,-1.396364 1.29818,-1.396364 0.36,0 1.08,0.196364 1.28727,1.276364 0.10909,0.610909 0.10909,1.439999 0.10909,2.127272 0,0.818181 0,1.559999 -0.12,2.258181 -0.16363,1.036363 -0.78545,1.363636 -1.27636,1.363636 z" />
          <path
             id="use27"
             d="m 299.70952,78.46262 1.15636,-1.123636 c 1.70182,-1.505454 2.35637,-2.094545 2.35637,-3.185453 0,-1.243636 -0.98182,-2.116364 -2.31273,-2.116364 -1.23273,0 -2.04,1.003637 -2.04,1.974545 0,0.610909 0.54546,0.610909 0.57818,0.610909 0.18546,0 0.56728,-0.130909 0.56728,-0.578181 0,-0.283637 -0.19637,-0.567273 -0.57819,-0.567273 -0.0873,0 -0.10909,0 -0.14181,0.01091 0.2509,-0.709091 0.84,-1.112727 1.47272,-1.112727 0.99273,0 1.46182,0.883636 1.46182,1.778182 0,0.872727 -0.54545,1.734544 -1.14545,2.410908 l -2.09455,2.334545 c -0.12,0.12 -0.12,0.141818 -0.12,0.403636 h 4.04727 l 0.30546,-1.898181 h -0.27273 c -0.0546,0.327272 -0.13091,0.807272 -0.24,0.970909 -0.0764,0.08727 -0.79636,0.08727 -1.03636,0.08727 z" />
          <path
             id="use28"
             d="m 305.16408,78.46262 1.15636,-1.123636 c 1.70182,-1.505454 2.35637,-2.094545 2.35637,-3.185453 0,-1.243636 -0.98182,-2.116364 -2.31273,-2.116364 -1.23273,0 -2.04,1.003637 -2.04,1.974545 0,0.610909 0.54545,0.610909 0.57818,0.610909 0.18546,0 0.56727,-0.130909 0.56727,-0.578181 0,-0.283637 -0.19636,-0.567273 -0.57818,-0.567273 -0.0873,0 -0.10909,0 -0.14182,0.01091 0.25091,-0.709091 0.84,-1.112727 1.47273,-1.112727 0.99273,0 1.46182,0.883636 1.46182,1.778182 0,0.872727 -0.54546,1.734544 -1.14546,2.410908 l -2.09454,2.334545 c -0.12,0.12 -0.12,0.141818 -0.12,0.403636 h 4.04727 l 0.30546,-1.898181 h -0.27273 c -0.0546,0.327272 -0.13091,0.807272 -0.24,0.970909 -0.0764,0.08727 -0.79636,0.08727 -1.03636,0.08727 z" />
          <path
             id="use29"
             d="m 319.335,72.691713 c 0.0982,-0.392727 0.12,-0.501818 0.93818,-0.501818 0.25091,0 0.34909,0 0.34909,-0.218182 0,-0.12 -0.10909,-0.12 -0.29454,-0.12 h -1.44 c -0.28364,0 -0.29455,0 -0.42546,0.207273 l -3.98181,6.21818 -0.85091,-6.174544 c -0.0327,-0.250909 -0.0546,-0.250909 -0.33818,-0.250909 h -1.49455 c -0.20727,0 -0.32727,0 -0.32727,0.207273 0,0.130909 0.0982,0.130909 0.31636,0.130909 0.14182,0 0.33818,0.01091 0.46909,0.02182 0.17455,0.02182 0.24,0.05454 0.24,0.174545 0,0.04364 -0.0109,0.07636 -0.0436,0.207273 l -1.38546,5.552726 c -0.10909,0.436363 -0.29454,0.785454 -1.17818,0.818181 -0.0545,0 -0.19636,0.01091 -0.19636,0.207273 0,0.09818 0.0654,0.130909 0.15272,0.130909 0.34909,0 0.73091,-0.03273 1.09091,-0.03273 0.37091,0 0.76364,0.03273 1.12364,0.03273 0.0545,0 0.19636,0 0.19636,-0.218182 0,-0.12 -0.12,-0.12 -0.19636,-0.12 -0.62182,-0.01091 -0.74182,-0.229091 -0.74182,-0.48 0,-0.07636 0.0109,-0.130909 0.0436,-0.250909 l 1.48363,-5.945452 h 0.0109 l 0.93818,6.763634 c 0.0218,0.130909 0.0327,0.250909 0.16364,0.250909 0.12,0 0.18545,-0.12 0.24,-0.196364 l 4.40727,-6.905452 h 0.0109 l -1.56,6.250907 c -0.10909,0.425455 -0.13091,0.512727 -0.99273,0.512727 -0.18545,0 -0.30545,0 -0.30545,0.207273 0,0.130909 0.13091,0.130909 0.16364,0.130909 0.30545,0 1.04727,-0.03273 1.35272,-0.03273 0.44727,0 0.91637,0.03273 1.36364,0.03273 0.0654,0 0.20727,0 0.20727,-0.218182 0,-0.12 -0.0982,-0.12 -0.30545,-0.12 -0.40364,0 -0.70909,0 -0.70909,-0.196363 0,-0.04364 0,-0.06546 0.0545,-0.261818 z" />
          <path
             id="use30"
             d="m 329.32955,72.691713 c 0.0982,-0.392727 0.12,-0.501818 0.91637,-0.501818 0.28363,0 0.37091,0 0.37091,-0.218182 0,-0.12 -0.12,-0.12 -0.15273,-0.12 -0.30545,0 -1.09091,0.03273 -1.39636,0.03273 -0.31637,0 -1.09091,-0.03273 -1.40728,-0.03273 -0.0873,0 -0.20727,0 -0.20727,0.218182 0,0.12 0.0982,0.12 0.30546,0.12 0.0218,0 0.22909,0 0.41454,0.02182 0.19636,0.02182 0.29455,0.03273 0.29455,0.174545 0,0.04364 -0.0109,0.06546 -0.0436,0.207273 l -0.65455,2.661817 h -3.32727 l 0.64364,-2.563635 c 0.0982,-0.392727 0.13091,-0.501818 0.91636,-0.501818 0.28364,0 0.37091,0 0.37091,-0.218182 0,-0.12 -0.12,-0.12 -0.15273,-0.12 -0.30545,0 -1.0909,0.03273 -1.39636,0.03273 -0.31636,0 -1.09091,-0.03273 -1.40727,-0.03273 -0.0873,0 -0.20727,0 -0.20727,0.218182 0,0.12 0.0982,0.12 0.30545,0.12 0.0218,0 0.22909,0 0.41455,0.02182 0.19636,0.02182 0.29454,0.03273 0.29454,0.174545 0,0.04364 -0.0109,0.07636 -0.0436,0.207273 l -1.46182,5.85818 c -0.10909,0.425455 -0.13091,0.512727 -0.99273,0.512727 -0.19636,0 -0.29455,0 -0.29455,0.218182 0,0.12 0.13091,0.12 0.15273,0.12 0.30546,0 1.08,-0.03273 1.38546,-0.03273 0.22909,0 0.46909,0.01091 0.69818,0.01091 0.24,0 0.48,0.02182 0.70909,0.02182 0.0873,0 0.21818,0 0.21818,-0.218182 0,-0.12 -0.0982,-0.12 -0.30545,-0.12 -0.40364,0 -0.70909,0 -0.70909,-0.196363 0,-0.06546 0.0218,-0.12 0.0327,-0.185455 l 0.74182,-2.98909 h 3.32727 c -0.45818,1.810909 -0.70909,2.847272 -0.75272,3.010908 -0.1091,0.349091 -0.31637,0.36 -0.99273,0.36 -0.16364,0 -0.26182,0 -0.26182,0.218182 0,0.12 0.13091,0.12 0.15273,0.12 0.30545,0 1.08,-0.03273 1.38545,-0.03273 0.22909,0 0.46909,0.01091 0.69818,0.01091 0.24,0 0.48,0.02182 0.70909,0.02182 0.0873,0 0.21819,0 0.21819,-0.218182 0,-0.12 -0.0982,-0.12 -0.30546,-0.12 -0.40364,0 -0.70909,0 -0.70909,-0.196363 0,-0.06546 0.0218,-0.12 0.0327,-0.185455 z" />
          <path
             id="use31"
             d="m 332.41136,78.397166 c 0.58909,-0.632727 0.90545,-0.905455 1.29818,-1.243636 0,-0.01091 0.67636,-0.589091 1.06909,-0.981818 1.03636,-1.014545 1.27636,-1.538182 1.27636,-1.581818 0,-0.109091 -0.0982,-0.109091 -0.12,-0.109091 -0.0764,0 -0.10909,0.02182 -0.16363,0.12 -0.32728,0.523636 -0.55637,0.698182 -0.81818,0.698182 -0.26182,0 -0.39273,-0.163637 -0.55637,-0.349091 -0.20727,-0.250909 -0.39272,-0.469091 -0.75272,-0.469091 -0.81819,0 -1.32,1.014545 -1.32,1.243636 0,0.05455 0.0327,0.12 0.1309,0.12 0.0982,0 0.12,-0.05454 0.14182,-0.12 0.20728,-0.501818 0.84,-0.512727 0.92728,-0.512727 0.22909,0 0.43636,0.07636 0.68727,0.163636 0.43636,0.163637 0.55636,0.163637 0.84,0.163637 -0.39273,0.46909 -1.30909,1.254545 -1.51637,1.42909 l -0.98181,0.916364 c -0.74182,0.730908 -1.12364,1.352726 -1.12364,1.42909 0,0.109091 0.10909,0.109091 0.13091,0.109091 0.0873,0 0.10909,-0.02182 0.17454,-0.141818 0.25091,-0.381818 0.57819,-0.676364 0.92728,-0.676364 0.25091,0 0.36,0.09818 0.63272,0.414546 0.18546,0.229091 0.38182,0.403636 0.69819,0.403636 1.08,0 1.71272,-1.385454 1.71272,-1.68 0,-0.05455 -0.0436,-0.10909 -0.13091,-0.10909 -0.0982,0 -0.12,0.06545 -0.15272,0.141818 -0.25091,0.70909 -0.94909,0.916363 -1.30909,0.916363 -0.21819,0 -0.41455,-0.06545 -0.64364,-0.141818 -0.37091,-0.141818 -0.53455,-0.185455 -0.76364,-0.185455 -0.0218,0 -0.19636,0 -0.29454,0.03273 z" />
        </g>
      </g>
    </g>
    <g
       id="g1"
       transform="matrix(0.26458333,0,0,0.26458333,63.764583,156.10417)" />
    <text
       xml:space="preserve"
       style="font-size:3.175px;writing-mode:lr-tb;direction:ltr;fill:#ff0000;fill-opacity:1;stroke:none;stroke-width:0.335;stroke-dasharray:none;stroke-dashoffset:0;stroke-opacity:1"
       x="152.69684"
       y="140.75183"
       id="text4"><tspan
         sodipodi:role="line"
         id="tspan4"
         style="fill:#ff0000;stroke:none;stroke-width:0.335"
         x="152.69684"
         y="140.75183">Red master</tspan></text>
    <g
       id="page1-0"
       transform="matrix(0.39863888,0,0,0.39863888,-24.922027,71.994454)">
      <g
         fill="#0000ff"
         id="g9">
        <path
           id="use1-2"
           d="m 210.39375,78.46262 1.15637,-1.123636 c 1.70182,-1.505454 2.35636,-2.094545 2.35636,-3.185453 0,-1.243636 -0.98182,-2.116364 -2.31273,-2.116364 -1.23272,0 -2.04,1.003637 -2.04,1.974545 0,0.610909 0.54546,0.610909 0.57819,0.610909 0.18545,0 0.56727,-0.130909 0.56727,-0.578181 0,-0.283637 -0.19636,-0.567273 -0.57818,-0.567273 -0.0873,0 -0.10909,0 -0.14182,0.01091 0.25091,-0.709091 0.84,-1.112727 1.47273,-1.112727 0.99272,0 1.46181,0.883636 1.46181,1.778182 0,0.872727 -0.54545,1.734544 -1.14545,2.410908 l -2.09455,2.334545 c -0.12,0.12 -0.12,0.141818 -0.12,0.403636 h 4.04728 l 0.30545,-1.898181 h -0.27273 c -0.0545,0.327272 -0.13091,0.807272 -0.24,0.970909 -0.0764,0.08727 -0.79636,0.08727 -1.03636,0.08727 z" />
        <path
           id="use2-7"
           d="m 221.1307,76.269894 -2.18181,-2.170909 c -0.13091,-0.130909 -0.15273,-0.152727 -0.24,-0.152727 -0.10909,0 -0.21818,0.09818 -0.21818,0.218182 0,0.07636 0.0218,0.09818 0.14181,0.218181 l 2.18182,2.192727 -2.18182,2.192727 c -0.12,0.12 -0.14181,0.141818 -0.14181,0.218181 0,0.12 0.10909,0.218182 0.21818,0.218182 0.0873,0 0.10909,-0.02182 0.24,-0.152727 l 2.17091,-2.170909 2.25818,2.258182 c 0.0218,0.01091 0.0982,0.06545 0.16363,0.06545 0.13091,0 0.21818,-0.09818 0.21818,-0.218182 0,-0.02182 0,-0.06545 -0.0327,-0.12 -0.0109,-0.02182 -1.74546,-1.734544 -2.29091,-2.290908 l 1.99636,-1.996363 c 0.0545,-0.06546 0.21818,-0.207273 0.27273,-0.272727 0.0109,-0.02182 0.0545,-0.06546 0.0545,-0.141818 0,-0.12 -0.0873,-0.218182 -0.21818,-0.218182 -0.0873,0 -0.13091,0.04364 -0.25091,0.163636 z" />
        <path
           id="use3-9"
           d="m 231.79978,74.938985 h 0.93818 c 0.21818,0 0.32727,0 0.32727,-0.218182 0,-0.12 -0.10909,-0.12 -0.29454,-0.12 h -0.90546 l 0.22909,-1.243636 c 0.0436,-0.229091 0.19637,-1.003636 0.26182,-1.134545 0.0982,-0.207273 0.28364,-0.370909 0.51273,-0.370909 0.0436,0 0.32727,0 0.53454,0.196364 -0.48,0.04364 -0.58909,0.425454 -0.58909,0.58909 0,0.250909 0.19637,0.381818 0.40364,0.381818 0.28364,0 0.6,-0.24 0.6,-0.654545 0,-0.501818 -0.50182,-0.752727 -0.94909,-0.752727 -0.37091,0 -1.05818,0.196364 -1.38546,1.276363 -0.0654,0.229091 -0.0982,0.338182 -0.36,1.712727 h -0.75272 c -0.20728,0 -0.32728,0 -0.32728,0.207273 0,0.130909 0.0982,0.130909 0.30546,0.130909 h 0.72 l -0.81818,4.30909 c -0.19637,1.058181 -0.38182,2.050908 -0.94909,2.050908 -0.0436,0 -0.31637,0 -0.52364,-0.196364 0.50182,-0.03273 0.6,-0.425454 0.6,-0.58909 0,-0.250909 -0.19636,-0.381818 -0.40364,-0.381818 -0.28363,0 -0.6,0.24 -0.6,0.654545 0,0.490909 0.48,0.752727 0.92728,0.752727 0.6,0 1.03636,-0.643636 1.23272,-1.058182 0.34909,-0.687272 0.6,-2.007272 0.61091,-2.083635 z" />
        <path
           id="use4-1"
           d="m 236.34902,78.083103 c -0.18331,0.03188 -0.35068,0.175342 -0.35068,0.374595 0,0.143462 0.0956,0.247074 0.27098,0.247074 0.11956,0 0.36663,-0.08767 0.36663,-0.446327 0,-0.494147 -0.51806,-0.693399 -1.01221,-0.693399 -1.06799,0 -1.40274,0.75716 -1.40274,1.163636 0,0.0797 0,0.366625 0.2949,0.589788 0.18331,0.143462 0.3188,0.167373 0.73325,0.247074 0.27895,0.05579 0.73325,0.135492 0.73325,0.549937 0,0.207223 -0.15143,0.470237 -0.3746,0.621669 -0.29489,0.191283 -0.68543,0.199253 -0.81295,0.199253 -0.19128,0 -0.73325,-0.03188 -0.9325,-0.350685 0.40648,-0.01594 0.46227,-0.342715 0.46227,-0.438356 0,-0.239103 -0.2152,-0.294894 -0.31084,-0.294894 -0.12752,0 -0.45429,0.09564 -0.45429,0.533997 0,0.470237 0.49414,0.773101 1.23536,0.773101 1.3868,0 1.6817,-0.980324 1.6817,-1.315068 0,-0.71731 -0.78107,-0.868743 -1.07597,-0.924533 -0.38256,-0.07173 -0.6934,-0.127522 -0.6934,-0.462267 0,-0.143462 0.13549,-0.669489 0.90859,-0.669489 0.30287,0 0.6137,0.08767 0.73325,0.294894 z" />
        <path
           id="use5-6"
           d="m 239.14116,75.787711 c 0.008,-0.01594 0.0319,-0.119552 0.0319,-0.127522 0,-0.03985 -0.0319,-0.111582 -0.12752,-0.111582 l -0.80498,0.06376 c -0.29489,0.02391 -0.35865,0.03188 -0.35865,0.175343 0,0.111581 0.11158,0.111581 0.20722,0.111581 0.38256,0 0.38256,0.04782 0.38256,0.119552 0,0.02391 0,0.03985 -0.0399,0.183312 l -0.98829,3.953176 c -0.0319,0.127522 -0.0319,0.247073 -0.0319,0.255044 0,0.494147 0.40647,0.74919 0.80498,0.74919 0.34271,0 0.52603,-0.270984 0.6137,-0.446326 0.14346,-0.263014 0.26301,-0.73325 0.26301,-0.773101 0,-0.04782 -0.0239,-0.103611 -0.12752,-0.103611 -0.0717,0 -0.0956,0.03985 -0.0956,0.04782 -0.0159,0.02391 -0.0558,0.167373 -0.0797,0.255044 -0.11955,0.462266 -0.27099,0.797011 -0.55791,0.797011 -0.19128,0 -0.24707,-0.183313 -0.24707,-0.374595 0,-0.151432 0.0239,-0.239104 0.0478,-0.342715 z" />
        <path
           id="use6-7"
           d="m 242.79941,78.043252 c -0.0717,-0.135492 -0.30286,-0.478206 -0.78904,-0.478206 -0.94844,0 -1.99253,1.107845 -1.99253,2.287422 0,0.828891 0.534,1.307098 1.1477,1.307098 0.51008,0 0.94844,-0.406476 1.0919,-0.565878 0.14346,0.549938 0.68543,0.565878 0.78107,0.565878 0.36663,0 0.54994,-0.302864 0.6137,-0.438356 0.1594,-0.286924 0.27099,-0.749191 0.27099,-0.781071 0,-0.04782 -0.0319,-0.103611 -0.12753,-0.103611 -0.0956,0 -0.11158,0.04782 -0.1594,0.247073 -0.11158,0.438356 -0.26301,0.852802 -0.57385,0.852802 -0.18331,0 -0.25504,-0.151432 -0.25504,-0.374595 0,-0.135492 0.0717,-0.406476 0.11955,-0.605729 0.0478,-0.199253 0.16737,-0.677459 0.19925,-0.820921 l 0.15941,-0.605729 c 0.0398,-0.191283 0.12752,-0.526027 0.12752,-0.565878 0,-0.183312 -0.15143,-0.247073 -0.25505,-0.247073 -0.11955,0 -0.3188,0.0797 -0.35865,0.326774 z m -0.54197,2.175841 c -0.3985,0.549938 -0.81295,0.71731 -1.06799,0.71731 -0.36663,0 -0.54994,-0.334745 -0.54994,-0.749191 0,-0.374595 0.21519,-1.227397 0.39053,-1.578082 0.23114,-0.486177 0.62167,-0.820921 0.9883,-0.820921 0.51806,0 0.66949,0.581818 0.66949,0.677459 0,0.03188 -0.19925,0.812952 -0.24708,1.020175 -0.10361,0.374595 -0.10361,0.390535 -0.18331,0.73325 z" />
        <path
           id="use7-1"
           d="m 248.13427,78.178744 c 0,-0.621669 -0.35865,-0.621669 -0.39053,-0.621669 -0.19129,0 -0.41445,0.207223 -0.41445,0.414446 0,0.127522 0.0638,0.183313 0.13549,0.247074 0.18332,0.159402 0.2949,0.382565 0.2949,0.637609 0,0.366625 -0.52603,2.080199 -1.44259,2.080199 -0.34272,0 -0.62167,-0.183313 -0.62167,-0.68543 0,-0.438356 0.2391,-1.067995 0.43038,-1.546201 0.0957,-0.255044 0.11956,-0.318805 0.11956,-0.462267 0,-0.430386 -0.35069,-0.677459 -0.71731,-0.677459 -0.78905,0 -1.11582,1.123785 -1.11582,1.219427 0,0.07173 0.0558,0.103611 0.11955,0.103611 0.10361,0 0.11158,-0.04782 0.13549,-0.127522 0.20723,-0.693399 0.54994,-0.972353 0.83687,-0.972353 0.11955,0 0.19128,0.07173 0.19128,0.263013 0,0.183313 -0.0717,0.366626 -0.15143,0.565878 -0.39054,1.004234 -0.42242,1.267248 -0.42242,1.514322 0,0.868742 0.70934,1.028144 1.16364,1.028144 1.32303,0 1.84906,-2.375093 1.84906,-2.980822 z" />
        <path
           id="use8-8"
           d="m 250.18456,79.262679 c 0.17534,0 0.7731,-0.008 1.19551,-0.159402 0.6934,-0.239103 0.71731,-0.71731 0.71731,-0.836862 0,-0.446326 -0.42241,-0.701369 -0.94047,-0.701369 -0.90062,0 -2.18381,0.70934 -2.18381,2.120049 0,0.812952 0.49415,1.474471 1.37086,1.474471 1.24334,0 1.91283,-0.797011 1.91283,-0.908593 0,-0.07173 -0.0797,-0.127521 -0.12752,-0.127521 -0.0478,0 -0.0717,0.02391 -0.11159,0.07173 -0.62964,0.74122 -1.52229,0.74122 -1.65778,0.74122 -0.58182,0 -0.75716,-0.494147 -0.75716,-0.940473 0,-0.239104 0.0717,-0.597759 0.10361,-0.733251 z m -0.41445,-0.223163 c 0.25505,-0.972353 0.98033,-1.251307 1.3868,-1.251307 0.31881,0 0.62167,0.159402 0.62167,0.478206 0,0.773101 -1.3071,0.773101 -1.64184,0.773101 z" />
        <path
           id="use9-5"
           d="m 255.01357,76.002904 c 0,-0.215193 -0.0159,-0.223164 -0.23113,-0.223164 -0.32678,0.318805 -0.74919,0.510088 -1.50635,0.510088 v 0.263013 c 0.21519,0 0.64558,0 1.10784,-0.215193 v 4.088668 c 0,0.294894 -0.0239,0.390535 -0.78107,0.390535 h -0.27895 v 0.263014 c 0.32677,-0.02391 1.0122,-0.02391 1.37086,-0.02391 0.35865,0 1.05205,0 1.37883,0.02391 v -0.263014 h -0.27896 c -0.75716,0 -0.78107,-0.09564 -0.78107,-0.390535 z" />
      </g>
    </g>
    <g
       id="page1-02"
       transform="matrix(0.39863888,0,0,0.39863888,2.8203541,72.528786)">
      <g
         fill="#0000ff"
         id="g8">
        <path
           id="use1-3"
           d="m 215.29062,76.79353 c 0.18545,0 0.38182,0 0.38182,-0.218182 0,-0.218182 -0.19637,-0.218182 -0.38182,-0.218182 h -5.90182 c -0.18545,0 -0.38181,0 -0.38181,0.218182 0,0.218182 0.19636,0.218182 0.38181,0.218182 z" />
        <path
           id="use2-2"
           d="m 217.97186,78.46262 1.15637,-1.123636 c 1.70182,-1.505454 2.35636,-2.094545 2.35636,-3.185453 0,-1.243636 -0.98182,-2.116364 -2.31273,-2.116364 -1.23272,0 -2.04,1.003637 -2.04,1.974545 0,0.610909 0.54546,0.610909 0.57819,0.610909 0.18545,0 0.56727,-0.130909 0.56727,-0.578181 0,-0.283637 -0.19636,-0.567273 -0.57818,-0.567273 -0.0873,0 -0.10909,0 -0.14182,0.01091 0.25091,-0.709091 0.84,-1.112727 1.47273,-1.112727 0.99272,0 1.46181,0.883636 1.46181,1.778182 0,0.872727 -0.54545,1.734544 -1.14545,2.410908 l -2.09455,2.334545 c -0.12,0.12 -0.12,0.141818 -0.12,0.403636 h 4.04728 l 0.30545,-1.898181 h -0.27273 c -0.0545,0.327272 -0.13091,0.807272 -0.24,0.970909 -0.0764,0.08727 -0.79636,0.08727 -1.03636,0.08727 z" />
        <path
           id="use3-93"
           d="m 228.7088,76.269894 -2.18182,-2.170909 c -0.13091,-0.130909 -0.15273,-0.152727 -0.24,-0.152727 -0.10909,0 -0.21818,0.09818 -0.21818,0.218182 0,0.07636 0.0218,0.09818 0.14182,0.218181 l 2.18182,2.192727 -2.18182,2.192727 c -0.12,0.12 -0.14182,0.141818 -0.14182,0.218181 0,0.12 0.10909,0.218182 0.21818,0.218182 0.0873,0 0.10909,-0.02182 0.24,-0.152727 l 2.17091,-2.170909 2.25818,2.258182 c 0.0218,0.01091 0.0982,0.06545 0.16364,0.06545 0.13091,0 0.21818,-0.09818 0.21818,-0.218182 0,-0.02182 0,-0.06545 -0.0327,-0.12 -0.0109,-0.02182 -1.74545,-1.734544 -2.29091,-2.290908 l 1.99637,-1.996363 c 0.0545,-0.06546 0.21818,-0.207273 0.27272,-0.272727 0.0109,-0.02182 0.0545,-0.06546 0.0545,-0.141818 0,-0.12 -0.0873,-0.218182 -0.21818,-0.218182 -0.0873,0 -0.13091,0.04364 -0.25091,0.163636 z" />
        <path
           id="use4-8"
           d="m 239.37787,74.938985 h 0.93818 c 0.21819,0 0.32728,0 0.32728,-0.218182 0,-0.12 -0.10909,-0.12 -0.29455,-0.12 h -0.90545 l 0.22909,-1.243636 c 0.0436,-0.229091 0.19636,-1.003636 0.26182,-1.134545 0.0982,-0.207273 0.28363,-0.370909 0.51272,-0.370909 0.0436,0 0.32728,0 0.53455,0.196364 -0.48,0.04364 -0.58909,0.425454 -0.58909,0.58909 0,0.250909 0.19636,0.381818 0.40363,0.381818 0.28364,0 0.6,-0.24 0.6,-0.654545 0,-0.501818 -0.50181,-0.752727 -0.94909,-0.752727 -0.37091,0 -1.05818,0.196364 -1.38545,1.276363 -0.0655,0.229091 -0.0982,0.338182 -0.36,1.712727 h -0.75273 c -0.20727,0 -0.32727,0 -0.32727,0.207273 0,0.130909 0.0982,0.130909 0.30545,0.130909 h 0.72 l -0.81818,4.30909 c -0.19636,1.058181 -0.38182,2.050908 -0.94909,2.050908 -0.0436,0 -0.31636,0 -0.52363,-0.196364 0.50181,-0.03273 0.6,-0.425454 0.6,-0.58909 0,-0.250909 -0.19637,-0.381818 -0.40364,-0.381818 -0.28364,0 -0.6,0.24 -0.6,0.654545 0,0.490909 0.48,0.752727 0.92727,0.752727 0.6,0 1.03636,-0.643636 1.23273,-1.058182 0.34909,-0.687272 0.6,-2.007272 0.61091,-2.083635 z" />
        <path
           id="use5-3"
           d="m 243.21779,76.445683 c 0,-0.215193 -0.0159,-0.223164 -0.23113,-0.223164 -0.32677,0.318805 -0.74919,0.510088 -1.50635,0.510088 v 0.263013 c 0.21519,0 0.64558,0 1.10785,-0.215193 v 4.088668 c 0,0.294894 -0.0239,0.390535 -0.78108,0.390535 h -0.27895 v 0.263014 c 0.32678,-0.02391 1.01221,-0.02391 1.37086,-0.02391 0.35866,0 1.05206,0 1.37883,0.02391 V 81.25963 h -0.27895 c -0.75716,0 -0.78108,-0.09564 -0.78108,-0.390535 z" />
        <path
           id="use6-8"
           d="m 247.45197,76.445683 c 0,-0.215193 -0.0159,-0.223164 -0.23113,-0.223164 -0.32678,0.318805 -0.74919,0.510088 -1.50635,0.510088 v 0.263013 c 0.21519,0 0.64558,0 1.10784,-0.215193 v 4.088668 c 0,0.294894 -0.0239,0.390535 -0.78107,0.390535 h -0.27895 v 0.263014 c 0.32677,-0.02391 1.0122,-0.02391 1.37086,-0.02391 0.35865,0 1.05205,0 1.37883,0.02391 V 81.25963 h -0.27896 c -0.75716,0 -0.78107,-0.09564 -0.78107,-0.390535 z" />
        <path
           id="use7-7"
           d="m 252.88965,75.879805 c 0.0478,-0.111582 0.0478,-0.127522 0.0478,-0.151432 0,-0.103612 -0.0797,-0.183313 -0.18331,-0.183313 -0.12752,0 -0.1594,0.09564 -0.19128,0.175342 l -2.86128,7.460025 c -0.0478,0.111582 -0.0478,0.127522 -0.0478,0.151432 0,0.103612 0.0797,0.183313 0.18332,0.183313 0.12752,0 0.1594,-0.09564 0.19128,-0.175342 z" />
        <path
           id="use8-0"
           d="m 255.6653,79.896741 c 0.12752,-0.119552 0.46226,-0.382565 0.58978,-0.494147 0.49415,-0.454296 0.96439,-0.892652 0.96439,-1.617933 0,-0.948443 -0.79701,-1.562142 -1.79328,-1.562142 -0.95641,0 -1.58605,0.725281 -1.58605,1.434621 0,0.390535 0.31083,0.446326 0.42242,0.446326 0.16737,0 0.41444,-0.119552 0.41444,-0.422416 0,-0.414446 -0.3985,-0.414446 -0.49414,-0.414446 0.23113,-0.581818 0.76513,-0.781071 1.15566,-0.781071 0.74122,0 1.12379,0.629639 1.12379,1.299128 0,0.828892 -0.58182,1.434621 -1.52229,2.399004 l -1.00424,1.036115 c -0.0956,0.08767 -0.0956,0.103611 -0.0956,0.302864 h 3.14819 l 0.23114,-1.42665 h -0.24708 c -0.0239,0.159402 -0.0877,0.557908 -0.18331,0.70934 -0.0478,0.06376 -0.65355,0.06376 -0.78107,0.06376 h -1.41868 z" />
      </g>
    </g>
    <g
       id="page1-6"
       transform="matrix(0.39863888,0,0,0.39863888,68.140575,169.91863)">
      <path
         id="use1-38"
         d="m 200.44901,71.921137 c 0.44633,-0.215193 0.98829,-0.613699 0.98829,-1.235368 0,-0.75716 -0.7731,-1.187547 -1.51432,-1.187547 -0.84483,0 -1.53026,0.581819 -1.53026,1.331009 0,0.294894 0.10361,0.565878 0.30287,0.797011 0.13549,0.167373 0.16737,0.183313 0.66151,0.494147 -0.98829,0.438357 -1.20348,1.020175 -1.20348,1.466501 0,0.876712 0.88468,1.378829 1.75342,1.378829 0.98033,0 1.76937,-0.661519 1.76937,-1.506351 0,-0.502117 -0.27099,-0.836862 -0.39851,-0.972354 -0.13549,-0.127521 -0.14346,-0.135491 -0.82889,-0.565877 z m -1.23537,-0.749191 c -0.23113,-0.135492 -0.42241,-0.366625 -0.42241,-0.645579 0,-0.502117 0.54993,-0.820922 1.11581,-0.820922 0.62167,0 1.13176,0.422416 1.13176,0.980324 0,0.462267 -0.35866,0.852802 -0.82889,1.083935 z m 0.39054,1.091905 c 0.0319,0.01594 0.94047,0.573848 1.07596,0.66152 0.12752,0.07173 0.54197,0.326774 0.54197,0.804981 0,0.613699 -0.64558,0.996264 -1.29913,0.996264 -0.70934,0 -1.31507,-0.486177 -1.31507,-1.139726 0,-0.597758 0.44633,-1.067995 0.99627,-1.323039 z" />
      <path
         id="use2-4"
         d="m 206.06999,69.944549 c 0.0717,-0.08767 0.0717,-0.103612 0.0717,-0.278954 h -2.02441 c -0.19925,0 -0.44633,-0.008 -0.64558,-0.02391 -0.41445,-0.03188 -0.42242,-0.103611 -0.44633,-0.231133 h -0.24707 l -0.27098,1.681694 h 0.24707 c 0.0159,-0.119552 0.10361,-0.66949 0.21519,-0.73325 0.0877,-0.03985 0.68543,-0.03985 0.80498,-0.03985 h 1.68967 l -0.82092,1.099875 c -0.9086,1.211458 -1.09988,2.470735 -1.09988,3.100374 0,0.0797 0,0.446326 0.3746,0.446326 0.37459,0 0.37459,-0.358655 0.37459,-0.454296 V 74.12886 c 0,-1.147697 0.19128,-2.08817 0.58182,-2.606227 z" />
      <path
         id="use3-7"
         d="m 213.80579,71.720804 c 0,-0.03273 -0.0218,-0.109091 -0.12,-0.109091 -0.0546,0 -0.0655,0.01091 -0.19637,0.163636 l -0.52363,0.621818 c -0.28364,-0.512727 -0.85091,-0.785454 -1.56,-0.785454 -1.38546,0 -2.69455,1.254545 -2.69455,2.574545 0,0.883636 0.57818,1.385454 1.13455,1.54909 l 1.16727,0.305455 c 0.40364,0.09818 1.00364,0.261818 1.00364,1.156363 0,0.981818 -0.89455,2.007272 -1.96364,2.007272 -0.69818,0 -1.90909,-0.24 -1.90909,-1.592727 0,-0.261818 0.0546,-0.523636 0.0654,-0.58909 0.0109,-0.04364 0.0218,-0.05455 0.0218,-0.07636 0,-0.109091 -0.0764,-0.12 -0.13091,-0.12 -0.0545,0 -0.0764,0.01091 -0.10909,0.04364 -0.0436,0.04364 -0.65454,2.530909 -0.65454,2.563636 0,0.06546 0.0545,0.109091 0.12,0.109091 0.0545,0 0.0654,-0.01091 0.19636,-0.163636 l 0.53455,-0.621818 c 0.46909,0.632727 1.2109,0.785454 1.84363,0.785454 1.48364,0 2.77091,-1.450909 2.77091,-2.803636 0,-0.752727 -0.37091,-1.123636 -0.53455,-1.276363 -0.2509,-0.250909 -0.41454,-0.294545 -1.38545,-0.545454 -0.24,-0.06546 -0.63273,-0.174546 -0.73091,-0.196364 -0.29454,-0.09818 -0.66545,-0.414545 -0.66545,-0.992727 0,-0.883636 0.87272,-1.810908 1.90909,-1.810908 0.90545,0 1.57091,0.46909 1.57091,1.690908 0,0.349091 -0.0436,0.545455 -0.0436,0.610909 0,0.01091 0,0.109091 0.13091,0.109091 0.10909,0 0.12,-0.03273 0.16364,-0.218182 z" />
      <path
         id="use4-7"
         d="m 215.04762,78.658984 c -0.0327,0.163636 -0.0982,0.414545 -0.0982,0.469091 0,0.196363 0.15273,0.294545 0.31637,0.294545 0.13091,0 0.32727,-0.08727 0.40363,-0.305454 0.0218,-0.04364 0.39273,-1.527273 0.43637,-1.723636 0.0873,-0.36 0.28363,-1.123636 0.34909,-1.418182 0.0436,-0.141818 0.34909,-0.654545 0.61091,-0.894545 0.0873,-0.07636 0.40363,-0.36 0.87272,-0.36 0.28364,0 0.44728,0.130909 0.45819,0.130909 -0.32728,0.05455 -0.56728,0.316364 -0.56728,0.6 0,0.174545 0.12,0.381818 0.41455,0.381818 0.29454,0 0.6,-0.250909 0.6,-0.643636 0,-0.381818 -0.34909,-0.709091 -0.90546,-0.709091 -0.70909,0 -1.18909,0.534545 -1.39636,0.84 -0.0873,-0.490909 -0.48,-0.84 -0.99273,-0.84 -0.50181,0 -0.70909,0.425455 -0.80727,0.621818 -0.19636,0.370909 -0.33818,1.025454 -0.33818,1.058182 0,0.109091 0.10909,0.109091 0.13091,0.109091 0.10909,0 0.12,-0.01091 0.18545,-0.250909 0.18546,-0.774546 0.40364,-1.298182 0.79637,-1.298182 0.18545,0 0.33818,0.08727 0.33818,0.501818 0,0.229091 -0.0327,0.349091 -0.17455,0.916364 z" />
      <path
         id="use5-2"
         d="m 220.92086,79.291711 c 0,-0.72 -0.27273,-1.145454 -0.69818,-1.145454 -0.36,0 -0.57818,0.272727 -0.57818,0.578181 0,0.294546 0.21818,0.578182 0.57818,0.578182 0.13091,0 0.27272,-0.04364 0.38182,-0.141818 0.0327,-0.02182 0.0436,-0.03273 0.0545,-0.03273 0.0109,0 0.0218,0.01091 0.0218,0.163636 0,0.807272 -0.38182,1.461818 -0.74182,1.821818 -0.12,0.12 -0.12,0.141818 -0.12,0.174545 0,0.07636 0.0546,0.12 0.10909,0.12 0.12,0 0.99273,-0.84 0.99273,-2.116363 z" />
      <path
         id="use6-6"
         d="m 226.86023,75.757166 h 1.05818 c 0.81819,0 0.90546,0.174546 0.90546,0.490909 0,0.07636 0,0.207273 -0.0764,0.534546 -0.0218,0.05454 -0.0327,0.09818 -0.0327,0.12 0,0.08727 0.0654,0.130909 0.13091,0.130909 0.10909,0 0.10909,-0.03273 0.16363,-0.229091 l 0.6,-2.367272 c 0.0327,-0.12 0.0327,-0.141818 0.0327,-0.174546 0,-0.02182 -0.0218,-0.12 -0.13091,-0.12 -0.10909,0 -0.12,0.05455 -0.16363,0.229091 -0.2291,0.850909 -0.48,1.047273 -1.40728,1.047273 h -0.99272 l 0.69818,-2.770909 c 0.0982,-0.381818 0.10909,-0.425454 0.58909,-0.425454 h 1.44 c 1.34182,0 1.59272,0.36 1.59272,1.2 0,0.250909 0,0.294545 -0.0327,0.58909 -0.0218,0.141819 -0.0218,0.163637 -0.0218,0.196364 0,0.05454 0.0327,0.130909 0.13091,0.130909 0.12,0 0.13091,-0.06546 0.15273,-0.272727 l 0.21818,-1.887272 c 0.0327,-0.294546 -0.0218,-0.294546 -0.29455,-0.294546 h -5.34545 c -0.21818,0 -0.32727,0 -0.32727,0.218182 0,0.12 0.0982,0.12 0.30545,0.12 0.40364,0 0.70909,0 0.70909,0.196364 0,0.04364 0,0.06545 -0.0545,0.261818 l -1.44,5.770907 c -0.10909,0.425455 -0.13091,0.512727 -0.99273,0.512727 -0.18546,0 -0.30546,0 -0.30546,0.207273 0,0.130909 0.13091,0.130909 0.16364,0.130909 0.31636,0 1.12364,-0.03273 1.44,-0.03273 0.36,0 1.26545,0.03273 1.62545,0.03273 0.0982,0 0.2291,0 0.2291,-0.207273 0,-0.08727 -0.0655,-0.109091 -0.0655,-0.12 -0.0327,-0.01091 -0.0545,-0.01091 -0.30545,-0.01091 -0.24,0 -0.29455,0 -0.56728,-0.02182 -0.31636,-0.03273 -0.34909,-0.07636 -0.34909,-0.218182 0,-0.02182 0,-0.08727 0.0436,-0.250909 z" />
      <path
         id="use7-13"
         d="m 242.60988,75.735348 c 0.16364,0 0.37091,0 0.37091,-0.218181 0,-0.218181 -0.20727,-0.218182 -0.36,-0.218182 h -6.53454 c -0.15273,0 -0.36,0 -0.36,0.218182 0,0.218182 0.20727,0.218181 0.37091,0.218181 z m 0.0109,2.116363 c 0.15273,0 0.36,0 0.36,-0.218181 0,-0.218181 -0.20727,-0.218182 -0.37091,-0.218182 h -6.51272 c -0.16364,0 -0.37091,0 -0.37091,0.218182 0,0.218182 0.20727,0.218181 0.36,0.218181 z" />
      <path
         id="use8-07"
         d="m 249.83775,72.320804 c 0,-0.261818 0,-0.283637 -0.25091,-0.283637 -0.67636,0.698182 -1.63636,0.698182 -1.98545,0.698182 v 0.338182 c 0.21818,0 0.86181,0 1.42909,-0.283636 v 5.650907 c 0,0.392727 -0.0327,0.523636 -1.01455,0.523636 h -0.34909 v 0.338182 c 0.38182,-0.03273 1.33091,-0.03273 1.76727,-0.03273 0.43637,0 1.38546,0 1.76728,0.03273 v -0.338182 h -0.3491 c -0.98181,0 -1.01454,-0.12 -1.01454,-0.523636 z" />
      <path
         id="use9-4"
         d="m 255.29231,72.320804 c 0,-0.261818 0,-0.283637 -0.25091,-0.283637 -0.67636,0.698182 -1.63636,0.698182 -1.98545,0.698182 v 0.338182 c 0.21818,0 0.86181,0 1.42909,-0.283636 v 5.650907 c 0,0.392727 -0.0327,0.523636 -1.01455,0.523636 h -0.34909 v 0.338182 c 0.38182,-0.03273 1.33091,-0.03273 1.76727,-0.03273 0.43637,0 1.38546,0 1.76728,0.03273 v -0.338182 h -0.3491 c -0.98181,0 -1.01454,-0.12 -1.01454,-0.523636 z" />
      <path
         id="use10-1"
         d="m 262.3287,71.535349 c 0.0545,-0.141818 0.0545,-0.185454 0.0545,-0.196363 0,-0.12 -0.0982,-0.218182 -0.21819,-0.218182 -0.0764,0 -0.15272,0.03273 -0.18545,0.09818 l -3.78545,10.396361 c -0.0546,0.141818 -0.0546,0.185454 -0.0546,0.196363 0,0.12 0.0982,0.218182 0.21818,0.218182 0.14182,0 0.17455,-0.07636 0.24,-0.261818 z" />
      <path
         id="use11-5"
         d="m 264.37963,78.46262 1.15636,-1.123636 c 1.70182,-1.505454 2.35636,-2.094545 2.35636,-3.185453 0,-1.243636 -0.98182,-2.116364 -2.31272,-2.116364 -1.23273,0 -2.04,1.003637 -2.04,1.974545 0,0.610909 0.54545,0.610909 0.57818,0.610909 0.18545,0 0.56727,-0.130909 0.56727,-0.578181 0,-0.283637 -0.19636,-0.567273 -0.57818,-0.567273 -0.0873,0 -0.10909,0 -0.14182,0.01091 0.25091,-0.709091 0.84,-1.112727 1.47273,-1.112727 0.99272,0 1.46181,0.883636 1.46181,1.778182 0,0.872727 -0.54545,1.734544 -1.14545,2.410908 l -2.09454,2.334545 c -0.12,0.12 -0.12,0.141818 -0.12,0.403636 h 4.04727 l 0.30545,-1.898181 h -0.27273 c -0.0545,0.327272 -0.1309,0.807272 -0.24,0.970909 -0.0764,0.08727 -0.79636,0.08727 -1.03636,0.08727 z" />
    </g>
    <g
       id="page1-05"
       transform="matrix(0.39863888,0,0,0.39863888,68.16135,94.628375)">
      <path
         id="use1-23"
         d="m 214.66175,71.921137 c 0.44632,-0.215193 0.98829,-0.613699 0.98829,-1.235368 0,-0.75716 -0.7731,-1.187547 -1.51432,-1.187547 -0.84483,0 -1.53026,0.581819 -1.53026,1.331009 0,0.294894 0.10361,0.565878 0.30286,0.797011 0.13549,0.167373 0.16738,0.183313 0.66152,0.494147 -0.98829,0.438357 -1.20348,1.020175 -1.20348,1.466501 0,0.876712 0.88468,1.378829 1.75342,1.378829 0.98032,0 1.76936,-0.661519 1.76936,-1.506351 0,-0.502117 -0.27098,-0.836862 -0.3985,-0.972354 -0.13549,-0.127521 -0.14346,-0.135491 -0.82889,-0.565877 z m -1.23537,-0.749191 c -0.23113,-0.135492 -0.42242,-0.366625 -0.42242,-0.645579 0,-0.502117 0.54994,-0.820922 1.11582,-0.820922 0.62167,0 1.13176,0.422416 1.13176,0.980324 0,0.462267 -0.35866,0.852802 -0.8289,1.083935 z m 0.39054,1.091905 c 0.0319,0.01594 0.94047,0.573848 1.07596,0.66152 0.12752,0.07173 0.54197,0.326774 0.54197,0.804981 0,0.613699 -0.64558,0.996264 -1.29913,0.996264 -0.70934,0 -1.31507,-0.486177 -1.31507,-1.139726 0,-0.597758 0.44633,-1.067995 0.99627,-1.323039 z" />
      <path
         id="use2-5"
         d="m 218.89592,71.921137 c 0.44633,-0.215193 0.9883,-0.613699 0.9883,-1.235368 0,-0.75716 -0.7731,-1.187547 -1.51432,-1.187547 -0.84483,0 -1.53026,0.581819 -1.53026,1.331009 0,0.294894 0.10361,0.565878 0.30286,0.797011 0.13549,0.167373 0.16737,0.183313 0.66152,0.494147 -0.98829,0.438357 -1.20349,1.020175 -1.20349,1.466501 0,0.876712 0.88468,1.378829 1.75343,1.378829 0.98032,0 1.76936,-0.661519 1.76936,-1.506351 0,-0.502117 -0.27098,-0.836862 -0.3985,-0.972354 -0.1355,-0.127521 -0.14347,-0.135491 -0.8289,-0.565877 z m -1.23536,-0.749191 c -0.23114,-0.135492 -0.42242,-0.366625 -0.42242,-0.645579 0,-0.502117 0.54994,-0.820922 1.11582,-0.820922 0.62167,0 1.13175,0.422416 1.13175,0.980324 0,0.462267 -0.35865,0.852802 -0.82889,1.083935 z m 0.39053,1.091905 c 0.0319,0.01594 0.94048,0.573848 1.07597,0.66152 0.12752,0.07173 0.54197,0.326774 0.54197,0.804981 0,0.613699 -0.64558,0.996264 -1.29913,0.996264 -0.70934,0 -1.31507,-0.486177 -1.31507,-1.139726 0,-0.597758 0.44633,-1.067995 0.99626,-1.323039 z" />
      <path
         id="use3-75"
         d="m 228.01852,71.720804 c 0,-0.03273 -0.0218,-0.109091 -0.12,-0.109091 -0.0545,0 -0.0654,0.01091 -0.19636,0.163636 l -0.52364,0.621818 c -0.28363,-0.512727 -0.8509,-0.785454 -1.56,-0.785454 -1.38545,0 -2.69454,1.254545 -2.69454,2.574545 0,0.883636 0.57818,1.385454 1.13455,1.54909 l 1.16727,0.305455 c 0.40363,0.09818 1.00363,0.261818 1.00363,1.156363 0,0.981818 -0.89454,2.007272 -1.96363,2.007272 -0.69818,0 -1.90909,-0.24 -1.90909,-1.592727 0,-0.261818 0.0545,-0.523636 0.0654,-0.58909 0.0109,-0.04364 0.0218,-0.05455 0.0218,-0.07636 0,-0.109091 -0.0764,-0.12 -0.13091,-0.12 -0.0545,0 -0.0764,0.01091 -0.10909,0.04364 -0.0436,0.04364 -0.65454,2.530909 -0.65454,2.563636 0,0.06546 0.0545,0.109091 0.12,0.109091 0.0545,0 0.0654,-0.01091 0.19636,-0.163636 l 0.53454,-0.621818 c 0.46909,0.632727 1.21091,0.785454 1.84364,0.785454 1.48364,0 2.77091,-1.450909 2.77091,-2.803636 0,-0.752727 -0.37091,-1.123636 -0.53455,-1.276363 -0.25091,-0.250909 -0.41454,-0.294545 -1.38545,-0.545454 -0.24,-0.06546 -0.63273,-0.174546 -0.73091,-0.196364 -0.29455,-0.09818 -0.66545,-0.414545 -0.66545,-0.992727 0,-0.883636 0.87272,-1.810908 1.90909,-1.810908 0.90545,0 1.5709,0.46909 1.5709,1.690908 0,0.349091 -0.0436,0.545455 -0.0436,0.610909 0,0.01091 0,0.109091 0.13091,0.109091 0.10909,0 0.12,-0.03273 0.16363,-0.218182 z" />
      <path
         id="use4-2"
         d="m 229.26035,78.658984 c -0.0327,0.163636 -0.0982,0.414545 -0.0982,0.469091 0,0.196363 0.15273,0.294545 0.31637,0.294545 0.13091,0 0.32727,-0.08727 0.40363,-0.305454 0.0218,-0.04364 0.39273,-1.527273 0.43637,-1.723636 0.0873,-0.36 0.28363,-1.123636 0.34909,-1.418182 0.0436,-0.141818 0.34909,-0.654545 0.61091,-0.894545 0.0873,-0.07636 0.40363,-0.36 0.87272,-0.36 0.28364,0 0.44728,0.130909 0.45818,0.130909 -0.32727,0.05455 -0.56727,0.316364 -0.56727,0.6 0,0.174545 0.12,0.381818 0.41455,0.381818 0.29454,0 0.6,-0.250909 0.6,-0.643636 0,-0.381818 -0.34909,-0.709091 -0.90546,-0.709091 -0.70909,0 -1.18909,0.534545 -1.39636,0.84 -0.0873,-0.490909 -0.48,-0.84 -0.99273,-0.84 -0.50182,0 -0.70909,0.425455 -0.80727,0.621818 -0.19636,0.370909 -0.33818,1.025454 -0.33818,1.058182 0,0.109091 0.10909,0.109091 0.13091,0.109091 0.10909,0 0.12,-0.01091 0.18545,-0.250909 0.18546,-0.774546 0.40364,-1.298182 0.79637,-1.298182 0.18545,0 0.33818,0.08727 0.33818,0.501818 0,0.229091 -0.0327,0.349091 -0.17455,0.916364 z" />
      <path
         id="use5-8"
         d="m 235.1336,79.291711 c 0,-0.72 -0.27273,-1.145454 -0.69818,-1.145454 -0.36,0 -0.57819,0.272727 -0.57819,0.578181 0,0.294546 0.21819,0.578182 0.57819,0.578182 0.1309,0 0.27272,-0.04364 0.38181,-0.141818 0.0327,-0.02182 0.0436,-0.03273 0.0546,-0.03273 0.0109,0 0.0218,0.01091 0.0218,0.163636 0,0.807272 -0.38182,1.461818 -0.74182,1.821818 -0.12,0.12 -0.12,0.141818 -0.12,0.174545 0,0.07636 0.0545,0.12 0.10909,0.12 0.12,0 0.99273,-0.84 0.99273,-2.116363 z" />
      <path
         id="use6-68"
         d="m 237.96581,72.13633 c 0.62964,0 1.02814,0.462266 1.02814,1.299128 0,0.996264 -0.56587,1.291158 -0.98829,1.291158 -0.43836,0 -1.03611,-0.159402 -1.31507,-0.581818 0.28693,0 0.48618,-0.183313 0.48618,-0.446326 0,-0.255044 -0.18331,-0.438357 -0.43836,-0.438357 -0.21519,0 -0.43835,0.135492 -0.43835,0.454297 0,0.75716 0.81295,1.251307 1.72154,1.251307 1.06003,0 1.80125,-0.73325 1.80125,-1.530261 0,-0.661519 -0.52603,-1.267248 -1.33898,-1.44259 0.62964,-0.223164 1.09987,-0.765131 1.09987,-1.40274 0,-0.637609 -0.71731,-1.091906 -1.5462,-1.091906 -0.8528,0 -1.49838,0.462267 -1.49838,1.067995 0,0.294895 0.19925,0.422416 0.40648,0.422416 0.24707,0 0.40647,-0.175342 0.40647,-0.406475 0,-0.294894 -0.25504,-0.406476 -0.43038,-0.414446 0.33474,-0.438356 0.94844,-0.462267 1.0919,-0.462267 0.20722,0 0.81295,0.06376 0.81295,0.884683 0,0.557908 -0.23113,0.892652 -0.34271,1.020174 -0.23911,0.247074 -0.42242,0.263014 -0.9086,0.294894 -0.15143,0.008 -0.21519,0.01594 -0.21519,0.119552 0,0.111582 0.0717,0.111582 0.20722,0.111582 z" />
      <path
         id="use7-72"
         d="m 245.80529,75.855348 h 1.85454 c 1.54909,0 3.06545,-1.134545 3.06545,-2.356363 0,-0.84 -0.72,-1.647272 -2.14909,-1.647272 h -3.53454 c -0.20727,0 -0.32727,0 -0.32727,0.207273 0,0.130909 0.0982,0.130909 0.31636,0.130909 0.14182,0 0.33818,0.01091 0.46909,0.02182 0.17455,0.02182 0.24,0.05454 0.24,0.174545 0,0.04364 -0.0109,0.07636 -0.0436,0.207273 l -1.46182,5.85818 c -0.10909,0.425455 -0.13091,0.512727 -0.99273,0.512727 -0.18545,0 -0.30545,0 -0.30545,0.207273 0,0.130909 0.13091,0.130909 0.16363,0.130909 0.30546,0 1.08,-0.03273 1.38546,-0.03273 0.22909,0 0.46909,0.01091 0.69818,0.01091 0.24,0 0.48,0.02182 0.70909,0.02182 0.0764,0 0.21818,0 0.21818,-0.218182 0,-0.12 -0.0982,-0.12 -0.30545,-0.12 -0.40364,0 -0.70909,0 -0.70909,-0.196363 0,-0.06546 0.0218,-0.12 0.0327,-0.185455 z m 0.78545,-3.250908 c 0.0982,-0.381818 0.12,-0.414545 0.58909,-0.414545 h 1.04727 c 0.90546,0 1.48364,0.294545 1.48364,1.047272 0,0.425455 -0.21818,1.363636 -0.64364,1.756363 -0.54545,0.490909 -1.2,0.578182 -1.68,0.578182 h -1.53818 z" />
      <path
         id="use8-3"
         d="m 252.00623,75.862011 c 0,-0.215193 -0.0159,-0.223164 -0.23113,-0.223164 -0.32678,0.318805 -0.74919,0.510088 -1.50635,0.510088 v 0.263013 c 0.21519,0 0.64558,0 1.10784,-0.215193 v 4.088668 c 0,0.294894 -0.0239,0.390535 -0.78107,0.390535 h -0.27895 v 0.263014 c 0.32677,-0.02391 1.0122,-0.02391 1.37086,-0.02391 0.35865,0 1.05205,0 1.37883,0.02391 v -0.263014 h -0.27896 c -0.75716,0 -0.78107,-0.09564 -0.78107,-0.390535 z" />
    </g>
    <text
       xml:space="preserve"
       style="font-size:3.175px;writing-mode:lr-tb;direction:ltr;fill:#000000;fill-opacity:1;stroke:none;stroke-width:0.335;stroke-dasharray:none;stroke-dashoffset:0;stroke-opacity:1"
       x="146.52527"
       y="206.25023"
       id="text5"><tspan
         sodipodi:role="line"
         id="tspan5"
         style="fill:#000000;stroke-width:0.335"
         x="146.52527"
         y="206.25023">MOT 87, PompOpt</tspan></text>
  </g>
</svg>
