<?xml version="1.0" encoding="UTF-8" standalone="no"?>
<!-- Created with Inkscape (http://www.inkscape.org/) -->

<svg
   width="210mm"
   height="297mm"
   viewBox="0 0 210 297"
   version="1.1"
   id="svg1"
   xml:space="preserve"
   sodipodi:docname="bessel_functions_finale.svg"
   inkscape:version="1.4.2 (f4327f4, 2025-05-13)"
   inkscape:export-filename="bessel_functions_finale.pdf"
   inkscape:export-xdpi="96"
   inkscape:export-ydpi="96"
   xmlns:inkscape="http://www.inkscape.org/namespaces/inkscape"
   xmlns:sodipodi="http://sodipodi.sourceforge.net/DTD/sodipodi-0.dtd"
   xmlns:xlink="http://www.w3.org/1999/xlink"
   xmlns="http://www.w3.org/2000/svg"
   xmlns:svg="http://www.w3.org/2000/svg"><sodipodi:namedview
     id="namedview1"
     pagecolor="#ffffff"
     bordercolor="#000000"
     borderopacity="0.25"
     inkscape:showpageshadow="2"
     inkscape:pageopacity="0.0"
     inkscape:pagecheckerboard="0"
     inkscape:deskcolor="#d1d1d1"
     inkscape:document-units="mm"
     inkscape:zoom="1.237242"
     inkscape:cx="332.59458"
     inkscape:cy="292.18212"
     inkscape:window-width="1920"
     inkscape:window-height="1009"
     inkscape:window-x="1072"
     inkscape:window-y="-8"
     inkscape:window-maximized="1"
     inkscape:current-layer="g1"><inkscape:page
       x="0"
       y="0"
       width="210"
       height="297"
       id="page1"
       margin="0"
       bleed="0" /><inkscape:page
       x="220"
       y="0"
       width="162.56"
       height="121.92"
       id="page2"
       margin="0"
       bleed="0" /></sodipodi:namedview><defs
     id="defs1"><clipPath
       clipPathUnits="userSpaceOnUse"
       id="clipPath4"><path
         d="M 57.6,38.016 H 414.72 V 304.128 H 57.6 Z"
         id="path4" /></clipPath><clipPath
       clipPathUnits="userSpaceOnUse"
       id="clipPath8"><path
         d="M 57.6,38.016 H 414.72 V 304.128 H 57.6 Z"
         id="path8" /></clipPath><clipPath
       clipPathUnits="userSpaceOnUse"
       id="clipPath12"><path
         d="M 57.6,38.016 H 414.72 V 304.128 H 57.6 Z"
         id="path12" /></clipPath><clipPath
       clipPathUnits="userSpaceOnUse"
       id="clipPath16"><path
         d="M 57.6,38.016 H 414.72 V 304.128 H 57.6 Z"
         id="path16" /></clipPath><clipPath
       clipPathUnits="userSpaceOnUse"
       id="clipPath20"><path
         d="M 57.6,38.016 H 414.72 V 304.128 H 57.6 Z"
         id="path20" /></clipPath><clipPath
       clipPathUnits="userSpaceOnUse"
       id="clipPath24"><path
         d="M 57.6,38.016 H 414.72 V 304.128 H 57.6 Z"
         id="path24" /></clipPath><clipPath
       clipPathUnits="userSpaceOnUse"
       id="clipPath28"><path
         d="M 57.6,38.016 H 414.72 V 304.128 H 57.6 Z"
         id="path28" /></clipPath><clipPath
       clipPathUnits="userSpaceOnUse"
       id="clipPath31"><path
         d="M -1021,-463 H 1794 V 1233 H -1021 Z"
         transform="translate(-2.5000006e-5,-3.3156008e-4)"
         id="path31" /></clipPath><clipPath
       clipPathUnits="userSpaceOnUse"
       id="clipPath34"><path
         d="M 57.6,38.016 H 414.72 V 304.128 H 57.6 Z"
         id="path34" /></clipPath><clipPath
       clipPathUnits="userSpaceOnUse"
       id="clipPath37"><path
         d="M -1021,-463 H 1794 V 1233 H -1021 Z"
         transform="translate(-2.5000006e-5,-6.9910024e-5)"
         id="path37" /></clipPath><clipPath
       clipPathUnits="userSpaceOnUse"
       id="clipPath40"><path
         d="M 57.6,38.016 H 414.72 V 304.128 H 57.6 Z"
         id="path40" /></clipPath><clipPath
       clipPathUnits="userSpaceOnUse"
       id="clipPath44"><path
         d="M 57.6,38.016 H 414.72 V 304.128 H 57.6 Z"
         id="path44" /></clipPath><clipPath
       clipPathUnits="userSpaceOnUse"
       id="clipPath48"><path
         d="M 57.6,38.016 H 414.72 V 304.128 H 57.6 Z"
         id="path48" /></clipPath><clipPath
       clipPathUnits="userSpaceOnUse"
       id="clipPath52"><path
         d="M 57.6,38.016 H 414.72 V 304.128 H 57.6 Z"
         id="path52" /></clipPath><clipPath
       clipPathUnits="userSpaceOnUse"
       id="clipPath56"><path
         d="M 57.6,38.016 H 414.72 V 304.128 H 57.6 Z"
         id="path56" /></clipPath><clipPath
       clipPathUnits="userSpaceOnUse"
       id="clipPath60"><path
         d="M 57.6,38.016 H 414.72 V 304.128 H 57.6 Z"
         id="path60" /></clipPath><clipPath
       clipPathUnits="userSpaceOnUse"
       id="clipPath64"><path
         d="M 57.6,38.016 H 414.72 V 304.128 H 57.6 Z"
         id="path64" /></clipPath><clipPath
       clipPathUnits="userSpaceOnUse"
       id="clipPath66"><path
         d="M 57.6,38.016 H 414.72 V 304.128 H 57.6 Z"
         id="path66" /></clipPath><clipPath
       clipPathUnits="userSpaceOnUse"
       id="clipPath68"><path
         d="M 57.6,38.016 H 414.72 V 304.128 H 57.6 Z"
         id="path68" /></clipPath><path
       id="g2-49"
       d="M2.502615-5.076961C2.502615-5.292154 2.486675-5.300125 2.271482-5.300125C1.944707-4.98132 1.522291-4.790037 .765131-4.790037V-4.527024C.980324-4.527024 1.41071-4.527024 1.872976-4.742217V-.653549C1.872976-.358655 1.849066-.263014 1.091905-.263014H.812951V0C1.139726-.02391 1.825156-.02391 2.183811-.02391S3.235866-.02391 3.56264 0V-.263014H3.283686C2.526526-.263014 2.502615-.358655 2.502615-.653549V-5.076961Z" /><path
       id="g2-50"
       d="M2.247572-1.625903C2.375093-1.745455 2.709838-2.008468 2.83736-2.12005C3.331507-2.574346 3.801743-3.012702 3.801743-3.737983C3.801743-4.686426 3.004732-5.300125 2.008468-5.300125C1.052055-5.300125 .422416-4.574844 .422416-3.865504C.422416-3.474969 .73325-3.419178 .844832-3.419178C1.012204-3.419178 1.259278-3.53873 1.259278-3.841594C1.259278-4.25604 .860772-4.25604 .765131-4.25604C.996264-4.837858 1.530262-5.037111 1.920797-5.037111C2.662017-5.037111 3.044583-4.407472 3.044583-3.737983C3.044583-2.909091 2.462765-2.303362 1.522291-1.338979L.518057-.302864C.422416-.215193 .422416-.199253 .422416 0H3.57061L3.801743-1.42665H3.55467C3.53076-1.267248 3.466999-.868742 3.371357-.71731C3.323537-.653549 2.717808-.653549 2.590286-.653549H1.171606L2.247572-1.625903Z" /><path
       id="g0-106"
       d="M1.900872-8.53599C1.900872-8.751183 1.900872-8.966376 1.661768-8.966376S1.422665-8.751183 1.422665-8.53599V2.558406C1.422665 2.773599 1.422665 2.988792 1.661768 2.988792S1.900872 2.773599 1.900872 2.558406V-8.53599Z" /><path
       id="g1-74"
       d="M6.38406-7.340473C6.479701-7.699128 6.503611-7.81868 7.089415-7.81868C7.280697-7.81868 7.400249-7.81868 7.400249-8.033873C7.400249-8.16538 7.292653-8.16538 7.244832-8.16538C7.041594-8.16538 6.814446-8.141469 6.599253-8.141469H5.941719C5.439601-8.141469 4.913574-8.16538 4.411457-8.16538C4.303861-8.16538 4.160399-8.16538 4.160399-7.950187C4.160399-7.830635 4.25604-7.830635 4.25604-7.81868H4.554919C5.511333-7.81868 5.511333-7.723039 5.511333-7.543711C5.511333-7.531756 5.511333-7.44807 5.463512-7.256787L4.088667-1.793275C3.777833-.573848 2.976837 .011955 2.402989 .011955C1.996513 .011955 1.422665-.179328 1.279203-.812951C1.327024-.800996 1.3868-.789041 1.43462-.789041C1.829141-.789041 2.139975-1.135741 2.139975-1.482441C2.139975-1.673724 2.020423-1.924782 1.661768-1.924782C1.446575-1.924782 .944458-1.80523 .944458-1.028144C.944458-.274969 1.566127 .251059 2.426899 .251059C3.514819 .251059 4.686426-.573848 4.97335-1.709589L6.38406-7.340473Z" /><path
       id="g0-106-1"
       d="M1.900872-8.53599C1.900872-8.751183 1.900872-8.966376 1.661768-8.966376S1.422665-8.751183 1.422665-8.53599V2.558406C1.422665 2.773599 1.422665 2.988792 1.661768 2.988792S1.900872 2.773599 1.900872 2.558406V-8.53599Z" /><path
       id="g2-48"
       d="M3.897385-2.542466C3.897385-3.395268 3.809714-3.913325 3.5467-4.423412C3.196015-5.124782 2.550436-5.300125 2.11208-5.300125C1.107846-5.300125 .74122-4.550934 .629639-4.327771C.342715-3.745953 .326775-2.956912 .326775-2.542466C.326775-2.016438 .350685-1.211457 .73325-.573848C1.099875 .01594 1.689664 .167372 2.11208 .167372C2.494645 .167372 3.180075 .047821 3.57858-.74122C3.873474-1.315068 3.897385-2.024408 3.897385-2.542466ZM2.11208-.055791C1.841096-.055791 1.291158-.183313 1.123786-1.020174C1.036115-1.474471 1.036115-2.223661 1.036115-2.638107C1.036115-3.188045 1.036115-3.745953 1.123786-4.184309C1.291158-4.99726 1.912827-5.076961 2.11208-5.076961C2.383064-5.076961 2.933001-4.941469 3.092403-4.216189C3.188045-3.777833 3.188045-3.180075 3.188045-2.638107C3.188045-2.16787 3.188045-1.45056 3.092403-1.004234C2.925031-.167372 2.375093-.055791 2.11208-.055791Z" /><path
       id="g2-50-3"
       d="M2.247572-1.625903C2.375093-1.745455 2.709838-2.008468 2.83736-2.12005C3.331507-2.574346 3.801743-3.012702 3.801743-3.737983C3.801743-4.686426 3.004732-5.300125 2.008468-5.300125C1.052055-5.300125 .422416-4.574844 .422416-3.865504C.422416-3.474969 .73325-3.419178 .844832-3.419178C1.012204-3.419178 1.259278-3.53873 1.259278-3.841594C1.259278-4.25604 .860772-4.25604 .765131-4.25604C.996264-4.837858 1.530262-5.037111 1.920797-5.037111C2.662017-5.037111 3.044583-4.407472 3.044583-3.737983C3.044583-2.909091 2.462765-2.303362 1.522291-1.338979L.518057-.302864C.422416-.215193 .422416-.199253 .422416 0H3.57061L3.801743-1.42665H3.55467C3.53076-1.267248 3.466999-.868742 3.371357-.71731C3.323537-.653549 2.717808-.653549 2.590286-.653549H1.171606L2.247572-1.625903Z" /><path
       id="g1-74-5"
       d="M6.38406-7.340473C6.479701-7.699128 6.503611-7.81868 7.089415-7.81868C7.280697-7.81868 7.400249-7.81868 7.400249-8.033873C7.400249-8.16538 7.292653-8.16538 7.244832-8.16538C7.041594-8.16538 6.814446-8.141469 6.599253-8.141469H5.941719C5.439601-8.141469 4.913574-8.16538 4.411457-8.16538C4.303861-8.16538 4.160399-8.16538 4.160399-7.950187C4.160399-7.830635 4.25604-7.830635 4.25604-7.81868H4.554919C5.511333-7.81868 5.511333-7.723039 5.511333-7.543711C5.511333-7.531756 5.511333-7.44807 5.463512-7.256787L4.088667-1.793275C3.777833-.573848 2.976837 .011955 2.402989 .011955C1.996513 .011955 1.422665-.179328 1.279203-.812951C1.327024-.800996 1.3868-.789041 1.43462-.789041C1.829141-.789041 2.139975-1.135741 2.139975-1.482441C2.139975-1.673724 2.020423-1.924782 1.661768-1.924782C1.446575-1.924782 .944458-1.80523 .944458-1.028144C.944458-.274969 1.566127 .251059 2.426899 .251059C3.514819 .251059 4.686426-.573848 4.97335-1.709589L6.38406-7.340473Z" /></defs><g
     inkscape:label="Calque 1"
     inkscape:groupmode="layer"
     id="layer1" /><g
     id="g1"
     inkscape:groupmode="layer"
     inkscape:label="1"
     transform="matrix(0.26458333,0,0,0.26458334,220.00001,0)"><path
       id="path2"
       d="m -641.73362,501.44417 h 476.15999 V 146.62818 h -476.15999 z"
       style="fill:#ffffff;fill-opacity:1;fill-rule:nonzero;stroke:none;stroke-width:1.33333" /><path
       id="path3"
       d="M 73.832727,38.016 V 304.128"
       style="fill:none;stroke:#b0b0b0;stroke-width:0.8;stroke-linecap:square;stroke-linejoin:round;stroke-miterlimit:10;stroke-dasharray:none;stroke-opacity:0.3"
       transform="matrix(1.3333333,0,0,-1.3333333,-718.53361,552.13217)"
       clip-path="url(#clipPath4)" /><path
       id="path5"
       d="m -620.08998,501.44417 v 4.66666"
       style="fill:#000000;fill-opacity:1;fill-rule:nonzero;stroke:#000000;stroke-width:1.06667;stroke-linecap:butt;stroke-linejoin:round;stroke-miterlimit:10;stroke-dasharray:none;stroke-opacity:1" /><path
       id="path6"
       d=""
       style="fill:#000000;fill-opacity:1;fill-rule:nonzero;stroke:none"
       aria-label="0"
       transform="matrix(1.3333333,0,0,1.3333333,94.204053,429.57033)" /><path
       id="path7"
       d="M 138.76364,38.016 V 304.128"
       style="fill:none;stroke:#b0b0b0;stroke-width:0.8;stroke-linecap:square;stroke-linejoin:round;stroke-miterlimit:10;stroke-dasharray:none;stroke-opacity:0.3"
       transform="matrix(1.3333333,0,0,-1.3333333,-718.53361,552.13217)"
       clip-path="url(#clipPath8)" /><path
       id="path9"
       d="m -533.51543,501.44417 v 4.66666"
       style="fill:#000000;fill-opacity:1;fill-rule:nonzero;stroke:#000000;stroke-width:1.06667;stroke-linecap:butt;stroke-linejoin:round;stroke-miterlimit:10;stroke-dasharray:none;stroke-opacity:1" /><path
       id="path10"
       d=""
       style="fill:#000000;fill-opacity:1;fill-rule:nonzero;stroke:none"
       aria-label="1"
       transform="matrix(1.3333333,0,0,1.3333333,180.7786,429.57033)" /><path
       id="path11"
       d="M 203.69454,38.016 V 304.128"
       style="fill:none;stroke:#b0b0b0;stroke-width:0.8;stroke-linecap:square;stroke-linejoin:round;stroke-miterlimit:10;stroke-dasharray:none;stroke-opacity:0.3"
       transform="matrix(1.3333333,0,0,-1.3333333,-718.53361,552.13217)"
       clip-path="url(#clipPath12)" /><path
       id="path13"
       d="m -446.9409,501.44417 v 4.66666"
       style="fill:#000000;fill-opacity:1;fill-rule:nonzero;stroke:#000000;stroke-width:1.06667;stroke-linecap:butt;stroke-linejoin:round;stroke-miterlimit:10;stroke-dasharray:none;stroke-opacity:1" /><path
       id="path14"
       d=""
       style="fill:#000000;fill-opacity:1;fill-rule:nonzero;stroke:none"
       aria-label="2"
       transform="matrix(1.3333333,0,0,1.3333333,267.35314,429.57033)" /><path
       id="path15"
       d="M 268.62545,38.016 V 304.128"
       style="fill:none;stroke:#b0b0b0;stroke-width:0.8;stroke-linecap:square;stroke-linejoin:round;stroke-miterlimit:10;stroke-dasharray:none;stroke-opacity:0.3"
       transform="matrix(1.3333333,0,0,-1.3333333,-718.53361,552.13217)"
       clip-path="url(#clipPath16)" /><path
       id="path17"
       d="m -360.36636,501.44417 v 4.66666"
       style="fill:#000000;fill-opacity:1;fill-rule:nonzero;stroke:#000000;stroke-width:1.06667;stroke-linecap:butt;stroke-linejoin:round;stroke-miterlimit:10;stroke-dasharray:none;stroke-opacity:1" /><path
       id="path18"
       d=""
       style="fill:#000000;fill-opacity:1;fill-rule:nonzero;stroke:none"
       aria-label="3"
       transform="matrix(1.3333333,0,0,1.3333333,353.92769,429.57033)" /><path
       id="path19"
       d="M 333.55636,38.016 V 304.128"
       style="fill:none;stroke:#b0b0b0;stroke-width:0.8;stroke-linecap:square;stroke-linejoin:round;stroke-miterlimit:10;stroke-dasharray:none;stroke-opacity:0.3"
       transform="matrix(1.3333333,0,0,-1.3333333,-718.53361,552.13217)"
       clip-path="url(#clipPath20)" /><path
       id="path21"
       d="m -273.79181,501.44417 v 4.66666"
       style="fill:#000000;fill-opacity:1;fill-rule:nonzero;stroke:#000000;stroke-width:1.06667;stroke-linecap:butt;stroke-linejoin:round;stroke-miterlimit:10;stroke-dasharray:none;stroke-opacity:1" /><path
       id="path22"
       d=""
       style="fill:#000000;fill-opacity:1;fill-rule:nonzero;stroke:none"
       aria-label="4"
       transform="matrix(1.3333333,0,0,1.3333333,440.50223,429.57033)" /><path
       id="path23"
       d="M 398.48727,38.016 V 304.128"
       style="fill:none;stroke:#b0b0b0;stroke-width:0.8;stroke-linecap:square;stroke-linejoin:round;stroke-miterlimit:10;stroke-dasharray:none;stroke-opacity:0.3"
       transform="matrix(1.3333333,0,0,-1.3333333,-718.53361,552.13217)"
       clip-path="url(#clipPath24)" /><path
       id="path25"
       d="m -187.21727,501.44417 v 4.66666"
       style="fill:#000000;fill-opacity:1;fill-rule:nonzero;stroke:#000000;stroke-width:1.06667;stroke-linecap:butt;stroke-linejoin:round;stroke-miterlimit:10;stroke-dasharray:none;stroke-opacity:1" /><path
       id="path26"
       d=""
       style="fill:#000000;fill-opacity:1;fill-rule:nonzero;stroke:none"
       aria-label="5"
       transform="matrix(1.3333333,0,0,1.3333333,527.07678,429.57033)" /><path
       id="path27"
       d="M 57.6,50.587317 H 414.72"
       style="fill:none;stroke:#b0b0b0;stroke-width:0.8;stroke-linecap:square;stroke-linejoin:round;stroke-miterlimit:10;stroke-dasharray:none;stroke-opacity:0.3"
       transform="matrix(1.3333333,0,0,-1.3333333,-718.53361,552.13217)"
       clip-path="url(#clipPath28)" /><path
       id="path29"
       d="m -641.73362,484.68241 h -4.66666"
       style="fill:#000000;fill-opacity:1;fill-rule:nonzero;stroke:#000000;stroke-width:1.06667;stroke-linecap:butt;stroke-linejoin:round;stroke-miterlimit:10;stroke-dasharray:none;stroke-opacity:1" /><path
       id="path30"
       d=""
       style="fill:#000000;fill-opacity:1;fill-rule:nonzero;stroke:none"
       aria-label="0.4"
       transform="matrix(1.3333333,0,0,1.3333333,46.263542,398.41274)" /><path
       id="path33"
       d="M 57.6,85.079414 H 414.72"
       style="fill:none;stroke:#b0b0b0;stroke-width:0.8;stroke-linecap:square;stroke-linejoin:round;stroke-miterlimit:10;stroke-dasharray:none;stroke-opacity:0.3"
       transform="matrix(1.3333333,0,0,-1.3333333,-718.53361,552.13217)"
       clip-path="url(#clipPath34)" /><path
       id="path35"
       d="m -641.73362,438.69295 h -4.66666"
       style="fill:#000000;fill-opacity:1;fill-rule:nonzero;stroke:#000000;stroke-width:1.06667;stroke-linecap:butt;stroke-linejoin:round;stroke-miterlimit:10;stroke-dasharray:none;stroke-opacity:1" /><path
       id="path36"
       d=""
       style="fill:#000000;fill-opacity:1;fill-rule:nonzero;stroke:none"
       aria-label="0.2"
       transform="matrix(1.3333333,0,0,1.3333333,46.263542,352.42328)" /><path
       id="path39"
       d="M 57.6,119.57151 H 414.72"
       style="fill:none;stroke:#b0b0b0;stroke-width:0.8;stroke-linecap:square;stroke-linejoin:round;stroke-miterlimit:10;stroke-dasharray:none;stroke-opacity:0.3"
       transform="matrix(1.3333333,0,0,-1.3333333,-718.53361,552.13217)"
       clip-path="url(#clipPath40)" /><path
       id="path41"
       d="m -641.73362,392.70349 h -4.66666"
       style="fill:#000000;fill-opacity:1;fill-rule:nonzero;stroke:#000000;stroke-width:1.06667;stroke-linecap:butt;stroke-linejoin:round;stroke-miterlimit:10;stroke-dasharray:none;stroke-opacity:1" /><path
       id="path42"
       d=""
       style="fill:#000000;fill-opacity:1;fill-rule:nonzero;stroke:none"
       aria-label="0.0"
       transform="matrix(1.3333333,0,0,1.3333333,46.258333,306.43382)" /><path
       id="path43"
       d="M 57.6,154.06361 H 414.72"
       style="fill:none;stroke:#b0b0b0;stroke-width:0.8;stroke-linecap:square;stroke-linejoin:round;stroke-miterlimit:10;stroke-dasharray:none;stroke-opacity:0.3"
       transform="matrix(1.3333333,0,0,-1.3333333,-718.53361,552.13217)"
       clip-path="url(#clipPath44)" /><path
       id="path45"
       d="m -641.73362,346.71402 h -4.66666"
       style="fill:#000000;fill-opacity:1;fill-rule:nonzero;stroke:#000000;stroke-width:1.06667;stroke-linecap:butt;stroke-linejoin:round;stroke-miterlimit:10;stroke-dasharray:none;stroke-opacity:1" /><path
       id="path46"
       d=""
       style="fill:#000000;fill-opacity:1;fill-rule:nonzero;stroke:none"
       aria-label="0.2"
       transform="matrix(1.3333333,0,0,1.3333333,46.258333,260.44435)" /><path
       id="path47"
       d="M 57.6,188.55571 H 414.72"
       style="fill:none;stroke:#b0b0b0;stroke-width:0.8;stroke-linecap:square;stroke-linejoin:round;stroke-miterlimit:10;stroke-dasharray:none;stroke-opacity:0.3"
       transform="matrix(1.3333333,0,0,-1.3333333,-718.53361,552.13217)"
       clip-path="url(#clipPath48)" /><path
       id="path49"
       d="m -641.73362,300.72456 h -4.66666"
       style="fill:#000000;fill-opacity:1;fill-rule:nonzero;stroke:#000000;stroke-width:1.06667;stroke-linecap:butt;stroke-linejoin:round;stroke-miterlimit:10;stroke-dasharray:none;stroke-opacity:1" /><path
       id="path50"
       d=""
       style="fill:#000000;fill-opacity:1;fill-rule:nonzero;stroke:none"
       aria-label="0.4"
       transform="matrix(1.3333333,0,0,1.3333333,46.258333,214.45489)" /><path
       id="path51"
       d="M 57.6,223.0478 H 414.72"
       style="fill:none;stroke:#b0b0b0;stroke-width:0.8;stroke-linecap:square;stroke-linejoin:round;stroke-miterlimit:10;stroke-dasharray:none;stroke-opacity:0.3"
       transform="matrix(1.3333333,0,0,-1.3333333,-718.53361,552.13217)"
       clip-path="url(#clipPath52)" /><path
       id="path53"
       d="m -641.73362,254.73511 h -4.66666"
       style="fill:#000000;fill-opacity:1;fill-rule:nonzero;stroke:#000000;stroke-width:1.06667;stroke-linecap:butt;stroke-linejoin:round;stroke-miterlimit:10;stroke-dasharray:none;stroke-opacity:1" /><path
       id="path54"
       d=""
       style="fill:#000000;fill-opacity:1;fill-rule:nonzero;stroke:none"
       aria-label="0.6"
       transform="matrix(1.3333333,0,0,1.3333333,46.258333,168.46543)" /><path
       id="path55"
       d="M 57.6,257.5399 H 414.72"
       style="fill:none;stroke:#b0b0b0;stroke-width:0.8;stroke-linecap:square;stroke-linejoin:round;stroke-miterlimit:10;stroke-dasharray:none;stroke-opacity:0.3"
       transform="matrix(1.3333333,0,0,-1.3333333,-718.53361,552.13217)"
       clip-path="url(#clipPath56)" /><path
       id="path57"
       d="m -641.73362,208.74564 h -4.66666"
       style="fill:#000000;fill-opacity:1;fill-rule:nonzero;stroke:#000000;stroke-width:1.06667;stroke-linecap:butt;stroke-linejoin:round;stroke-miterlimit:10;stroke-dasharray:none;stroke-opacity:1" /><path
       id="path58"
       d=""
       style="fill:#000000;fill-opacity:1;fill-rule:nonzero;stroke:none"
       aria-label="0.8"
       transform="matrix(1.3333333,0,0,1.3333333,46.258333,122.47596)" /><path
       id="path59"
       d="M 57.6,292.032 H 414.72"
       style="fill:none;stroke:#b0b0b0;stroke-width:0.8;stroke-linecap:square;stroke-linejoin:round;stroke-miterlimit:10;stroke-dasharray:none;stroke-opacity:0.3"
       transform="matrix(1.3333333,0,0,-1.3333333,-718.53361,552.13217)"
       clip-path="url(#clipPath60)" /><path
       id="path61"
       d="m -641.73362,162.75618 h -4.66666"
       style="fill:#000000;fill-opacity:1;fill-rule:nonzero;stroke:#000000;stroke-width:1.06667;stroke-linecap:butt;stroke-linejoin:round;stroke-miterlimit:10;stroke-dasharray:none;stroke-opacity:1" /><path
       id="path62"
       d=""
       style="fill:#000000;fill-opacity:1;fill-rule:nonzero;stroke:none"
       aria-label="1.0"
       transform="matrix(1.3333333,0,0,1.3333333,46.258333,76.4865)" /><path
       id="path63"
       d="m 73.832727,292.032 3.253052,-0.1082 3.253051,-0.32441 3.253052,-0.54 3.253052,-0.75457 3.253051,-0.96773 3.253052,-1.17907 3.253051,-1.38819 3.253052,-1.5947 3.90366,-2.18198 3.90366,-2.46913 3.90367,-2.74961 3.90366,-3.02266 3.90366,-3.28757 4.55427,-4.15846 4.55427,-4.49173 4.55428,-4.80859 4.55427,-5.10791 5.20488,-6.18025 5.20488,-6.51757 5.8555,-7.69705 6.5061,-8.95131 7.15671,-10.2556 8.45794,-12.55241 10.40976,-15.875 26.67502,-40.88574 8.45794,-12.45314 7.15671,-10.15484 6.5061,-8.85406 5.8555,-7.61164 5.85549,-7.232488 5.20488,-6.080984 5.20489,-5.728871 4.55427,-4.706884 4.55427,-4.407585 4.55427,-4.096441 4.55427,-3.774785 3.90367,-2.972551 3.90366,-2.724551 3.90366,-2.472374 3.90366,-2.216795 3.90366,-1.958591 3.90366,-1.698544 3.90367,-1.43744 3.90366,-1.176057 3.90366,-0.915176 3.90366,-0.655567 3.90366,-0.397992 3.90367,-0.143204 3.90366,0.108059 3.90366,0.355074 3.90366,0.597137 3.90366,0.833562 3.90367,1.063685 3.90366,1.286868 3.90366,1.502498 4.55427,2.014555 4.55427,2.28307 4.55428,2.536742 4.55427,2.774678 5.20488,3.441138 5.20488,3.704375 5.8555,4.448418 6.5061,5.244799 7.15671,6.071331 0.65061,0.565097 v 0"
       style="fill:none;stroke:#00aa44;stroke-width:1.5;stroke-linecap:square;stroke-linejoin:round;stroke-miterlimit:10;stroke-dasharray:none;stroke-opacity:1"
       transform="matrix(1.3333333,0,0,-1.3333333,-718.53361,552.13217)"
       clip-path="url(#clipPath64)" /><path
       id="path65"
       d="m 73.832727,119.57151 16.265258,21.43177 9.108544,11.62626 7.156711,8.80213 6.50611,7.67444 5.85549,6.5915 5.85549,6.25169 5.20488,5.24176 5.20489,4.91954 4.55427,4.02243 4.55427,3.74433 4.55427,3.45332 4.55427,3.15059 3.90367,2.45157 3.90366,2.21556 3.90366,1.97438 3.90366,1.72876 3.90366,1.4794 3.90367,1.22707 3.90366,0.97249 3.90366,0.71642 3.90366,0.45963 3.90366,0.20284 3.90367,-0.0532 3.90366,-0.30768 3.90366,-0.5599 3.90366,-0.80916 3.90366,-1.0547 3.90366,-1.29582 3.90367,-1.53182 3.90366,-1.76204 3.90366,-1.98583 4.55427,-2.59015 4.55427,-2.87281 4.55428,-3.14211 4.55427,-3.39705 5.20488,-4.17481 5.20488,-4.46348 5.8555,-5.3345 5.85549,-5.62904 6.5061,-6.55122 7.80733,-8.19603 9.10854,-9.89508 17.56648,-19.50993 11.71098,-12.84203 8.45794,-8.96618 7.15671,-7.28261 6.50611,-6.316777 5.85549,-5.396074 5.85549,-5.087961 5.20488,-4.239233 5.20489,-3.951966 5.20488,-3.64681 4.55427,-2.927991 4.55427,-2.672538 4.55428,-2.408738 4.55427,-2.13779 4.55427,-1.86092 3.90366,-1.371124 1.95183,-0.607264 v 0"
       style="fill:none;stroke:#800080;stroke-width:1.5;stroke-linecap:square;stroke-linejoin:round;stroke-miterlimit:10;stroke-dasharray:none;stroke-opacity:1"
       transform="matrix(1.3333333,0,0,-1.3333333,-718.53361,552.13217)"
       clip-path="url(#clipPath66)" /><path
       id="path67"
       d="M 57.6,119.57151 H 414.72"
       style="fill:none;stroke:#000000;stroke-width:1;stroke-linecap:butt;stroke-linejoin:round;stroke-miterlimit:10;stroke-dasharray:3.7, 1.6;stroke-dashoffset:0;stroke-opacity:1"
       transform="matrix(1.3333333,0,0,-1.3333333,-718.53361,552.13217)"
       clip-path="url(#clipPath68)" /><path
       id="path69"
       d="M -641.73362,501.44417 V 146.62818"
       style="fill:none;stroke:#000000;stroke-width:1.06667;stroke-linecap:square;stroke-linejoin:miter;stroke-miterlimit:10;stroke-dasharray:none;stroke-opacity:1" /><path
       id="path70"
       d="M -165.57363,501.44417 V 146.62818"
       style="fill:none;stroke:#000000;stroke-width:1.06667;stroke-linecap:square;stroke-linejoin:miter;stroke-miterlimit:10;stroke-dasharray:none;stroke-opacity:1" /><path
       id="path71"
       d="m -641.73362,501.44417 h 476.15999"
       style="fill:none;stroke:#000000;stroke-width:1.06667;stroke-linecap:square;stroke-linejoin:miter;stroke-miterlimit:10;stroke-dasharray:none;stroke-opacity:1" /><path
       id="path72"
       d="m -641.73362,146.62818 h 476.15999"
       style="fill:none;stroke:#000000;stroke-width:1.06667;stroke-linecap:square;stroke-linejoin:miter;stroke-miterlimit:10;stroke-dasharray:none;stroke-opacity:1" /><text
       xml:space="preserve"
       style="text-align:start;writing-mode:lr-tb;direction:ltr;text-anchor:start;opacity:0.382979;fill:#800080;stroke:#800080;stroke-opacity:1"
       x="-538.10162"
       y="532.63629"
       id="text2"><tspan
         sodipodi:role="line"
         id="tspan2" /></text><text
       xml:space="preserve"
       style="font-size:18.3016px;text-align:start;writing-mode:lr-tb;direction:ltr;text-anchor:start;opacity:1;fill:#00aa44;fill-opacity:1;stroke:#005b24;stroke-width:1.52753;stroke-dasharray:none;stroke-opacity:1"
       x="-696.21405"
       y="164.25958"
       id="text1"
       transform="scale(0.974496,1.0261715)"><tspan
         sodipodi:role="line"
         id="tspan1"
         x="-696.21405"
         y="164.25958"
         style="stroke-width:1.52753">1.0</tspan></text><text
       xml:space="preserve"
       style="font-size:18.3016px;text-align:start;writing-mode:lr-tb;direction:ltr;text-anchor:start;fill:#00aa44;fill-opacity:1;stroke:#005b24;stroke-width:1.52753;stroke-dasharray:none;stroke-opacity:1"
       x="-562.33502"
       y="510.11041"
       id="text1-9"
       transform="scale(0.97449598,1.0261715)"><tspan
         sodipodi:role="line"
         id="tspan1-3"
         x="-562.33502"
         y="510.11041"
         style="stroke-width:1.52753">1.0</tspan></text><text
       xml:space="preserve"
       style="font-size:18.3016px;text-align:start;writing-mode:lr-tb;direction:ltr;text-anchor:start;fill:#00aa44;fill-opacity:1;stroke:#005b24;stroke-width:1.52753;stroke-dasharray:none;stroke-opacity:1"
       x="-473.94269"
       y="509.9176"
       id="text1-9-5"
       transform="scale(0.97449598,1.0261715)"><tspan
         sodipodi:role="line"
         id="tspan1-3-0"
         x="-473.94269"
         y="509.9176"
         style="stroke-width:1.52753">2.0</tspan></text><text
       xml:space="preserve"
       style="font-size:18.3016px;text-align:start;writing-mode:lr-tb;direction:ltr;text-anchor:start;fill:#00aa44;fill-opacity:1;stroke:#005b24;stroke-width:1.52753;stroke-dasharray:none;stroke-opacity:1"
       x="-384.14526"
       y="509.42734"
       id="text1-9-5-2"
       transform="scale(0.97449598,1.0261715)"><tspan
         sodipodi:role="line"
         id="tspan1-3-0-4"
         x="-384.14526"
         y="509.42734"
         style="stroke-width:1.52753">3.0</tspan></text><text
       xml:space="preserve"
       style="font-size:18.3016px;text-align:start;writing-mode:lr-tb;direction:ltr;text-anchor:start;fill:#00aa44;fill-opacity:1;stroke:#005b24;stroke-width:1.52753;stroke-dasharray:none;stroke-opacity:1"
       x="-294.96011"
       y="509.95602"
       id="text1-9-5-2-9"
       transform="scale(0.97449598,1.0261715)"><tspan
         sodipodi:role="line"
         id="tspan1-3-0-4-0"
         x="-294.96011"
         y="509.95602"
         style="stroke-width:1.52753">4.0</tspan></text><text
       xml:space="preserve"
       style="font-size:18.3016px;text-align:start;writing-mode:lr-tb;direction:ltr;text-anchor:start;fill:#00aa44;fill-opacity:1;stroke:#005b24;stroke-width:1.52753;stroke-dasharray:none;stroke-opacity:1"
       x="-205.78351"
       y="509.36438"
       id="text1-9-5-2-9-8"
       transform="scale(0.97449598,1.0261715)"><tspan
         sodipodi:role="line"
         id="tspan1-3-0-4-0-9"
         x="-205.78351"
         y="509.36438"
         style="stroke-width:1.52753">5.0</tspan></text><text
       xml:space="preserve"
       style="font-size:18.3016px;text-align:start;writing-mode:lr-tb;direction:ltr;text-anchor:start;fill:#00aa44;fill-opacity:1;stroke:#005b24;stroke-width:1.52753;stroke-dasharray:none;stroke-opacity:1"
       x="-695.88898"
       y="208.5909"
       id="text1-8"
       transform="scale(0.97449598,1.0261715)"><tspan
         sodipodi:role="line"
         id="tspan1-2"
         x="-695.88898"
         y="208.5909"
         style="stroke-width:1.52753">0.8</tspan></text><text
       xml:space="preserve"
       style="font-size:18.3016px;text-align:start;writing-mode:lr-tb;direction:ltr;text-anchor:start;fill:#00aa44;fill-opacity:1;stroke:#005b24;stroke-width:1.52753;stroke-dasharray:none;stroke-opacity:1"
       x="-697.83221"
       y="254.56265"
       id="text1-8-7"
       transform="scale(0.97449598,1.0261715)"><tspan
         sodipodi:role="line"
         id="tspan1-2-1"
         x="-697.83221"
         y="254.56265"
         style="stroke-width:1.52753">0.6</tspan></text><text
       xml:space="preserve"
       style="font-size:18.3016px;text-align:start;writing-mode:lr-tb;direction:ltr;text-anchor:start;fill:#00aa44;fill-opacity:1;stroke:#005b24;stroke-width:1.52753;stroke-dasharray:none;stroke-opacity:1"
       x="-696.46741"
       y="298.47803"
       id="text1-8-7-6"
       transform="scale(0.97449598,1.0261715)"><tspan
         sodipodi:role="line"
         id="tspan1-2-1-1"
         x="-696.46741"
         y="298.47803"
         style="stroke-width:1.52753">0.4</tspan></text><text
       xml:space="preserve"
       style="font-size:18.3016px;text-align:start;writing-mode:lr-tb;direction:ltr;text-anchor:start;fill:#00aa44;fill-opacity:1;stroke:#005b24;stroke-width:1.52753;stroke-dasharray:none;stroke-opacity:1"
       x="-695.99146"
       y="345.42014"
       id="text1-8-7-6-2"
       transform="scale(0.97449598,1.0261715)"><tspan
         sodipodi:role="line"
         id="tspan1-2-1-1-1"
         x="-695.99146"
         y="345.42014"
         style="stroke-width:1.52753">0.2</tspan></text><text
       xml:space="preserve"
       style="font-size:18.3016px;text-align:start;writing-mode:lr-tb;direction:ltr;text-anchor:start;fill:#00aa44;fill-opacity:1;stroke:#005b24;stroke-width:1.52753;stroke-dasharray:none;stroke-opacity:1"
       x="-703.23187"
       y="434.25101"
       id="text1-8-7-6-2-9"
       transform="scale(0.97449598,1.0261715)"><tspan
         sodipodi:role="line"
         id="tspan1-2-1-1-1-5"
         x="-703.23187"
         y="434.25101"
         style="stroke-width:1.52753">-0.2</tspan></text><text
       xml:space="preserve"
       style="font-size:18.3016px;text-align:start;writing-mode:lr-tb;direction:ltr;text-anchor:start;fill:#00aa44;fill-opacity:1;stroke:#005b24;stroke-width:1.52753;stroke-dasharray:none;stroke-opacity:1"
       x="-703.66888"
       y="478.56943"
       id="text1-8-7-6-2-9-3"
       transform="scale(0.97449598,1.0261715)"><tspan
         sodipodi:role="line"
         id="tspan1-2-1-1-1-5-3"
         x="-703.66888"
         y="478.56943"
         style="stroke-width:1.52753">-0.4</tspan></text><text
       xml:space="preserve"
       style="font-size:18.3016px;text-align:start;writing-mode:lr-tb;direction:ltr;text-anchor:start;fill:#00aa44;fill-opacity:1;stroke:#005b24;stroke-width:1.52753;stroke-dasharray:none;stroke-opacity:1"
       x="-696.48224"
       y="388.96628"
       id="text1-8-7-6-2-6"
       transform="scale(0.97449598,1.0261715)"><tspan
         sodipodi:role="line"
         id="tspan1-2-1-1-1-1"
         x="-696.48224"
         y="388.96628"
         style="stroke-width:1.52753">0.0</tspan></text><text
       xml:space="preserve"
       style="font-size:18.3016px;text-align:start;writing-mode:lr-tb;direction:ltr;text-anchor:start;fill:#00aa44;fill-opacity:1;stroke:#005b24;stroke-width:1.52753;stroke-dasharray:none;stroke-opacity:1"
       x="-653.46088"
       y="509.79236"
       id="text1-8-7-6-2-6-8"
       transform="scale(0.97449598,1.0261715)"><tspan
         sodipodi:role="line"
         id="tspan1-2-1-1-1-1-7"
         x="-653.46088"
         y="509.79236"
         style="stroke-width:1.52753">0.0</tspan></text><text
       id="text2-1-1-1-1-3"
       xml:space="preserve"
       transform="scale(1.024624,0.97596776)"
       x="-535.18707"
       y="561.92621"
       style="font-size:13.6142px;fill:none;stroke:#003d17;stroke-width:1.13452;stroke-opacity:1"><tspan
         id="tspan2-1-4-6-8-41"
         style="font-variant:normal;font-weight:normal;font-size:23.5001px;font-family:Verdana;writing-mode:lr-tb;fill:none;fill-opacity:1;fill-rule:nonzero;stroke:#003d17;stroke-width:1.13452;stroke-opacity:1"
         x="-535.18707"
         y="561.92621">Modulation depth [rad] </tspan></text><text
       id="text2-1-1-1-1-3-8"
       xml:space="preserve"
       transform="matrix(5.7179419e-4,-1.0246238,0.97596765,5.4464145e-4,0,0)"
       x="-423.54126"
       y="-710.8548"
       style="font-size:13.6142px;fill:none;stroke:#003d17;stroke-width:1.13452;stroke-opacity:1"><tspan
         id="tspan2-1-4-6-8-41-4"
         style="font-variant:normal;font-weight:normal;font-size:23.5001px;font-family:Verdana;writing-mode:lr-tb;fill:none;fill-opacity:1;fill-rule:nonzero;stroke:#003d17;stroke-width:1.13452;stroke-opacity:1"
         x="-423.54126"
         y="-710.8548">RF amplitude [u.a]</tspan></text><path
       style="opacity:1;fill:none;fill-opacity:1;stroke:#00aa44;stroke-width:2.13543;stroke-dasharray:none;stroke-opacity:1"
       d="m -234.08211,172.46666 c 17.78148,0 17.78148,0 17.78148,0"
       id="path1" /><path
       style="fill:none;fill-opacity:1;stroke:#800080;stroke-width:2.13543;stroke-dasharray:none;stroke-opacity:1"
       d="m -233.98908,194.93314 c 17.78148,0 17.78148,0 17.78148,0"
       id="path1-8" /><text
       xml:space="preserve"
       style="text-align:start;writing-mode:lr-tb;direction:ltr;text-anchor:start;opacity:1;fill:none;fill-opacity:1;stroke:#800080;stroke-width:2.13543;stroke-dasharray:none;stroke-opacity:1"
       x="-255.11964"
       y="170.31253"
       id="text3"><tspan
         sodipodi:role="line"
         id="tspan3"
         x="-255.11964"
         y="170.31253" /></text><g
       id="page1-2"
       transform="matrix(1.5066667,0,0,1.5066666,-544.0223,80.571718)"
       style="fill:none;stroke:#800080;stroke-width:0.499199;stroke-dasharray:none;stroke-opacity:1"><use
         x="221.83749"
         y="80.199249"
         xlink:href="#g0-106"
         id="use1"
         style="fill:none;stroke:#800080;stroke-width:0.499199;stroke-dasharray:none;stroke-opacity:1" /><use
         x="225.15839"
         y="80.199249"
         xlink:href="#g1-74"
         id="use2"
         style="fill:none;stroke:#800080;stroke-width:0.499199;stroke-dasharray:none;stroke-opacity:1" /><use
         x="231.62854"
         y="81.992516"
         xlink:href="#g2-49"
         id="use3"
         style="fill:none;stroke:#800080;stroke-width:0.499199;stroke-dasharray:none;stroke-opacity:1" /><use
         x="236.36086"
         y="80.199249"
         xlink:href="#g0-106"
         id="use4"
         style="fill:none;stroke:#800080;stroke-width:0.499199;stroke-dasharray:none;stroke-opacity:1" /><use
         x="239.68175"
         y="74.387718"
         xlink:href="#g2-50"
         id="use5"
         style="fill:none;stroke:#800080;stroke-width:0.499199;stroke-dasharray:none;stroke-opacity:1" /></g><g
       id="page1-9"
       transform="matrix(1.5066667,0,0,1.5066666,-543.16502,55.996421)"
       style="fill:none;stroke:#00aa44;stroke-width:0.501707;stroke-dasharray:none;stroke-opacity:1"><use
         x="221.83749"
         y="80.199249"
         xlink:href="#g0-106-1"
         id="use1-8"
         style="fill:none;stroke:#00aa44;stroke-width:0.501707;stroke-dasharray:none;stroke-opacity:1" /><use
         x="225.15839"
         y="80.199249"
         xlink:href="#g1-74-5"
         id="use2-4"
         style="fill:none;stroke:#00aa44;stroke-width:0.501707;stroke-dasharray:none;stroke-opacity:1" /><use
         x="231.62854"
         y="81.992516"
         xlink:href="#g2-48"
         id="use3-0"
         style="fill:none;stroke:#00aa44;stroke-width:0.501707;stroke-dasharray:none;stroke-opacity:1" /><use
         x="236.36086"
         y="80.199249"
         xlink:href="#g0-106-1"
         id="use4-7"
         style="fill:none;stroke:#00aa44;stroke-width:0.501707;stroke-dasharray:none;stroke-opacity:1" /><use
         x="239.68175"
         y="74.387718"
         xlink:href="#g2-50-3"
         id="use5-6"
         style="fill:none;stroke:#00aa44;stroke-width:0.501707;stroke-dasharray:none;stroke-opacity:1" /></g></g></svg>
