<?xml version="1.0" encoding="UTF-8" standalone="no"?>
<!-- Created with Inkscape (http://www.inkscape.org/) -->

<svg
   version="1.1"
   id="svg1"
   width="796.15997"
   height="1088"
   viewBox="0 0 796.15997 1088"
   sodipodi:docname="hund_case_c.svg"
   xml:space="preserve"
   inkscape:version="1.4.2 (f4327f4, 2025-05-13)"
   inkscape:export-filename="hund_case_c.pdf"
   inkscape:export-xdpi="96"
   inkscape:export-ydpi="96"
   xmlns:inkscape="http://www.inkscape.org/namespaces/inkscape"
   xmlns:sodipodi="http://sodipodi.sourceforge.net/DTD/sodipodi-0.dtd"
   xmlns:xlink="http://www.w3.org/1999/xlink"
   xmlns="http://www.w3.org/2000/svg"
   xmlns:svg="http://www.w3.org/2000/svg"><defs
     id="defs1"><marker
       style="overflow:visible"
       id="marker42"
       refX="0"
       refY="0"
       orient="auto-start-reverse"
       inkscape:stockid="Triangle arrow"
       markerWidth="1"
       markerHeight="1"
       viewBox="0 0 1 1"
       inkscape:isstock="true"
       inkscape:collect="always"
       preserveAspectRatio="xMidYMid"><path
         transform="scale(0.5)"
         style="fill:context-stroke;fill-rule:evenodd;stroke:context-stroke;stroke-width:1pt"
         d="M 5.77,0 -2.88,5 V -5 Z"
         id="path42" /></marker><marker
       style="overflow:visible"
       id="Triangle"
       refX="0"
       refY="0"
       orient="auto-start-reverse"
       inkscape:stockid="Triangle arrow"
       markerWidth="1"
       markerHeight="1"
       viewBox="0 0 1 1"
       inkscape:isstock="true"
       inkscape:collect="always"
       preserveAspectRatio="xMidYMid"><path
         transform="scale(0.5)"
         style="fill:context-stroke;fill-rule:evenodd;stroke:context-stroke;stroke-width:1pt"
         d="M 5.77,0 -2.88,5 V -5 Z"
         id="path135" /></marker><marker
       style="overflow:visible"
       id="ArrowTriangleStylized"
       refX="0"
       refY="0"
       orient="auto-start-reverse"
       inkscape:stockid="Stylized triangle arrow"
       markerWidth="1"
       markerHeight="1"
       viewBox="0 0 1 1"
       inkscape:isstock="true"
       inkscape:collect="always"
       preserveAspectRatio="xMidYMid"><path
         transform="scale(0.5)"
         style="fill:context-stroke;fill-rule:evenodd;stroke:context-stroke;stroke-width:1pt"
         d="m 6,0 c -3,1 -7,3 -9,5 0,0 0,-4 2,-5 -2,-1 -2,-5 -2,-5 2,2 6,4 9,5 z"
         id="path4" /></marker><linearGradient
       id="swatch37"
       inkscape:swatch="solid"><stop
         style="stop-color:#ff0000;stop-opacity:1;"
         offset="0"
         id="stop37" /></linearGradient><inkscape:path-effect
       effect="spiro"
       id="path-effect34"
       is_visible="true"
       lpeversion="1" /><inkscape:perspective
       sodipodi:type="inkscape:persp3d"
       inkscape:vp_x="0 : 544 : 1"
       inkscape:vp_y="0 : 1000 : 0"
       inkscape:vp_z="796.15997 : 544 : 1"
       inkscape:persp3d-origin="398.07999 : 362.66667 : 1"
       id="perspective27" /><inkscape:path-effect
       effect="spiro"
       id="path-effect24"
       is_visible="true"
       lpeversion="1" /><pattern
       inkscape:collect="always"
       xlink:href="#Strips1_3"
       preserveAspectRatio="xMidYMid"
       id="pattern22"
       patternTransform="matrix(2,0,0,2,25.13336,-38.105416)" /><pattern
       inkscape:collect="always"
       patternUnits="userSpaceOnUse"
       width="4"
       height="1"
       patternTransform="translate(0,0) scale(2,2)"
       preserveAspectRatio="xMidYMid"
       id="Strips1_3"
       style="fill:#000000"
       inkscape:stockid="Stripes 04 (1:3)"
       inkscape:isstock="true"
       inkscape:label="Rayures 1:3">
      <rect
   style="stroke:none"
   x="0"
   y="-0.5"
   width="1"
   height="2"
   id="rect152" />
    </pattern><inkscape:path-effect
       effect="spiro"
       id="path-effect7"
       is_visible="true"
       lpeversion="1" /><inkscape:path-effect
       effect="spiro"
       id="path-effect34-1"
       is_visible="true"
       lpeversion="1" /><inkscape:path-effect
       effect="spiro"
       id="path-effect34-14"
       is_visible="true"
       lpeversion="1" /><inkscape:path-effect
       effect="spiro"
       id="path-effect34-1-2"
       is_visible="true"
       lpeversion="1" /><path
       id="g0-83"
       d="M7.591532-8.308842C7.591532-8.416438 7.507846-8.416438 7.483935-8.416438C7.436115-8.416438 7.424159-8.404483 7.280697-8.225156C7.208966-8.141469 6.718804-7.519801 6.706849-7.507846C6.312329-8.284932 5.523288-8.416438 5.021171-8.416438C3.502864-8.416438 2.12802-7.029639 2.12802-5.678705C2.12802-4.782067 2.666002-4.25604 3.251806-4.052802C3.383313-4.004981 4.088667-3.813699 4.447323-3.730012C5.057036-3.56264 5.212453-3.514819 5.463512-3.251806C5.511333-3.19203 5.750436-2.917061 5.750436-2.355168C5.750436-1.243337 4.722291-.095641 3.526775-.095641C2.546451-.095641 1.458531-.514072 1.458531-1.853051C1.458531-2.080199 1.506351-2.367123 1.542217-2.486675C1.542217-2.52254 1.554172-2.582316 1.554172-2.606227C1.554172-2.654047 1.530262-2.713823 1.43462-2.713823C1.327024-2.713823 1.315068-2.689913 1.267248-2.486675L.657534-.035866C.657534-.02391 .609714 .131507 .609714 .143462C.609714 .251059 .705355 .251059 .729265 .251059C.777086 .251059 .789041 .239103 .932503 .059776L1.482441-.657534C1.769365-.227148 2.391034 .251059 3.502864 .251059C5.045081 .251059 6.455791-1.243337 6.455791-2.737733C6.455791-3.239851 6.336239-3.682192 5.881943-4.124533C5.630884-4.375592 5.415691-4.435367 4.315816-4.722291C3.514819-4.937484 3.407223-4.97335 3.19203-5.164633C2.988792-5.36787 2.833375-5.654795 2.833375-6.06127C2.833375-7.065504 3.849564-8.093649 4.985305-8.093649C6.156912-8.093649 6.706849-7.376339 6.706849-6.240598C6.706849-5.929763 6.647073-5.606974 6.647073-5.559153C6.647073-5.451557 6.742715-5.451557 6.77858-5.451557C6.886177-5.451557 6.898132-5.487422 6.945953-5.678705L7.591532-8.308842Z" /><path
       id="g0-126"
       d="M6.396015-7.137235C6.252553-7.005729 5.810212-6.587298 5.810212-6.419925C5.810212-6.300374 5.917808-6.192777 6.03736-6.192777C6.144956-6.192777 6.192777-6.264508 6.276463-6.38406C6.563387-6.742715 6.886177-6.969863 7.161146-7.12528C7.280697-7.197011 7.364384-7.232877 7.364384-7.364384C7.364384-7.47198 7.268742-7.531756 7.197011-7.591532C6.862267-7.81868 6.77858-8.141469 6.742715-8.284932C6.706849-8.380573 6.670984-8.524035 6.503611-8.524035C6.43188-8.524035 6.288418-8.476214 6.288418-8.296887C6.288418-8.18929 6.360149-7.902366 6.587298-7.579577H2.570361C2.367123-7.579577 2.163885-7.579577 2.163885-7.352428C2.163885-7.137235 2.379078-7.137235 2.570361-7.137235H6.396015Z" /><path
       id="g0-76"
       d="M4.387547-7.244832C4.495143-7.699128 4.531009-7.81868 5.583064-7.81868C5.905853-7.81868 5.989539-7.81868 5.989539-8.045828C5.989539-8.16538 5.858032-8.16538 5.810212-8.16538C5.571108-8.16538 5.296139-8.141469 5.057036-8.141469H3.455044C3.227895-8.141469 2.964882-8.16538 2.737733-8.16538C2.642092-8.16538 2.510585-8.16538 2.510585-7.938232C2.510585-7.81868 2.618182-7.81868 2.797509-7.81868C3.526775-7.81868 3.526775-7.723039 3.526775-7.591532C3.526775-7.567621 3.526775-7.49589 3.478954-7.316563L1.865006-.884682C1.75741-.466252 1.733499-.3467 .896638-.3467C.669489-.3467 .549938-.3467 .549938-.131507C.549938 0 .621669 0 .860772 0H6.216687C6.479701 0 6.491656-.011955 6.575342-.227148L7.49589-2.773599C7.519801-2.833375 7.543711-2.905106 7.543711-2.940971C7.543711-3.012702 7.483935-3.060523 7.424159-3.060523C7.412204-3.060523 7.352428-3.060523 7.328518-3.012702C7.304608-3.000747 7.304608-2.976837 7.208966-2.749689C6.826401-1.697634 6.288418-.3467 4.267995-.3467H3.120299C2.952927-.3467 2.929016-.3467 2.857285-.358655C2.725778-.37061 2.713823-.394521 2.713823-.490162C2.713823-.573848 2.737733-.645579 2.761644-.753176L4.387547-7.244832Z" /><path
       id="g0-126-3"
       d="M6.396015-7.137235C6.252553-7.005729 5.810212-6.587298 5.810212-6.419925C5.810212-6.300374 5.917808-6.192777 6.03736-6.192777C6.144956-6.192777 6.192777-6.264508 6.276463-6.38406C6.563387-6.742715 6.886177-6.969863 7.161146-7.12528C7.280697-7.197011 7.364384-7.232877 7.364384-7.364384C7.364384-7.47198 7.268742-7.531756 7.197011-7.591532C6.862267-7.81868 6.77858-8.141469 6.742715-8.284932C6.706849-8.380573 6.670984-8.524035 6.503611-8.524035C6.43188-8.524035 6.288418-8.476214 6.288418-8.296887C6.288418-8.18929 6.360149-7.902366 6.587298-7.579577H2.570361C2.367123-7.579577 2.163885-7.579577 2.163885-7.352428C2.163885-7.137235 2.379078-7.137235 2.570361-7.137235H6.396015Z" /><path
       id="g2-10"
       d="M7.914321-1.865006H7.651308C7.591532-1.554172 7.531756-1.243337 7.436115-.992279C7.376339-.800996 7.340473-.705355 6.647073-.705355H5.702615C5.846077-1.374844 6.192777-1.948692 6.682939-2.689913C7.244832-3.56264 7.79477-4.435367 7.79477-5.427646C7.79477-7.07746 6.216687-8.416438 4.220174-8.416438C2.211706-8.416438 .645579-7.065504 .645579-5.427646C.645579-4.447323 1.183562-3.58655 1.745455-2.713823C2.247572-1.936737 2.606227-1.374844 2.737733-.705355H1.793275C1.099875-.705355 1.06401-.800996 1.004234-.980324C.908593-1.231382 .848817-1.578082 .789041-1.865006H.526027L.908593 0H2.761644C3.024658 0 3.048568 0 3.048568-.215193C3.048568-1.06401 2.666002-2.10411 2.426899-2.713823C2.080199-3.658281 1.75741-4.531009 1.75741-5.439601C1.75741-7.280697 3.036613-8.177335 4.220174-8.177335S6.682939-7.280697 6.682939-5.439601C6.682939-4.531009 6.348194-3.634371 6.01345-2.749689C5.810212-2.175841 5.391781-1.075965 5.391781-.227148C5.391781 0 5.427646 0 5.69066 0H7.531756L7.914321-1.865006Z" /><path
       id="g0-126-4"
       d="M3.048568-6.575342H5.36787C5.571108-6.575342 5.702615-6.575342 5.702615-6.718804C5.702615-6.874222 5.559153-6.874222 5.332005-6.874222H3.120299C3.203985-7.173101 3.203985-7.197011 3.275716-7.49589C3.335492-7.711083 3.443088-8.129514 3.443088-8.153425C3.443088-8.261021 3.371357-8.296887 3.275716-8.296887C3.048568-8.296887 2.10411-8.201245 1.817186-8.177335C1.721544-8.16538 1.590037-8.153425 1.590037-7.926276C1.590037-7.79477 1.709589-7.79477 1.876961-7.79477C2.450809-7.79477 2.47472-7.711083 2.47472-7.591532C2.47472-7.507846 2.367123-7.113325 2.307347-6.874222H1.637858C1.398755-6.874222 1.267248-6.874222 1.267248-6.718804C1.267248-6.575342 1.374844-6.575342 1.601993-6.575342H2.235616L.705355-.478207C.657534-.298879 .657534-.274969 .657534-.203238C.657534 .059776 .860772 .131507 1.004234 .131507C1.231382 .131507 1.398755-.035866 1.446575-.191283C1.470486-.251059 1.601993-.789041 1.673724-1.08792L1.948692-2.15193C1.984558-2.331258 2.10411-2.785554 2.139975-2.964882C2.199751-3.156164 2.283437-3.526775 2.295392-3.56264C2.391034-3.765878 3.036613-5.021171 4.23213-5.021171C4.758157-5.021171 4.877709-4.590785 4.877709-4.196264C4.877709-3.455044 4.327771-1.996513 4.112578-1.446575C4.040847-1.255293 3.981071-1.08792 3.981071-.860772C3.981071-.239103 4.423412 .131507 4.961395 .131507C6.109091 .131507 6.527522-1.637858 6.527522-1.709589C6.527522-1.829141 6.419925-1.829141 6.38406-1.829141C6.264508-1.829141 6.264508-1.793275 6.204732-1.613948C5.858032-.394521 5.32005-.131507 4.99726-.131507C4.770112-.131507 4.698381-.274969 4.698381-.526027C4.698381-.824907 4.829888-1.159651 4.901619-1.362889C5.104857-1.888917 5.642839-3.323537 5.642839-3.993026C5.642839-4.865753 5.092902-5.284184 4.267995-5.284184C3.897385-5.284184 3.180075-5.200498 2.49863-4.375592L3.048568-6.575342Z" /><path
       id="g1-126"
       d="M6.396015-7.137235C6.252553-7.005729 5.810212-6.587298 5.810212-6.419925C5.810212-6.300374 5.917808-6.192777 6.03736-6.192777C6.144956-6.192777 6.192777-6.264508 6.276463-6.38406C6.563387-6.742715 6.886177-6.969863 7.161146-7.12528C7.280697-7.197011 7.364384-7.232877 7.364384-7.364384C7.364384-7.47198 7.268742-7.531756 7.197011-7.591532C6.862267-7.81868 6.77858-8.141469 6.742715-8.284932C6.706849-8.380573 6.670984-8.524035 6.503611-8.524035C6.43188-8.524035 6.288418-8.476214 6.288418-8.296887C6.288418-8.18929 6.360149-7.902366 6.587298-7.579577H2.570361C2.367123-7.579577 2.163885-7.579577 2.163885-7.352428C2.163885-7.137235 2.379078-7.137235 2.570361-7.137235H6.396015Z" /><path
       id="g0-74"
       d="M6.38406-7.340473C6.479701-7.699128 6.503611-7.81868 7.089415-7.81868C7.280697-7.81868 7.400249-7.81868 7.400249-8.033873C7.400249-8.16538 7.292653-8.16538 7.244832-8.16538C7.041594-8.16538 6.814446-8.141469 6.599253-8.141469H5.941719C5.439601-8.141469 4.913574-8.16538 4.411457-8.16538C4.303861-8.16538 4.160399-8.16538 4.160399-7.950187C4.160399-7.830635 4.25604-7.830635 4.25604-7.81868H4.554919C5.511333-7.81868 5.511333-7.723039 5.511333-7.543711C5.511333-7.531756 5.511333-7.44807 5.463512-7.256787L4.088667-1.793275C3.777833-.573848 2.976837 .011955 2.402989 .011955C1.996513 .011955 1.422665-.179328 1.279203-.812951C1.327024-.800996 1.3868-.789041 1.43462-.789041C1.829141-.789041 2.139975-1.135741 2.139975-1.482441C2.139975-1.673724 2.020423-1.924782 1.661768-1.924782C1.446575-1.924782 .944458-1.80523 .944458-1.028144C.944458-.274969 1.566127 .251059 2.426899 .251059C3.514819 .251059 4.686426-.573848 4.97335-1.709589L6.38406-7.340473Z" /><path
       id="g0-126-42"
       d="M6.396015-7.137235C6.252553-7.005729 5.810212-6.587298 5.810212-6.419925C5.810212-6.300374 5.917808-6.192777 6.03736-6.192777C6.144956-6.192777 6.192777-6.264508 6.276463-6.38406C6.563387-6.742715 6.886177-6.969863 7.161146-7.12528C7.280697-7.197011 7.364384-7.232877 7.364384-7.364384C7.364384-7.47198 7.268742-7.531756 7.197011-7.591532C6.862267-7.81868 6.77858-8.141469 6.742715-8.284932C6.706849-8.380573 6.670984-8.524035 6.503611-8.524035C6.43188-8.524035 6.288418-8.476214 6.288418-8.296887C6.288418-8.18929 6.360149-7.902366 6.587298-7.579577H2.570361C2.367123-7.579577 2.163885-7.579577 2.163885-7.352428C2.163885-7.137235 2.379078-7.137235 2.570361-7.137235H6.396015Z" /></defs><sodipodi:namedview
     id="namedview1"
     pagecolor="#ffffff"
     bordercolor="#000000"
     borderopacity="0.25"
     inkscape:showpageshadow="2"
     inkscape:pageopacity="0.0"
     inkscape:pagecheckerboard="0"
     inkscape:deskcolor="#d1d1d1"
     showgrid="false"
     inkscape:zoom="4.9336818"
     inkscape:cx="146.23967"
     inkscape:cy="130.42998"
     inkscape:window-width="1920"
     inkscape:window-height="1009"
     inkscape:window-x="1072"
     inkscape:window-y="-8"
     inkscape:window-maximized="1"
     inkscape:current-layer="g2"><inkscape:page
       x="0"
       y="0"
       inkscape:label="372"
       id="page1"
       width="796.15997"
       height="1088"
       margin="0"
       bleed="0" /></sodipodi:namedview><g
     id="g2"
     transform="translate(5.6752766,186.47331)"><g
       id="g27"
       inkscape:label="Axe internucleaire"
       transform="translate(2.8664466,-2.8664466)"><path
         style="fill:#24221c;stroke:url(#pattern22);stroke-width:0.884819;stroke-opacity:1"
         d="M 256.39419,-63.036886 112.87486,5.1169436"
         id="path8" /><ellipse
         style="fill:#24221c;stroke:#000000;stroke-opacity:1"
         id="path22"
         cx="130.53131"
         cy="-3.6483839"
         rx="8.1075354"
         ry="6.8914051" /><ellipse
         style="fill:#24221c;stroke:#000000;stroke-opacity:1"
         id="path23"
         cx="237.14542"
         cy="-55.941994"
         rx="6.8914051"
         ry="6.4860282" /></g><ellipse
       style="fill:none;stroke:#000000;stroke-width:0.948046;stroke-opacity:1"
       id="path33"
       cx="188.44266"
       cy="-36.3647"
       rx="14.828075"
       ry="5.6029239"
       transform="rotate(-11.271796)" /><path
       style="fill:#24221c;fill-opacity:1;fill-rule:evenodd;stroke:#000000;stroke-opacity:1;marker-start:url(#marker42)"
       d="m 92.787165,-136.31049 11.743605,44.716564"
       id="path34"
       inkscape:path-effect="#path-effect34"
       inkscape:original-d="m 92.787165,-136.31049 11.743605,44.716564"
       transform="matrix(1.0831365,-0.20569095,0.17839128,0.85281874,88.675692,70.27663)"
       sodipodi:nodetypes="cc" /><path
       style="fill:#24221c;fill-opacity:1;fill-rule:evenodd;stroke:#000000;stroke-opacity:1"
       d="m 92.787165,-136.31049 12.907825,44.716564"
       id="path34-2"
       inkscape:path-effect="#path-effect34-1"
       inkscape:original-d="m 92.787165,-136.31049 12.907825,44.716564"
       transform="matrix(-1.1658147,0.23235603,0.19200827,0.96337527,326.57681,34.357994)"
       sodipodi:nodetypes="cc" /><path
       style="opacity:0.407514;fill:#ff0000;fill-opacity:1;fill-rule:evenodd;stroke:#ff0000;stroke-width:0.10175;stroke-dasharray:none;stroke-dashoffset:0;stroke-opacity:1"
       d="m 163.36683,-44.66658 c 0.58928,-0.12455 0.63426,-0.21931 1.45565,-3.06702 0.46616,-1.61617 0.85381,-3.04645 0.86142,-3.17839 0.008,-0.13194 -0.23698,-0.27789 -0.54354,-0.32433 -0.30657,-0.0464 0.17228,-0.0861 1.06411,-0.0881 1.029,-0.002 1.36364,0.0421 0.91581,0.12165 l -0.7057,0.12533 -0.86042,3.04033 c -0.47323,1.67218 -0.86254,3.10873 -0.86513,3.19234 -0.003,0.0836 0.62675,0.15202 1.39855,0.15202 1.21395,0 1.48739,-0.0708 2.02688,-0.52474 0.68353,-0.57515 0.71726,-0.55872 0.42594,0.20751 l -0.19767,0.51991 -2.79198,-0.024 c -1.53559,-0.0132 -2.51835,-0.0818 -2.18392,-0.1525 z"
       id="path72" /><g
       id="g34-2"
       inkscape:label="Cône"
       transform="matrix(0.6201863,-0.15047108,0.12184759,0.69157016,121.6134,5.7102311)"><ellipse
         style="fill:none;stroke:#000000;stroke-opacity:1"
         id="path33-1"
         cx="108.43829"
         cy="-136.20659"
         rx="15.201629"
         ry="6.0806518" /><path
         style="fill:#24221c;fill-opacity:1;fill-rule:evenodd;stroke:#000000;stroke-opacity:1;marker-start:url(#marker42)"
         d="m 92.787165,-136.31049 11.743605,44.716564"
         id="path34-6"
         inkscape:path-effect="#path-effect34-14"
         inkscape:original-d="m 92.787165,-136.31049 11.743605,44.716564"
         transform="matrix(1.0592714,-0.03227963,0.05683347,0.95697122,3.4180771,2.4313409)"
         sodipodi:nodetypes="cc" /><path
         style="fill:#24221c;fill-opacity:1;fill-rule:evenodd;stroke:#000000;stroke-opacity:1"
         d="m 92.787165,-136.31049 12.907825,44.716564"
         id="path34-2-8"
         inkscape:path-effect="#path-effect34-1-2"
         inkscape:original-d="m 92.787165,-136.31049 12.907825,44.716564"
         transform="matrix(-1.2186916,0,0,1.0660802,236.70942,9.1035208)"
         sodipodi:nodetypes="cc" /></g><path
       style="opacity:1;fill:#ff0000;fill-opacity:1;fill-rule:evenodd;stroke:#aad400;stroke-width:0.551814;stroke-dasharray:none;stroke-dashoffset:0;stroke-opacity:1;marker-end:url(#ArrowTriangleStylized)"
       d="M 185.25789,-30.342623 170.86454,-113.41095"
       id="path37"
       sodipodi:nodetypes="cc" /><path
       style="opacity:0.407514;fill:#ff0000;fill-opacity:1;fill-rule:evenodd;stroke:#aad400;stroke-width:0.377623;stroke-dasharray:none;stroke-dashoffset:0;stroke-opacity:1;marker-start:url(#marker42);marker-end:url(#Triangle)"
       d="m 165.60517,-18.450168 20.78922,-9.249963"
       id="path41" /><path
       style="opacity:0.407514;fill:#ff0000;fill-opacity:0.407843;fill-rule:evenodd;stroke:#ff0000;stroke-width:0.0508748;stroke-dasharray:none;stroke-dashoffset:0;stroke-opacity:1"
       d="m 181.01645,107.95806 c -0.0784,-0.12605 -2.36526,-4.40203 -5.08199,-9.502177 -2.71672,-5.100146 -5.04744,-9.462137 -5.17936,-9.693312 l -0.23986,-0.420319 0.75443,-0.431651 c 0.41494,-0.237408 0.73333,-0.465787 0.70755,-0.50751 -0.0258,-0.04172 -0.41376,-0.290944 -0.86217,-0.553827 -0.44841,-0.262883 -0.80117,-0.492085 -0.78392,-0.509339 0.0173,-0.01725 0.34995,0.05711 0.73933,0.165249 1.44353,0.400912 4.14445,0.422408 6.29049,0.05006 3.44032,-0.596906 6.8224,-2.075418 8.67862,-3.793948 l 0.60183,-0.557189 -0.0584,0.347724 c -0.0321,0.191249 -0.6776,5.911127 -1.43443,12.710842 -0.75682,6.799717 -1.38872,12.375787 -1.4042,12.391267 -0.0155,0.0155 -0.50233,0.11747 -1.08188,0.22664 -0.57955,0.10916 -1.15495,0.22282 -1.27866,0.25257 -0.16078,0.0387 -0.26557,-0.0113 -0.36741,-0.17508 z"
       id="path81"
       transform="translate(-5.6752766,-186.47331)" /><path
       style="opacity:0.407514;fill:#ff0000;fill-opacity:0.407843;fill-rule:evenodd;stroke:#ff0000;stroke-width:0.0508748;stroke-dasharray:none;stroke-dashoffset:0;stroke-opacity:1"
       d="m 178.58431,103.2444 c -1.42339,-2.66156 -3.79363,-7.094639 -5.2672,-9.851302 l -2.67921,-5.012112 0.6716,-0.412559 c 0.36938,-0.226907 0.67159,-0.470776 0.67159,-0.541931 0,-0.07115 -0.25082,-0.289975 -0.55739,-0.486268 l -0.55739,-0.356896 0.40538,0.06119 c 2.15146,0.324763 4.09196,0.312737 6.13132,-0.038 3.33223,-0.573087 6.7544,-2.054051 8.61779,-3.729396 l 0.52793,-0.474662 -0.0634,0.400557 c -0.0349,0.220307 -0.56546,4.89264 -1.17909,10.382961 -1.53126,13.700678 -1.60352,14.314968 -1.69308,14.393918 -0.0659,0.0581 -2.16798,0.50401 -2.37463,0.50376 -0.0364,-4e-5 -1.23083,-2.17771 -2.65422,-4.83926 z"
       id="path82"
       transform="translate(-5.6752766,-186.47331)" /><path
       style="opacity:0.407514;fill:#ff0000;fill-opacity:0.407843;fill-rule:evenodd;stroke:#ff0000;stroke-width:0.0508748;stroke-dasharray:none;stroke-dashoffset:0;stroke-opacity:1"
       d="m 181.07014,107.65287 c -0.54078,-0.88846 -10.2545,-19.074272 -10.2545,-19.198247 0,-0.0519 0.27363,-0.271434 0.60806,-0.487864 0.33444,-0.21643 0.60807,-0.445236 0.60807,-0.508457 0,-0.124653 -0.33434,-0.45462 -0.65874,-0.650133 -0.1871,-0.112761 -0.1832,-0.117123 0.0507,-0.05671 0.55235,0.142688 3.9802,0.177388 5.05076,0.05113 3.42058,-0.403413 7.32916,-1.947638 9.41613,-3.720178 0.29263,-0.248542 0.53205,-0.435321 0.53205,-0.415063 0,0.395231 -2.81428,24.823552 -2.86452,24.864362 -0.0477,0.0387 -2.00974,0.45053 -2.1466,0.45053 -0.0775,0 -0.23111,-0.14822 -0.34138,-0.32937 z"
       id="path83"
       transform="translate(-5.6752766,-186.47331)" /><path
       style="opacity:0.407514;fill:#ff0000;fill-opacity:0.407843;fill-rule:evenodd;stroke:#ff0000;stroke-width:0.0508748;stroke-dasharray:none;stroke-dashoffset:0;stroke-opacity:1"
       d="m 182.47022,110.69984 c -0.41805,-0.78609 -0.77274,-1.46067 -0.78821,-1.49907 -0.0214,-0.0531 1.64418,-0.40778 1.91492,-0.40778 0.0477,0 -0.26768,3.05237 -0.33546,3.24672 -0.0171,0.0492 -0.37321,-0.55378 -0.79125,-1.33987 z"
       id="path84"
       transform="translate(-5.6752766,-186.47331)" /><path
       style="opacity:0.407514;fill:#ff0000;fill-opacity:0.407843;fill-rule:evenodd;stroke:#ff0000;stroke-width:0.0508748;stroke-dasharray:none;stroke-dashoffset:0;stroke-opacity:1"
       d="m 182.78262,111.09857 c -0.18834,-0.34837 -0.49692,-0.9143 -0.68572,-1.25763 l -0.34328,-0.62423 0.48498,-0.10259 c 1.30856,-0.27678 1.24504,-0.28179 1.24521,0.0983 2.4e-4,0.5597 -0.23103,2.51955 -0.29731,2.51955 -0.0338,0 -0.21553,-0.28503 -0.40388,-0.6334 z"
       id="path85"
       transform="translate(-5.6752766,-186.47331)" /><path
       style="opacity:0.407514;fill:#ff0000;fill-opacity:0.407843;fill-rule:evenodd;stroke:#ff0000;stroke-width:0.0508748;stroke-dasharray:none;stroke-dashoffset:0;stroke-opacity:1"
       d="m 182.54287,110.4923 c -0.31865,-0.58201 -0.57937,-1.10211 -0.57937,-1.15579 0,-0.0876 0.97531,-0.34083 1.31272,-0.34083 0.10799,0 0.12136,0.19902 0.0667,0.99267 -0.0376,0.54597 -0.10263,1.1208 -0.14452,1.27741 -0.0716,0.2677 -0.11082,0.22142 -0.65553,-0.77346 z"
       id="path86"
       transform="translate(-5.6752766,-186.47331)" /><path
       style="opacity:0.407514;fill:#ff0000;fill-opacity:0.407843;fill-rule:evenodd;stroke:#ff0000;stroke-width:0.0508748;stroke-dasharray:none;stroke-dashoffset:0;stroke-opacity:1"
       d="m 181.37579,138.92748 c -5.55605,-9.58903 -8.69288,-15.09862 -8.61115,-15.12478 0.22701,-0.0727 0.27743,-0.24926 0.27902,-0.97704 l 0.002,-0.71292 0.66837,-0.24985 c 0.3676,-0.13742 0.6891,-0.28337 0.71444,-0.32433 0.0253,-0.041 -0.25262,-0.22177 -0.6177,-0.40179 -0.52835,-0.26055 -0.66377,-0.37457 -0.66377,-0.55893 0,-0.12739 0.0149,-0.23161 0.033,-0.23161 0.0182,0 0.53123,0.0717 1.14013,0.15926 0.72104,0.10372 1.84922,0.16002 3.23532,0.16147 2.21159,0.002 3.38626,-0.089 5.51275,-0.42837 0.69097,-0.11027 1.26538,-0.18818 1.27646,-0.17311 0.0631,0.0858 5.84179,33.73406 5.80987,33.82981 -0.0212,0.0637 -3.97148,-6.67182 -8.77832,-14.96781 z"
       id="path87"
       transform="translate(-5.6752766,-186.47331)" /><path
       style="opacity:0.407514;fill:#ff0000;fill-opacity:0.407843;fill-rule:evenodd;stroke:#ff0000;stroke-width:0.0508748;stroke-dasharray:none;stroke-dashoffset:0;stroke-opacity:1"
       d="m 188.05807,137.59996 c -1.63665,-9.46168 -2.99629,-17.31707 -3.02142,-17.45642 -0.0446,-0.24713 -0.015,-0.26047 1.20221,-0.54274 3.66455,-0.8498 7.34962,-2.43335 9.6064,-4.12805 0.55938,-0.42006 0.90816,-0.6265 0.87993,-0.52082 -0.0257,0.0963 -1.29401,9.10209 -2.81841,20.0129 -1.5244,10.9108 -2.79444,19.83791 -2.8223,19.83801 -0.0279,1e-4 -1.38976,-7.74119 -3.02641,-17.20288 z"
       id="path88"
       transform="translate(-5.6752766,-186.47331)" /><path
       style="opacity:0.407514;fill:#ff0000;fill-opacity:0.407843;fill-rule:evenodd;stroke:#ff0000;stroke-width:0.0508748;stroke-dasharray:none;stroke-dashoffset:0;stroke-opacity:1"
       d="m 187.72486,149.66569 c -4.82865,-8.22283 -13.99867,-24.12319 -14.62425,-25.3577 -0.17037,-0.33622 -0.2142,-0.51941 -0.14161,-0.592 0.0578,-0.0578 0.13506,-0.43417 0.17167,-0.83635 l 0.0666,-0.73125 0.6334,-0.25307 c 0.34837,-0.13919 0.6334,-0.3103 0.6334,-0.38024 0,-0.0699 -0.27363,-0.27301 -0.60807,-0.45127 -0.71558,-0.3814 -0.83185,-0.67787 -0.22802,-0.58146 2.27118,0.36264 5.98178,0.32787 8.83475,-0.0828 0.9713,-0.1398 1.78047,-0.23972 1.79815,-0.22204 0.10752,0.10752 5.7465,32.94193 5.68773,33.11826 -0.0183,0.055 -1.019,-1.57857 -2.22371,-3.6301 z"
       id="path89"
       transform="translate(-5.6752766,-186.47331)" /><path
       style="opacity:0.407514;fill:#ff0000;fill-opacity:0.407843;fill-rule:evenodd;stroke:#ff0000;stroke-width:0.0508748;stroke-dasharray:none;stroke-dashoffset:0;stroke-opacity:1"
       d="m 190.08322,148.79286 c -1.39127,-7.9477 -4.97805,-28.66352 -4.97805,-28.75123 0,-0.0416 0.57792,-0.22041 1.28426,-0.3973 3.60022,-0.9016 6.68526,-2.20309 9.08869,-3.83425 0.60497,-0.41059 1.11296,-0.73225 1.12887,-0.7148 0.0159,0.0174 -0.0349,0.45824 -0.11282,0.97954 -0.078,0.5213 -1.07756,7.61286 -2.22134,15.75902 -1.14378,8.14617 -2.30825,16.40351 -2.58773,18.34965 -0.27947,1.94614 -0.48604,3.59598 -0.45905,3.66632 0.027,0.0703 -0.007,0.17422 -0.075,0.23087 -0.0959,0.0796 -0.33839,-1.1211 -1.06779,-5.28782 z"
       id="path90"
       transform="translate(-5.6752766,-186.47331)" /><path
       style="opacity:0.407514;fill:#ff0000;fill-opacity:0.407843;fill-rule:evenodd;stroke:#ff0000;stroke-width:0.0508748;stroke-dasharray:none;stroke-dashoffset:0;stroke-opacity:1"
       d="m 188.57002,150.92684 c -3.00567,-5.03802 -14.59609,-25.10371 -15.31895,-26.52063 -0.19572,-0.38363 -0.20177,-0.47003 -0.0911,-1.30107 l 0.11851,-0.89015 0.61812,-0.30098 c 0.33997,-0.16554 0.61563,-0.34658 0.61259,-0.40232 -0.003,-0.0557 -0.26778,-0.27745 -0.58832,-0.49269 -0.32053,-0.21523 -0.56125,-0.41288 -0.53491,-0.43921 0.0263,-0.0263 0.46169,0.002 0.96746,0.0639 2.00375,0.24363 5.9778,0.12938 8.67648,-0.24945 0.60047,-0.0843 1.11473,-0.13028 1.14281,-0.1022 0.0975,0.0975 1.63849,8.88144 4.06307,23.16063 1.54901,9.12268 1.58126,9.32367 1.49597,9.32367 -0.0321,0 -0.55483,-0.83229 -1.16171,-1.84953 z"
       id="path91"
       transform="translate(-5.6752766,-186.47331)" /><path
       style="opacity:0.407514;fill:#ff0000;fill-opacity:0.407843;fill-rule:evenodd;stroke:#ff0000;stroke-width:0.0508748;stroke-dasharray:none;stroke-dashoffset:0;stroke-opacity:1"
       d="m 191.09634,153.84048 c -0.008,-0.0557 -0.10655,-0.55739 -0.21995,-1.11478 -0.1134,-0.55739 -1.0908,-6.09839 -2.17201,-12.31332 -2.951,-16.96274 -3.51801,-20.28248 -3.47209,-20.3284 0.023,-0.023 0.90456,-0.28747 1.95893,-0.58762 1.05437,-0.30015 2.37309,-0.71311 2.93049,-0.91767 1.44099,-0.52886 4.07623,-1.84396 5.29867,-2.64427 0.57321,-0.37527 1.05761,-0.66486 1.07644,-0.64352 0.0188,0.0213 -0.38821,3.02591 -0.90453,6.67684 -1.75549,12.41325 -4.30459,30.55272 -4.39354,31.26468 -0.0487,0.39017 -0.0948,0.6638 -0.10241,0.60806 z"
       id="path92"
       transform="translate(-5.6752766,-186.47331)" /></g><path
     style="opacity:0.407514;fill:#88aa00;fill-opacity:1;fill-rule:evenodd;stroke:#aad400;stroke-width:0.593088;stroke-dasharray:2.37235, 0.593088;stroke-dashoffset:0;stroke-opacity:1"
     d="m 175.97933,71.058938 -5.97844,94.372872"
     id="path40"
     sodipodi:nodetypes="cc" /><g
     id="page1-5"
     transform="matrix(0.9942695,0,0,1.0207081,-63.313551,25.985062)"><use
       x="230.25531"
       y="77.177261"
       xlink:href="#g0-126"
       id="use1" /><use
       x="229.17812"
       y="80.199249"
       xlink:href="#g0-83"
       id="use2" /></g><g
     id="page1-1"
     transform="matrix(0.95511651,0,0,0.86118372,-50.967604,72.979058)"><use
       x="229.605"
       y="77.177261"
       xlink:href="#g0-126-3"
       id="use1-2" /><use
       x="229.14354"
       y="80.199249"
       xlink:href="#g0-76"
       id="use2-3" /></g><g
     fill="#ff0000"
     id="g3"
     transform="matrix(1.0886932,0,0,1.1139197,-70.032596,94.312604)"
     style="fill:#aad400"><use
       x="225.66907"
       y="80.199249"
       xlink:href="#g0-126-4"
       id="use1-3"
       style="fill:#aad400" /><use
       x="232.5094"
       y="77.177261"
       xlink:href="#g1-126"
       id="use2-8"
       style="fill:#aad400" /><use
       x="232.1282"
       y="80.199249"
       xlink:href="#g2-10"
       id="use3"
       style="fill:#aad400" /></g></svg>
