<?xml version="1.0" encoding="UTF-8" standalone="no"?>
<!-- Created with Inkscape (http://www.inkscape.org/) -->

<svg
   width="210mm"
   height="297mm"
   viewBox="0 0 210 297"
   version="1.1"
   id="svg1"
   inkscape:version="1.4.3 (0d15f750, 2025-12-25)"
   sodipodi:docname="WKB_sakurai.svg"
   inkscape:export-filename="WKB_sakurai.pdf"
   inkscape:export-xdpi="96"
   inkscape:export-ydpi="96"
   xmlns:inkscape="http://www.inkscape.org/namespaces/inkscape"
   xmlns:sodipodi="http://sodipodi.sourceforge.net/DTD/sodipodi-0.dtd"
   xmlns="http://www.w3.org/2000/svg"
   xmlns:svg="http://www.w3.org/2000/svg">
  <sodipodi:namedview
     id="namedview1"
     pagecolor="#ffffff"
     bordercolor="#000000"
     borderopacity="0.25"
     inkscape:showpageshadow="2"
     inkscape:pageopacity="0.0"
     inkscape:pagecheckerboard="0"
     inkscape:deskcolor="#d1d1d1"
     inkscape:document-units="mm"
     inkscape:zoom="2.9054959"
     inkscape:cx="610.05077"
     inkscape:cy="399.93173"
     inkscape:window-width="1280"
     inkscape:window-height="687"
     inkscape:window-x="0"
     inkscape:window-y="25"
     inkscape:window-maximized="0"
     inkscape:current-layer="layer1" />
  <defs
     id="defs1">
    <clipPath
       clipPathUnits="userSpaceOnUse"
       id="clipPath10">
      <rect
         style="fill:none;fill-opacity:1;stroke:none;stroke-width:0.282001;stroke-dasharray:none"
         id="rect11"
         width="15.327159"
         height="41.400948"
         x="154.41672"
         y="85.796852" />
    </clipPath>
    <clipPath
       clipPathUnits="userSpaceOnUse"
       id="clipPath12">
      <rect
         style="fill:none;fill-opacity:1;stroke:none;stroke-width:0.282001;stroke-dasharray:none"
         id="rect13"
         width="14.182027"
         height="40.255817"
         x="155.29759"
         y="86.237289" />
    </clipPath>
    <clipPath
       clipPathUnits="userSpaceOnUse"
       id="clipPath14">
      <rect
         style="fill:none;fill-opacity:1;stroke:none;stroke-width:0.234;stroke-dasharray:none"
         id="rect15"
         width="19.026817"
         height="38.141724"
         x="125.52415"
         y="88.175209" />
    </clipPath>
    <clipPath
       clipPathUnits="userSpaceOnUse"
       id="clipPath19">
      <path
         style="fill:none;fill-opacity:1;stroke:none;stroke-width:0.228033;stroke-dasharray:none"
         d="m 124.11287,87.143612 1.65807,2.099858 0.75797,2.722045 1.80018,9.643795 1.70543,9.9549 1.84756,12.36584 1.08958,4.51082 1.13696,3.34422 0.66323,0.93327 0.66321,-0.23332 1.04222,-1.32214 2.1318,-9.17716 4.97418,-29.78691 1.4212,-4.121952 0.94746,-1.011041 z"
         id="path19" />
    </clipPath>
  </defs>
  <g
     inkscape:label="Calque 1"
     inkscape:groupmode="layer"
     id="layer1">
    <rect
       style="opacity:0.15;fill:#9d93ac;fill-opacity:1;stroke:none;stroke-width:0.1;stroke-dasharray:none;stroke-dashoffset:0;stroke-opacity:1"
       id="rect87-5"
       width="22.814566"
       height="43.250774"
       x="176.19641"
       y="82.522308" />
    <rect
       style="opacity:0.15;fill:#9d93ac;fill-opacity:1;stroke:none;stroke-width:0.1;stroke-dasharray:none;stroke-dashoffset:0;stroke-opacity:1"
       id="rect87"
       width="22.814566"
       height="43.250774"
       x="128.78337"
       y="82.097198" />
    <path
       id="path38-4"
       d="m 125.35414,91.476495 0.14731,-1.653561 0.14732,-0.982906 0.0737,-0.226854 0.0737,-0.04691 0.0737,0.133501 0.0737,0.3126 0.14731,1.148493 0.14732,1.805921 0.22098,3.780504 0.29463,6.499407 0.66293,15.58684 0.22097,3.86557 0.14732,1.87475 0.14732,1.22391 0.0737,0.35187 0.0737,0.1733 0.0737,-0.007 0.0737,-0.18717 0.0737,-0.36554 0.14732,-1.25012 0.14732,-1.89856 0.22097,-3.89484 0.29464,-6.59105 0.66293,-15.49269 0.22097,-3.750374 0.14732,-1.781685 0.14731,-1.122032 0.0737,-0.298852 0.0737,-0.119592 0.0737,0.06085 0.0737,0.240683 0.0737,0.418159 0.14732,1.350637 0.14731,1.989547 0.22098,4.005763 0.29463,6.676936 0.58927,13.92682 0.22098,4.01575 0.14731,1.99779 0.14732,1.35979 0.0737,0.42296 0.0737,0.24557 0.0737,0.0658 0.0737,-0.11466 0.0737,-0.29399 0.14731,-1.11264 0.14732,-1.77309 0.22098,-3.73965 0.29463,-6.46594 0.66293,-15.616609 0.22098,-3.905142 0.14731,-1.906966 0.14732,-1.259369 0.0737,-0.370371 0.0736,-0.192082 0.0737,-0.01191 0.0737,0.168386 0.0737,0.347023 0.14732,1.214628 0.14732,1.866291 0.22097,3.855159 0.29463,6.559592 0.66293,15.52723 0.22098,3.79111 0.14731,1.81448 0.14732,1.15784 0.0737,0.31746 0.0737,0.13842 0.0737,-0.042 0.0737,-0.22196 0.0737,-0.39976 0.14731,-1.31554 0.14732,-1.95787 0.22098,-3.96729 0.29463,-6.64751 0.58927,-13.954852 0.22098,-4.053678 0.14732,-2.029206 0.14731,-1.39469 0.0737,-0.441304 0.0737,-0.264271 0.0737,-0.08464 0.0736,0.09582 0.0737,0.275334 0.0737,0.452149 0.14732,1.415314 0.14732,2.047724 0.22097,4.075952 0.29464,6.729608 0.58927,13.87088 0.22097,3.94429 0.14732,1.93898 0.14732,1.29468 0.0736,0.38884 0.0737,0.21085 0.0737,0.0308 0.0737,-0.14957 0.0737,-0.32848 0.14732,-1.17901 0.14731,-1.83381 0.22098,-3.81507 0.29463,-6.52743 0.66293,-15.560095 0.22098,-3.831447 0.14732,-1.847067 0.14731,-1.193533 0.0737,-0.336034 0.0737,-0.157242 0.0737,0.0231 0.0737,0.203208 0.0737,0.381323 0.14732,1.280311 0.14732,1.925971 0.22098,3.928393 0.29463,6.617362 0.58927,13.98139 0.22098,4.09117 0.14731,2.0604 0.14732,1.42945 0.0737,0.4596 0.0737,0.28293 0.0737,0.1035 0.0737,-0.077 0.0737,-0.25666 0.0737,-0.43384 0.14732,-1.38049 0.14732,-2.01644 0.22097,-4.03828 0.29463,-6.70151 0.58927,-13.901682 0.22098,-3.983014 0.14732,-1.970794 0.14732,-1.329856 0.0737,-0.40726 0.0737,-0.229587 0.0737,-0.04966 0.0737,0.130754 0.0737,0.309885 0.14731,1.143273 0.14732,1.80114 0.22098,3.77457 0.29463,6.494561 0.66293,15.59129 0.22098,3.87137 0.14731,1.87946 0.14732,1.22909 0.0737,0.35458 0.0737,0.17604 0.0737,-0.004 0.0737,-0.18443 0.0737,-0.36284 0.14732,-1.24494 0.14732,-1.89387 0.22097,-3.88908 0.29464,-6.5865 0.66293,-15.49783 0.22097,-3.756343 0.14732,-1.786482 0.14732,-1.127263 0.0737,-0.301569 0.0737,-0.122341 0.0736,0.05809 0.0737,0.23795 0.0737,0.415481 0.14732,1.345525 0.14731,1.984938 0.22098,4.000175 0.29463,6.672689 0.58927,13.931 0.22098,4.02131 0.14732,2.00239 0.14731,1.36489 0.0737,0.42564 0.0737,0.24831 0.0737,0.0685 0.0737,-0.11192 0.0737,-0.29126 0.14731,-1.10741 0.14732,-1.76828 0.22098,-3.73366 0.29463,-6.461 0.66293,-15.620811 0.22097,-3.910878 0.14732,-1.911651 0.14732,-1.264529 0.0737,-0.37307 0.0737,-0.194823 0.0737,-0.01469 0.0737,0.165643 0.0736,0.34432 0.14732,1.20944 0.14732,1.861561 0.22097,3.849338 0.29464,6.55494 0.66292,15.53212 0.22098,3.79703 0.14732,1.81924 0.14732,1.16306 0.0737,0.32017 0.0737,0.14117 0.0737,-0.0392 0.0737,-0.21922 0.0737,-0.39708 0.14731,-1.31041 0.14732,-1.95322 0.22098,-3.96164 0.29463,-6.64316 0.58927,-13.95881 0.22098,-4.059176 0.14731,-2.033773 0.14732,-1.399773 0.0737,-0.443976 0.0737,-0.266993 0.0737,-0.08739 0.0737,0.09307 0.0737,0.272614 0.0737,0.449482 0.14731,1.410239 0.14732,2.043171 0.22097,4.070485 0.29464,6.72555 0.58927,13.87547 0.22097,3.94996 0.14732,1.94364 0.14732,1.29982 0.0737,0.39153 0.0737,0.21358 0.0736,0.0335 0.0737,-0.14684 0.0737,-0.32576 0.14732,-1.17381 0.14731,-1.82906 0.22098,-3.80918 0.29464,-6.52268 0.66292,-15.564742 0.22098,-3.837299 0.14732,-1.851806 0.14731,-1.198732 0.0737,-0.338741 0.0737,-0.159983 0.0737,0.02035 0.0737,0.200469 0.0737,0.378627 0.14732,1.275162 0.14731,1.921296 0.22098,3.922686 0.29463,6.612893 0.58927,13.98514 0.22098,4.0966 0.14731,2.06494 0.14732,1.43451 0.0737,0.46226 0.0737,0.28566 0.0737,0.10624 0.0737,-0.0742 0.0736,-0.25394 0.0737,-0.43116 0.14732,-1.3754 0.14732,-2.01185 0.22097,-4.03275 0.29464,-6.69734 0.58926,-13.906062 0.22098,-3.988626 0.14732,-1.975418 0.14732,-1.334977 0.0737,-0.409945 0.0737,-0.23232 0.0737,-0.05241 0.0737,0.128005 0.0737,0.307171 0.14731,1.138047 0.14732,1.796357 0.22098,3.768624 0.29463,6.489714 0.66293,15.5957 0.22098,3.87716 0.14731,1.88417 0.14732,1.23427 0.0737,0.35728 0.0737,0.17878 0.0737,-0.002 0.0737,-0.18169 0.0737,-0.36014 0.14731,-1.23978 0.14732,-1.88916 0.22097,-3.8833 0.29464,-6.58195 0.66293,-15.502943 0.22097,-3.762304 0.14732,-1.791271 0.14732,-1.132493 0.0737,-0.304284 0.0737,-0.12509 0.0737,0.05534 0.0737,0.235223 0.0737,0.412795 0.14732,1.34041 0.14731,1.980322 0.22098,3.994581 0.29463,6.668424 0.58927,13.93515 0.22098,4.02687 0.14732,2.00698 0.14731,1.36999 0.0737,0.42831 0.0737,0.25104 0.0737,0.0713 0.0737,-0.10916 0.0737,-0.28855 0.14732,-1.10216 0.14731,-1.76347 0.22098,-3.72766 0.29463,-6.45604 0.66293,-15.624982 0.22097,-3.916609 0.14732,-1.916332 0.14732,-1.269685 0.0737,-0.375766 0.0737,-0.197562 0.0737,-0.01741 0.0736,0.162896 0.0737,0.341617 0.14732,1.204248 0.14732,1.856833 0.22097,3.843504 0.29464,6.550278 0.66292,15.53699 0.22098,3.80293 0.14732,1.824 0.14732,1.16828 0.0736,0.32288 0.0737,0.14391 0.0737,-0.0365 0.0737,-0.21649 0.0737,-0.39438 0.14732,-1.30528 0.14731,-1.94858 0.22098,-3.95598 0.29463,-6.63879 0.58927,-13.962749 0.22098,-4.064667 0.14731,-2.038332 0.14732,-1.40485 0.0737,-0.446648 0.0737,-0.269716 0.0737,-0.09015 0.0737,0.09032 0.0737,0.269886 0.0736,0.446815 0.14732,1.405167 0.14732,2.038615 0.22097,4.065005 0.29464,6.721484 0.58927,13.88002 0.22097,3.95563 0.14732,1.94829 0.14732,1.30496 0.0737,0.39422 0.0737,0.21632 0.0736,0.0363 0.0737,-0.14408 0.0737,-0.32305 0.14732,-1.1686 0.14732,-1.8243 0.22097,-3.80329 0.29464,-6.51791 0.66292,-15.569373 0.22098,-3.843139 0.14732,-1.856542 0.14731,-1.203925 0.0737,-0.341448 0.0737,-0.162726 0.0737,0.01759 0.0737,0.197731 0.0737,0.375931 0.14731,1.270011 0.14732,1.91662 0.22098,3.916963 0.29463,6.608427 0.58927,13.98885 0.22098,4.10203 0.14731,2.06946 0.14732,1.43957 0.0737,0.46492 0.0737,0.28838 0.0737,0.10899 0.0737,-0.0715 0.0737,-0.2512 0.0737,-0.42849 0.14732,-1.3703 0.14732,-2.00727 0.22097,-4.02721 0.29464,-6.69317 0.58927,-13.91039 0.22097,-3.994234 0.14732,-1.980036 0.14732,-1.340091 0.0737,-0.412631 0.0737,-0.23505 0.0737,-0.05517 0.0737,0.125259 0.0737,0.304456 0.14732,1.132816 0.14731,1.791571 0.22098,3.762673 0.29463,6.484847 0.66293,15.60008 0.22098,3.88294 0.14731,1.88887 0.14732,1.23945 0.0737,0.35998 0.0737,0.18152 0.0737,0.001 0.0737,-0.17895 0.0737,-0.35744 0.14731,-1.23459 0.14732,-1.88447 0.22098,-3.87752 0.0737,-1.5233 v 0"
       style="fill:none;stroke:#ab37c8;stroke-width:0.380206;stroke-linecap:square;stroke-linejoin:round;stroke-miterlimit:10;stroke-dasharray:none;stroke-opacity:1"
       clip-path="url(#clipPath19)"
       transform="matrix(1.991457,0,0,0.80088605,-105.16627,20.150329)" />
    <path
       id="path38"
       d="m 56.19531,92.654471 0.441371,-1.640777 0.441367,-0.975307 0.220688,-0.2251 0.220688,-0.04655 0.220688,0.132469 0.220688,0.310183 0.441367,1.139613 0.441368,1.791959 0.662049,3.751275 0.882738,6.449154 1.98616,15.46633 0.662049,3.83569 0.441367,1.86025 0.44137,1.21446 0.220688,0.34915 0.220689,0.17195 0.220688,-0.007 0.220688,-0.18572 0.220688,-0.36271 0.441367,-1.24045 0.441367,-1.88389 0.662059,-3.86472 0.882734,-6.5401 1.986154,-15.372906 0.66205,-3.721378 0.441367,-1.76791 0.44137,-1.113357 0.220688,-0.296542 0.220688,-0.118667 0.220688,0.06038 0.220688,0.238823 0.220689,0.414926 0.44137,1.340194 0.441367,1.974165 0.662049,3.974793 0.882735,6.625319 1.765475,13.81914 0.662049,3.9847 0.441367,1.98235 0.441368,1.34927 0.220688,0.41969 0.220688,0.24368 0.220688,0.0653 0.220688,-0.11378 0.220688,-0.29171 0.441361,-1.10404 0.441368,-1.75938 0.662055,-3.71074 0.882737,-6.41595 1.986154,-15.49587 0.662056,-3.874949 0.441367,-1.892223 0.441361,-1.249632 0.220688,-0.367507 0.220688,-0.190597 0.220689,-0.01182 0.220688,0.167084 0.220688,0.34434 0.441376,1.205237 0.44137,1.851862 0.662047,3.825353 0.882728,6.508882 1.986163,15.40718 0.662046,3.76181 0.441371,1.80044 0.441376,1.14889 0.220688,0.315 0.220688,0.13736 0.220688,-0.0417 0.220688,-0.22024 0.220688,-0.39667 0.441368,-1.30538 0.44137,-1.94272 0.662055,-3.93663 0.882729,-6.5961 1.765472,-13.846972 0.662049,-4.022338 0.441376,-2.013517 0.441361,-1.383907 0.220689,-0.437892 0.220688,-0.262228 0.220688,-0.08398 0.220688,0.09508 0.220688,0.273205 0.220684,0.448653 0.44137,1.404372 0.44137,2.031892 0.66205,4.044439 0.88274,6.677573 1.76547,13.76364 0.66206,3.91379 0.44135,1.924 0.44138,1.28467 0.22069,0.38582 0.22069,0.20922 0.22068,0.0306 0.22069,-0.14843 0.22069,-0.32593 0.44137,-1.1699 0.44136,-1.81963 0.66205,-3.78558 0.88274,-6.47696 1.98616,-15.439788 0.66205,-3.801824 0.44137,-1.832787 0.44137,-1.184305 0.22068,-0.333436 0.22069,-0.156026 0.22069,0.02292 0.22069,0.201637 0.22069,0.378375 0.44136,1.270412 0.44137,1.911081 0.66206,3.89802 0.88273,6.566191 1.76547,13.8733 0.66205,4.05954 0.44138,2.04447 0.44135,1.41841 0.22069,0.45603 0.22069,0.28075 0.22069,0.10269 0.22069,-0.0764 0.22065,-0.25467 0.22069,-0.43048 0.44137,-1.36982 0.44138,-2.00085 0.66204,-4.00707 0.88273,-6.64968 1.76548,-13.794211 0.66205,-3.952219 0.44137,-1.955557 0.44137,-1.319574 0.22069,-0.404112 0.22068,-0.227812 0.22069,-0.04928 0.22069,0.129743 0.22069,0.30749 0.44137,1.134433 0.44137,1.787215 0.66205,3.745387 0.88273,6.444347 1.98616,15.47075 0.66205,3.84144 0.44137,1.86492 0.44138,1.2196 0.22065,0.35183 0.22069,0.17468 0.22069,-0.004 0.22069,-0.18301 0.22069,-0.36004 0.44135,-1.23531 0.44137,-1.87923 0.66205,-3.859 0.88275,-6.53559 1.98615,-15.378007 0.66206,-3.727301 0.44136,-1.77267 0.44137,-1.118548 0.22068,-0.299237 0.22069,-0.121395 0.22069,0.05764 0.22069,0.23611 0.22069,0.412269 0.44136,1.335122 0.44137,1.969591 0.66205,3.969248 0.88274,6.621108 1.76547,13.82329 0.66205,3.99022 0.44137,1.98691 0.44137,1.35433 0.22068,0.42235 0.22069,0.24639 0.22069,0.068 0.22069,-0.11106 0.22069,-0.289 0.44137,-1.09885 0.44136,-1.7546 0.66205,-3.70479 0.88274,-6.41105 1.98615,-15.50005 0.66205,-3.880641 0.44138,-1.896871 0.44136,-1.254752 0.22069,-0.370186 0.22068,-0.193317 0.22069,-0.01458 0.22069,0.164362 0.22069,0.341658 0.44137,1.200089 0.44137,1.847169 0.66205,3.819577 0.88273,6.504252 1.98615,15.41205 0.66206,3.76766 0.44136,1.80517 0.44138,1.15407 0.22069,0.3177 0.22068,0.14009 0.22069,-0.0389 0.22069,-0.21754 0.22069,-0.394 0.44137,-1.30029 0.44137,-1.93811 0.66204,-3.93101 0.88274,-6.59179 1.76547,-13.850895 0.66205,-4.027793 0.44137,-2.018049 0.44138,-1.38895 0.22068,-0.440544 0.22069,-0.264929 0.22069,-0.08672 0.22069,0.09235 0.22069,0.270506 0.22069,0.446007 0.44136,1.399335 0.44136,2.027375 0.66205,4.039014 0.88275,6.673543 1.76546,13.76819 0.66206,3.91943 0.44137,1.92861 0.44136,1.28978 0.22068,0.3885 0.22069,0.21193 0.22069,0.0332 0.22069,-0.1457 0.22069,-0.32325 0.44136,-1.16472 0.44137,-1.81492 0.66205,-3.77973 0.88275,-6.47225 1.98615,-15.444405 0.66205,-3.807631 0.44137,-1.837489 0.44137,-1.189464 0.22068,-0.336122 0.22066,-0.158746 0.22069,0.02019 0.22069,0.198919 0.22069,0.375699 0.44137,1.265303 0.44136,1.906442 0.66206,3.892358 0.88273,6.561766 1.76548,13.87701 0.66204,4.06494 0.44137,2.04896 0.44138,1.42342 0.22051,0.4587 0.22081,0.28344 0.22081,0.10542 0.2208,-0.0736 0.22081,-0.25197 0.22081,-0.42782 0.44135,-1.36477 0.44137,-1.99631 0.66207,-4.00157 0.88272,-6.64556 1.76547,-13.798538 0.66207,-3.957788 0.44134,-1.960145 0.44138,-1.324656 0.22081,-0.406776 0.22081,-0.230523 0.2208,-0.052 0.22081,0.127015 0.22081,0.304796 0.44138,1.129248 0.44137,1.782469 0.66207,3.739487 0.88272,6.439541 1.98616,15.47512 0.66204,3.84719 0.44137,1.8696 0.44138,1.22473 0.22081,0.35451 0.2208,0.1774 0.22081,-0.002 0.22081,-0.18028 0.22081,-0.35736 0.44137,-1.23018 0.44135,-1.87457 0.66207,-3.85327 0.88275,-6.53105 1.98613,-15.383095 0.66207,-3.733216 0.44137,-1.777422 0.44135,-1.123737 0.22081,-0.301932 0.2208,-0.124122 0.22081,0.05491 0.22081,0.233404 0.22081,0.409604 0.44137,1.330046 0.44138,1.965011 0.66206,3.963697 0.88273,6.616862 1.76547,13.82742 0.66207,3.99572 0.44134,1.99147 0.44138,1.3594 0.22081,0.425 0.2208,0.24909 0.22081,0.0707 0.22081,-0.10831 0.22081,-0.28631 0.44137,-1.09365 0.44138,-1.74983 0.66203,-3.69884 0.88276,-6.40613 1.98613,-15.504172 0.66206,-3.886328 0.44138,-1.901516 0.44138,-1.259868 0.22081,-0.372861 0.2208,-0.196035 0.22081,-0.01727 0.22081,0.161636 0.22081,0.338976 0.44137,1.194938 0.44135,1.842477 0.66206,3.813788 0.88273,6.499645 1.98616,15.41686 0.66206,3.77352 0.44135,1.80991 0.44138,1.15923 0.2208,0.32039 0.22081,0.14281 0.22081,-0.0362 0.22081,-0.21481 0.22081,-0.39134 0.44137,-1.29519 0.44138,-1.93351 0.66203,-3.9254 0.88276,-6.58745 1.76547,-13.854802 0.66203,-4.033241 0.44138,-2.022572 0.44138,-1.393989 0.2208,-0.443195 0.22081,-0.26763 0.22081,-0.08945 0.22081,0.08962 0.22081,0.2678 0.2208,0.44336 0.44138,1.394303 0.44135,2.022854 0.66206,4.033576 0.88275,6.669516 1.76548,13.77271 0.66203,3.92505 0.44138,1.93323 0.44135,1.29487 0.2208,0.39117 0.22081,0.21464 0.22081,0.036 0.22081,-0.14298 0.22081,-0.32055 0.44134,-1.15957 0.44138,-1.81019 0.66206,-3.77389 0.88272,-6.46751 1.98617,-15.448997 0.66203,-3.813426 0.44138,-1.842189 0.44137,-1.194616 0.22081,-0.338809 0.22081,-0.161467 0.22081,0.01745 0.22051,0.196202 0.2208,0.373024 0.44138,1.260192 0.44138,1.901802 0.66203,3.886679 0.88275,6.557335 1.76548,13.88069 0.66203,4.07032 0.44138,2.05346 0.44138,1.42844 0.2208,0.46133 0.22081,0.28614 0.22081,0.10816 0.22081,-0.0709 0.22081,-0.24925 0.2208,-0.42518 0.44135,-1.35971 0.44138,-1.99175 0.66206,-3.99606 0.88272,-6.64143 1.76548,-13.802843 0.66206,-3.963353 0.44135,-1.964727 0.44137,-1.32973 0.22081,-0.409441 0.22081,-0.233233 0.22081,-0.05474 0.22081,0.12429 0.2208,0.302102 0.44135,1.124058 0.44138,1.777719 0.66203,3.733582 0.88275,6.434706 1.98617,15.47947 0.66206,3.85292 0.44135,1.87427 0.44137,1.22987 0.22081,0.35719 0.22081,0.18012 0.22081,0.001 0.22081,-0.17758 0.2208,-0.35467 0.44138,-1.22505 0.44135,-1.86989 0.66206,-3.84754 0.22081,-1.51154 v 0"
       style="fill:none;stroke:#00aa44;stroke-width:0.16406964;stroke-linecap:square;stroke-linejoin:round;stroke-miterlimit:10;stroke-dasharray:none;stroke-opacity:1"
       clip-path="url(#clipPath12)"
       transform="matrix(3.1026959,0,0,1,-339.97711,0.17617425)" />
    <rect
       style="fill:none;fill-opacity:1;stroke:none;stroke-width:0.282001;stroke-dasharray:none"
       id="rect9"
       width="14.710549"
       height="41.841381"
       x="155.03333"
       y="86.325378" />
    <path
       style="fill:#672178;fill-opacity:1;stroke:none;stroke-width:0.234;stroke-dasharray:none"
       d="m 149.30194,89.817857 15.57175,34.257853"
       id="path16" />
    <path
       style="fill:#000000;fill-opacity:0;stroke:#ab37c8;stroke-width:0.598;stroke-dasharray:none;stroke-opacity:1"
       d="m 144.86945,91.189725 c -1.84826,4.657228 -2.71209,12.551555 -8.45124,14.182055 -1.44694,0.14404 -3.25485,0.1485 -3.25485,0.1485"
       id="path20"
       sodipodi:nodetypes="csc" />
    <path
       style="fill:#000000;fill-opacity:0;stroke:#ab37c8;stroke-width:0.598;stroke-dasharray:none;stroke-opacity:1"
       d="m 183.01367,90.999861 c 2.37707,5.950479 3.04336,15.004179 11.49816,13.937059"
       id="path20-6"
       sodipodi:nodetypes="cc" />
    <path
       style="fill:#170b28;fill-opacity:1;stroke:#000000;stroke-width:0.1;stroke-dasharray:0.40000001,0.1;stroke-opacity:1;stroke-dashoffset:0"
       d="m 151.39833,83.651443 0.31143,39.801397"
       id="path21" />
    <path
       style="fill:#170b28;fill-opacity:1;stroke:#000000;stroke-width:0.1;stroke-dasharray:0.4, 0.1;stroke-dashoffset:0;stroke-opacity:1"
       d="m 176.24481,83.939556 -0.23387,39.801934"
       id="path21-5" />
    <path
       style="fill:#170b28;fill-opacity:1;stroke:#000000;stroke-width:0.1;stroke-dasharray:none;stroke-dashoffset:0;stroke-opacity:1"
       d="m 133.71626,105.44029 60.95628,-0.35235"
       id="path22" />
    <text
       xml:space="preserve"
       style="font-size:3.175px;writing-mode:lr-tb;direction:ltr;opacity:0.972527;fill:#7c6f91;fill-opacity:1;stroke:none;stroke-width:0.1;stroke-dasharray:none;stroke-dashoffset:0;stroke-opacity:1"
       x="141.64409"
       y="85.268333"
       id="text87"><tspan
         sodipodi:role="line"
         id="tspan87"
         style="fill:#7c6f91;stroke-width:0.1"
         x="141.64409"
         y="85.268333">I</tspan></text>
    <text
       xml:space="preserve"
       style="font-size:3.175px;writing-mode:lr-tb;direction:ltr;opacity:1;fill:#9d93ac;fill-opacity:1;stroke:none;stroke-width:0.1;stroke-dasharray:none;stroke-dashoffset:0;stroke-opacity:1"
       x="162.08031"
       y="85.532593"
       id="text88"><tspan
         sodipodi:role="line"
         id="tspan88"
         style="stroke-width:0.1"
         x="162.08031"
         y="85.532593">II</tspan></text>
    <text
       xml:space="preserve"
       style="font-size:3.175px;writing-mode:lr-tb;direction:ltr;opacity:1;fill:#9d93ac;fill-opacity:1;stroke:none;stroke-width:0.1;stroke-dasharray:none;stroke-dashoffset:0;stroke-opacity:1"
       x="184.98296"
       y="85.97303"
       id="text89"><tspan
         sodipodi:role="line"
         id="tspan89"
         style="stroke-width:0.1"
         x="184.98296"
         y="85.97303">III</tspan></text>
    <text
       xml:space="preserve"
       style="font-size:3.175px;writing-mode:lr-tb;direction:ltr;opacity:1;fill:#00aa44;fill-opacity:1;stroke:none;stroke-width:0.1;stroke-dasharray:none;stroke-dashoffset:0;stroke-opacity:1"
       x="169.36601"
       y="124.45778"
       id="text90"><tspan
         sodipodi:role="line"
         id="tspan90"
         style="fill:#00aa44;fill-opacity:1;stroke:none;stroke-width:0.1;stroke-opacity:1"
         x="169.36601"
         y="124.45778">V(x)</tspan></text>
    <text
       xml:space="preserve"
       style="font-size:3.175px;writing-mode:lr-tb;direction:ltr;opacity:1;fill:#000000;fill-opacity:1;stroke:none;stroke-width:0.1;stroke-dasharray:none;stroke-dashoffset:0;stroke-opacity:1"
       x="144.3748"
       y="108.34715"
       id="text91"><tspan
         sodipodi:role="line"
         id="tspan91"
         style="fill:#000000;stroke-width:0.1"
         x="144.3748"
         y="108.34715">E</tspan></text>
    <circle
       style="opacity:1;fill:#800080;fill-opacity:1;stroke:none;stroke-width:0.1;stroke-dasharray:none;stroke-dashoffset:0;stroke-opacity:1"
       id="path91"
       cx="151.8987"
       cy="105.3264"
       r="0.52852273" />
    <circle
       style="fill:#800080;fill-opacity:1;stroke:none;stroke-width:0.1;stroke-dasharray:none;stroke-dashoffset:0;stroke-opacity:1"
       id="path91-5"
       cx="176.37981"
       cy="105.20115"
       r="0.52852273" />
    <g
       id="page1"
       transform="matrix(0.22032456,0,0,0.22409752,136.60569,92.452928)"
       style="fill:#800080">
      <path
         id="use1"
         d="m 62.080015,60.875717 c -0.382566,0.07173 -0.526028,0.358655 -0.526028,0.585804 0,0.286924 0.227148,0.382565 0.394521,0.382565 0.358655,0 0.609713,-0.310834 0.609713,-0.633624 0,-0.502117 -0.573848,-0.729265 -1.075965,-0.729265 -0.729265,0 -1.135741,0.71731 -1.243337,0.944458 -0.274969,-0.896637 -1.016189,-0.944458 -1.231383,-0.944458 -1.219427,0 -1.865006,1.566127 -1.865006,1.829141 0,0.04782 0.04782,0.107596 0.131507,0.107596 0.09564,0 0.119552,-0.07173 0.143462,-0.119552 0.406476,-1.327023 1.207472,-1.578082 1.554172,-1.578082 0.537983,0 0.645579,0.502117 0.645579,0.789041 0,0.263014 -0.07173,0.537983 -0.215193,1.111831 l -0.406476,1.637858 c -0.179327,0.71731 -0.526027,1.374844 -1.159651,1.374844 -0.05978,0 -0.358655,0 -0.609714,-0.155417 0.430386,-0.08369 0.526028,-0.442341 0.526028,-0.585803 0,-0.239103 -0.179328,-0.382565 -0.406476,-0.382565 -0.286924,0 -0.597758,0.251058 -0.597758,0.633623 0,0.502117 0.561893,0.729266 1.075965,0.729266 0.573848,0 0.980324,-0.454297 1.231382,-0.944459 0.191283,0.705355 0.789041,0.944459 1.231382,0.944459 1.219428,0 1.865007,-1.566127 1.865007,-1.829141 0,-0.05978 -0.04782,-0.107597 -0.119552,-0.107597 -0.107596,0 -0.119552,0.05978 -0.155417,0.155418 -0.32279,1.052054 -1.016189,1.542216 -1.554172,1.542216 -0.418431,0 -0.645579,-0.310834 -0.645579,-0.800996 0,-0.263014 0.04782,-0.454296 0.239103,-1.243337 l 0.418431,-1.625903 c 0.179328,-0.71731 0.585803,-1.243338 1.135741,-1.243338 0.02391,0 0.358655,0 0.609714,0.155417 z"
         style="fill:#800080" />
      <path
         id="use2"
         d="m 65.567968,62.469723 c 0,-0.215193 -0.01594,-0.223164 -0.231133,-0.223164 -0.326775,0.318805 -0.749191,0.510088 -1.506351,0.510088 v 0.263013 c 0.215193,0 0.645579,0 1.107845,-0.215193 v 4.088668 c 0,0.294894 -0.02391,0.390535 -0.781071,0.390535 h -0.278954 v 0.263014 c 0.326775,-0.02391 1.012205,-0.02391 1.37086,-0.02391 0.358655,0 1.052055,0 1.378829,0.02391 V 67.28367 h -0.278954 c -0.75716,0 -0.781071,-0.09564 -0.781071,-0.390535 z"
         style="fill:#800080" />
    </g>
    <g
       id="page1-7"
       transform="matrix(0.24194804,0,0,0.26149924,163.21413,90.014653)"
       style="fill:#800080">
      <path
         id="use1-5"
         d="m 62.080015,60.875717 c -0.382566,0.07173 -0.526028,0.358655 -0.526028,0.585804 0,0.286924 0.227148,0.382565 0.394521,0.382565 0.358655,0 0.609713,-0.310834 0.609713,-0.633624 0,-0.502117 -0.573848,-0.729265 -1.075965,-0.729265 -0.729265,0 -1.135741,0.71731 -1.243337,0.944458 -0.274969,-0.896637 -1.016189,-0.944458 -1.231383,-0.944458 -1.219427,0 -1.865006,1.566127 -1.865006,1.829141 0,0.04782 0.04782,0.107596 0.131507,0.107596 0.09564,0 0.119552,-0.07173 0.143462,-0.119552 0.406476,-1.327023 1.207472,-1.578082 1.554172,-1.578082 0.537983,0 0.645579,0.502117 0.645579,0.789041 0,0.263014 -0.07173,0.537983 -0.215193,1.111831 l -0.406476,1.637858 c -0.179327,0.71731 -0.526027,1.374844 -1.159651,1.374844 -0.05978,0 -0.358655,0 -0.609714,-0.155417 0.430386,-0.08369 0.526028,-0.442341 0.526028,-0.585803 0,-0.239103 -0.179328,-0.382565 -0.406476,-0.382565 -0.286924,0 -0.597758,0.251058 -0.597758,0.633623 0,0.502117 0.561893,0.729266 1.075965,0.729266 0.573848,0 0.980324,-0.454297 1.231382,-0.944459 0.191283,0.705355 0.789041,0.944459 1.231382,0.944459 1.219428,0 1.865007,-1.566127 1.865007,-1.829141 0,-0.05978 -0.04782,-0.107597 -0.119552,-0.107597 -0.107596,0 -0.119552,0.05978 -0.155417,0.155418 -0.32279,1.052054 -1.016189,1.542216 -1.554172,1.542216 -0.418431,0 -0.645579,-0.310834 -0.645579,-0.800996 0,-0.263014 0.04782,-0.454296 0.239103,-1.243337 l 0.418431,-1.625903 c 0.179328,-0.71731 0.585803,-1.243338 1.135741,-1.243338 0.02391,0 0.358655,0 0.609714,0.155417 z"
         style="fill:#800080" />
      <path
         id="use2-7"
         d="m 65.312925,65.920781 c 0.127521,-0.119552 0.462266,-0.382565 0.589788,-0.494147 0.494147,-0.454296 0.964383,-0.892652 0.964383,-1.617933 0,-0.948443 -0.797011,-1.562142 -1.793275,-1.562142 -0.956413,0 -1.586052,0.725281 -1.586052,1.434621 0,0.390535 0.310834,0.446326 0.422416,0.446326 0.167372,0 0.414446,-0.119552 0.414446,-0.422416 0,-0.414446 -0.398506,-0.414446 -0.494147,-0.414446 0.231133,-0.581818 0.765131,-0.781071 1.155666,-0.781071 0.74122,0 1.123786,0.629639 1.123786,1.299128 0,0.828892 -0.581818,1.434621 -1.522292,2.399004 L 63.58341,67.24382 c -0.09564,0.08767 -0.09564,0.103611 -0.09564,0.302864 h 3.148194 l 0.231133,-1.42665 h -0.247073 c -0.02391,0.159402 -0.08767,0.557908 -0.183313,0.70934 -0.04782,0.06376 -0.653549,0.06376 -0.781071,0.06376 h -1.41868 z"
         style="fill:#800080" />
    </g>
  </g>
</svg>
